{
.appVersion = "1219";
DisplayStrings = (
"OIl0368/Placeholder O0/Placeholder 0\012IIII/Placeholder IIII/Placeholder a\012000/Placeholder/Placeholder/Placeholder 000",
"eolfsß/Placeholder an\012/l.ss01/l.ss01/l.ss01/l.ss01/Placeholder/l.ss01/l.ss01/l.ss01/l.ss01",
"ao /l.ss01/l.ss01/l.ss01/l.ss01/Placeholder/l.ss01/l.ss01/l.ss01/l.ss01 \012oooonnnn\012nnnnoooo",
"nr/Placeholder"
);
classes = (
{
automatic = 1;
code = "A AE B C D Eth E F G H I J K L Lslash M N O Oslash OE P Thorn Q R S T U V W X Y Z Aacute Acircumflex Adieresis Agrave Aring Atilde Ccedilla Eacute Ecircumflex Edieresis Egrave Iacute Icircumflex Idieresis Igrave Ntilde Oacute Ocircumflex Odieresis Ograve Otilde Scaron Uacute Ucircumflex Udieresis Ugrave Yacute Ydieresis Zcaron Delta Omega";
name = Uppercase;
},
{
code = "b l h ";
name = ascenders;
}
);
copyright = "Copyright © 2019 by Jacques Le Bailly. All rights reserved.";
customParameters = (
{
name = description;
value = "Copyright (c) 2013 by Jacques Le Bailly. All rights reserved.";
},
{
name = vendorID;
value = bvf;
},
{
name = unicodeRanges;
value = (
0
);
},
{
name = codePageRanges;
value = (
1252
);
},
{
name = glyphOrder;
value = (
A,
Aogonek,
AE,
B,
C,
D,
Eth,
E,
Eogonek,
F,
G,
H,
Hbar,
I,
Iogonek,
I_J.loclNLD,
J,
K,
L,
Lcaron,
Ldot,
Lslash,
M,
N,
Eng,
O,
Oslash,
Ohorn,
Oogonek,
OE,
P,
Thorn,
Q,
R,
S,
Germandbls,
Schwa,
T,
Tbar,
U,
Uogonek,
Uhorn,
V,
W,
X,
Y,
Z,
a,
aogonek,
ae,
b,
c,
d,
dcaron,
dcroat,
eth,
e,
eogonek,
f,
g,
h,
hbar,
i,
idotless,
iogonek,
i_j.loclNLD,
j,
jdotless,
k,
kgreenlandic,
l,
ldot,
lcaron,
lslash,
m,
n,
eng,
o,
oogonek,
oslash,
ohorn,
oe,
p,
thorn,
q,
r,
s,
germandbls,
schwa,
t,
tbar,
tcaron,
u,
uogonek,
uhorn,
v,
w,
x,
y,
z
);
}
);
date = "2019-03-20 09:03:55 +0000";
designer = "Jacques Le Bailly";
disablesNiceNames = 1;
familyName = "LV UpItalic";
featurePrefixes = (
{
automatic = 1;

glyphs = (
{
color = 3;
glyphname = A;
lastChange = "2019-03-14 10:23:03 +0000";
layers = (
{
background = {
paths = (
{
closed = 1;
nodes = (
"105 0 LINE",
"367 644 LINE",
"335 644 LINE",
"586 0 LINE",
"671 0 LINE",
"387 710 LINE",
"316 710 LINE",
"20 0 LINE"
);
},
{
closed = 1;
nodes = (
"549 188 LINE",
"531 257 LINE",
"166 257 LINE",
"150 188 LINE"
);
}
);
};
layerId = "A3B50665-EA37-4AC6-885C-1233CA61B6BD";
paths = (
{
closed = 1;
nodes = (
"109 0 LINE",
"370 644 LINE",
"342 644 LINE",
"592 0 LINE",
"676 0 LINE",
"392 710 LINE",
"321 710 LINE",
"25 0 LINE"
);
},
{
closed = 1;
nodes = (
"554 188 LINE",
"536 257 LINE",
"171 257 LINE",
"155 188 LINE"
);
}
);
width = 705;
},
{
background = {
paths = (
{
closed = 1;
nodes = (
"958 0 LINE",
"1201 589 LINE",
"1145 591 LINE",
"1383 0 LINE",
"1540 0 LINE",
"1240 710 LINE",
"1109 710 LINE",
"799 0 LINE"
);
},
{
closed = 1;
nodes = (
"1391 149 LINE",
"1329 279 LINE",
"1020 279 LINE",
"958 149 LINE"
);
},
{
closed = 1;
nodes = (
"162 0 LINE",
"397 589 LINE",
"341 591 LINE",
"579 0 LINE",
"736 0 LINE",
"435 710 LINE",
"304 710 LINE",
"3 0 LINE"
);
},
{
closed = 1;
nodes = (
"587 149 LINE",
"525 279 LINE",
"224 279 LINE",
"162 149 LINE"
);
}
);
};
layerId = "014D4A40-7C7F-4023-B30E-1F55CE5EA091";
paths = (
{
closed = 1;
nodes = (
"159 0 LINE",
"399 589 LINE",
"343 591 LINE",
"576 0 LINE",
"733 0 LINE",
"438 710 LINE",
"307 710 LINE",
"0 0 LINE"
);
},
{
closed = 1;
nodes = (
"585 149 LINE",
"524 279 LINE",
"223 279 LINE",
"160 149 LINE"
);
}
);
width = 737;
}
);
unicode = 0041;
},
{
color = 3;
glyphname = B;
lastChange = "2019-03-12 13:07:15 +0000";
layers = (
{
anchors = (
{
name = bottom;
position = "{347, 0}";
},
{
name = top;
position = "{346, 712}";
}
);
background = {
paths = (
{
closed = 1;
nodes = (
"315 0 LINE SMOOTH",
"489 0 OFFCURVE",
"577 69 OFFCURVE",
"577 196 CURVE SMOOTH",
"577 281 OFFCURVE",
"522 346 OFFCURVE",
"436 365 CURVE",
"427 353 LINE",
"519 374 OFFCURVE",
"573 439 OFFCURVE",
"573 521 CURVE SMOOTH",
"573 643 OFFCURVE",
"477 710 OFFCURVE",
"290 710 CURVE SMOOTH",
"89 710 LINE",
"89 0 LINE"
);
},
{
closed = 1;
nodes = (
"172 641 LINE",
"276 641 LINE SMOOTH",
"430 641 OFFCURVE",
"492 606 OFFCURVE",
"492 520 CURVE SMOOTH",
"492 432 OFFCURVE",
"429 393 OFFCURVE",
"296 393 CURVE SMOOTH",
"156 393 LINE",
"156 322 LINE",
"319 322 LINE SMOOTH",
"439 322 OFFCURVE",
"496 281 OFFCURVE",
"496 196 CURVE SMOOTH",
"496 107 OFFCURVE",
"444 70 OFFCURVE",
"309 70 CURVE SMOOTH",
"172 70 LINE"
);
}
);
};
layerId = "A3B50665-EA37-4AC6-885C-1233CA61B6BD";
paths = (
{
closed = 1;
nodes = (
"315 0 LINE SMOOTH",
"489 0 OFFCURVE",
"577 69 OFFCURVE",
"577 196 CURVE SMOOTH",
"577 281 OFFCURVE",
"522 346 OFFCURVE",
"436 365 CURVE",
"427 353 LINE",
"519 374 OFFCURVE",
"573 439 OFFCURVE",
"573 521 CURVE SMOOTH",
"573 643 OFFCURVE",
"477 710 OFFCURVE",
"290 710 CURVE SMOOTH",
"94 710 LINE",
"94 0 LINE"
);
},
{
closed = 1;
nodes = (
"175 641 LINE",
"276 641 LINE SMOOTH",
"430 641 OFFCURVE",
"492 606 OFFCURVE",
"492 520 CURVE SMOOTH",
"492 432 OFFCURVE",
"429 393 OFFCURVE",
"296 393 CURVE SMOOTH",
"161 393 LINE",
"161 322 LINE",
"319 322 LINE SMOOTH",
"439 322 OFFCURVE",
"496 281 OFFCURVE",
"496 196 CURVE SMOOTH",
"496 107 OFFCURVE",
"444 70 OFFCURVE",
"309 70 CURVE SMOOTH",
"175 70 LINE"
);
}
);
width = 639;
},
{
anchors = (
{
name = bottom;
position = "{358, 0}";
},
{
name = top;
position = "{358, 712}";
}
);
background = {
paths = (
{
closed = 1;
nodes = (
"388 0 LINE SMOOTH",
"536 0 OFFCURVE",
"637 84 OFFCURVE",
"637 207 CURVE SMOOTH",
"637 290 OFFCURVE",
"596 345 OFFCURVE",
"518 368 CURVE",
"508 351 LINE",
"584 377 OFFCURVE",
"628 437 OFFCURVE",
"628 513 CURVE SMOOTH",
"628 643 OFFCURVE",
"520 710 OFFCURVE",
"312 710 CURVE SMOOTH",
"76 710 LINE",
"76 0 LINE"
);
},
{
closed = 1;
nodes = (
"232 588 LINE",
"324 588 LINE SMOOTH",
"426 588 OFFCURVE",
"473 561 OFFCURVE",
"473 502 CURVE SMOOTH",
"473 446 OFFCURVE",
"431 420 OFFCURVE",
"342 420 CURVE SMOOTH",
"216 420 LINE",
"216 295 LINE",
"365 295 LINE SMOOTH",
"446 295 OFFCURVE",
"482 268 OFFCURVE",
"482 208 CURVE SMOOTH",
"482 153 OFFCURVE",
"440 123 OFFCURVE",
"365 123 CURVE SMOOTH",
"232 123 LINE"
);
}
);
};
layerId = "014D4A40-7C7F-4023-B30E-1F55CE5EA091";
paths = (
{
closed = 1;
nodes = (
"378 0 LINE SMOOTH",
"526 0 OFFCURVE",
"627 84 OFFCURVE",
"627 207 CURVE SMOOTH",
"627 290 OFFCURVE",
"586 345 OFFCURVE",
"508 368 CURVE",
"498 351 LINE",
"574 377 OFFCURVE",
"618 437 OFFCURVE",
"618 513 CURVE SMOOTH",
"618 643 OFFCURVE",
"510 710 OFFCURVE",
"302 710 CURVE SMOOTH",
"76 710 LINE",
"76 0 LINE"
);
},
{
closed = 1;
nodes = (
"229 588 LINE",
"314 588 LINE SMOOTH",
"416 588 OFFCURVE",
"463 561 OFFCURVE",
"463 502 CURVE SMOOTH",
"463 446 OFFCURVE",
"421 420 OFFCURVE",
"332 420 CURVE SMOOTH",
"213 420 LINE",
"213 295 LINE",
"355 295 LINE SMOOTH",
"436 295 OFFCURVE",
"472 268 OFFCURVE",
"472 208 CURVE SMOOTH",
"472 153 OFFCURVE",
"430 123 OFFCURVE",
"355 123 CURVE SMOOTH",
"229 123 LINE"
);
}
);
width = 670;
}
);
leftMetricsKey = H;
unicode = 0042;
},
{
color = 3;
glyphname = C;
lastChange = "2019-03-12 13:07:15 +0000";
layers = (
{
background = {
paths = (
{
closed = 1;
nodes = (
"1389 184 LINE",
"1348 108 OFFCURVE",
"1278 68 OFFCURVE",
"1186 68 CURVE SMOOTH",
"1032 68 OFFCURVE",
"942 169 OFFCURVE",
"942 342 CURVE SMOOTH",
"942 521 OFFCURVE",
"1048 645 OFFCURVE",
"1201 645 CURVE SMOOTH",
"1286 645 OFFCURVE",
"1349 609 OFFCURVE",
"1389 537 CURVE",
"1453 585 LINE",
"1401 674 OFFCURVE",
"1316 720 OFFCURVE",
"1205 720 CURVE SMOOTH",
"1000 720 OFFCURVE",
"859 566 OFFCURVE",
"859 342 CURVE SMOOTH",
"859 124 OFFCURVE",
"983 -8 OFFCURVE",
"1186 -8 CURVE SMOOTH",
"1304 -8 OFFCURVE",
"1400 43 OFFCURVE",
"1452 136 CURVE"
);
},
{
closed = 1;
nodes = (
"573 -8 OFFCURVE",
"712 139 OFFCURVE",
"712 369 CURVE SMOOTH",
"712 580 OFFCURVE",
"587 720 OFFCURVE",
"400 720 CURVE SMOOTH",
"199 720 OFFCURVE",
"59 564 OFFCURVE",
"59 342 CURVE SMOOTH",
"59 120 OFFCURVE",
"182 -8 OFFCURVE",
"382 -8 CURVE SMOOTH"
);
},
{
closed = 1;
nodes = (
"233 68 OFFCURVE",
"142 166 OFFCURVE",
"142 342 CURVE SMOOTH",
"142 524 OFFCURVE",
"250 645 OFFCURVE",
"401 645 CURVE SMOOTH",
"541 645 OFFCURVE",
"630 538 OFFCURVE",
"630 371 CURVE SMOOTH",
"630 179 OFFCURVE",
"528 68 OFFCURVE",
"382 68 CURVE SMOOTH"
);
}
);
};
guideLines = (
{
angle = 90;
position = "{751, 356}";
},
{
angle = 90;
position = "{814, 356}";
}
);
layerId = "A3B50665-EA37-4AC6-885C-1233CA61B6BD";
paths = (
{
closed = 1;
nodes = (
"594 184 LINE",
"553 108 OFFCURVE",
"483 70 OFFCURVE",
"391 70 CURVE SMOOTH",
"239 70 OFFCURVE",
"149 169 OFFCURVE",
"149 342 CURVE SMOOTH",
"149 521 OFFCURVE",
"255 643 OFFCURVE",
"406 643 CURVE SMOOTH",
"491 643 OFFCURVE",
"554 609 OFFCURVE",
"594 537 CURVE",
"658 585 LINE",
"606 674 OFFCURVE",
"521 720 OFFCURVE",
"410 720 CURVE SMOOTH",
"205 720 OFFCURVE",
"64 566 OFFCURVE",
"64 342 CURVE SMOOTH",
"64 124 OFFCURVE",
"188 -8 OFFCURVE",
"391 -8 CURVE SMOOTH",
"509 -8 OFFCURVE",
"605 43 OFFCURVE",
"657 136 CURVE"
);
}
);
width = 683;
},
{
background = {
paths = (
{
closed = 1;
nodes = (
"598 -8 OFFCURVE",
"744 139 OFFCURVE",
"744 369 CURVE SMOOTH",
"744 580 OFFCURVE",
"610 720 OFFCURVE",
"408 720 CURVE SMOOTH",
"180 720 OFFCURVE",
"39 564 OFFCURVE",
"39 342 CURVE SMOOTH",
"39 120 OFFCURVE",
"172 -12 OFFCURVE",
"395 -10 CURVE SMOOTH"
);
},
{
closed = 1;
nodes = (
"270 129 OFFCURVE",
"198 207 OFFCURVE",
"198 345 CURVE SMOOTH",
"198 486 OFFCURVE",
"284 582 OFFCURVE",
"404 582 CURVE SMOOTH",
"515 582 OFFCURVE",
"586 497 OFFCURVE",
"586 368 CURVE SMOOTH",
"586 217 OFFCURVE",
"505 129 OFFCURVE",
"389 129 CURVE SMOOTH"
);
},
{
closed = 1;
nodes = (
"574 231 LINE",
"536 163 OFFCURVE",
"469 129 OFFCURVE",
"402 129 CURVE SMOOTH",
"274 129 OFFCURVE",
"198 208 OFFCURVE",
"198 344 CURVE SMOOTH",
"198 484 OFFCURVE",
"287 582 OFFCURVE",
"414 582 CURVE SMOOTH",
"477 582 OFFCURVE",
"538 552 OFFCURVE",
"572 489 CURVE",
"689 576 LINE",
"627 673 OFFCURVE",
"541 720 OFFCURVE",
"415 720 CURVE SMOOTH",
"192 720 OFFCURVE",
"39 566 OFFCURVE",
"39 341 CURVE SMOOTH",
"39 122 OFFCURVE",
"173 -10 OFFCURVE",
"400 -10 CURVE SMOOTH",
"523 -10 OFFCURVE",
"630 43 OFFCURVE",
"688 139 CURVE"
);
}
);
};
layerId = "014D4A40-7C7F-4023-B30E-1F55CE5EA091";
paths = (
{
closed = 1;
nodes = (
"574 231 LINE",
"536 163 OFFCURVE",
"469 132 OFFCURVE",
"402 132 CURVE SMOOTH",
"276 132 OFFCURVE",
"201 208 OFFCURVE",
"201 344 CURVE SMOOTH",
"201 484 OFFCURVE",
"289 579 OFFCURVE",
"414 579 CURVE SMOOTH",
"477 579 OFFCURVE",
"538 552 OFFCURVE",
"572 489 CURVE",
"689 576 LINE",
"627 673 OFFCURVE",
"541 720 OFFCURVE",
"415 720 CURVE SMOOTH",
"192 720 OFFCURVE",
"39 566 OFFCURVE",
"39 341 CURVE SMOOTH",
"39 122 OFFCURVE",
"173 -10 OFFCURVE",
"400 -10 CURVE SMOOTH",
"523 -10 OFFCURVE",
"630 43 OFFCURVE",
"688 139 CURVE"
);
}
);
width = 704;
}
);
leftMetricsKey = O;
unicode = 0043;
},
{
color = 3;
glyphname = D;
lastChange = "2019-03-14 10:23:03 +0000";
layers = (
{
background = {
paths = (
{
closed = 1;
nodes = (
"1546 0 LINE SMOOTH",
"1778 0 OFFCURVE",
"1927 135 OFFCURVE",
"1927 359 CURVE SMOOTH",
"1927 585 OFFCURVE",
"1782 710 OFFCURVE",
"1522 710 CURVE SMOOTH",
"1289 710 LINE",
"1289 0 LINE"
);
},
{
closed = 1;
nodes = (
"1372 635 LINE",
"1525 635 LINE SMOOTH",
"1747 635 OFFCURVE",
"1844 537 OFFCURVE",
"1844 354 CURVE SMOOTH",
"1844 176 OFFCURVE",
"1744 75 OFFCURVE",
"1547 75 CURVE SMOOTH",
"1372 75 LINE"
);
},
{
closed = 1;
nodes = (
"647 0 LINE",
"647 710 LINE",
"564 710 LINE",
"564 0 LINE"
);
},
{
closed = 1;
nodes = (
"172 0 LINE",
"172 710 LINE",
"89 710 LINE",
"89 0 LINE"
);
},
{
closed = 1;
nodes = (
"613 325 LINE",
"613 395 LINE",
"132 395 LINE",
"132 325 LINE"
);
}
);
};
layerId = "A3B50665-EA37-4AC6-885C-1233CA61B6BD";
paths = (
{
closed = 1;
nodes = (
"306 0 LINE SMOOTH",
"545 0 OFFCURVE",
"690 136 OFFCURVE",
"690 359 CURVE SMOOTH",
"690 591 OFFCURVE",
"553 710 OFFCURVE",
"287 710 CURVE SMOOTH",
"94 710 LINE",
"94 0 LINE"
);
},
{
closed = 1;
nodes = (
"177 635 LINE",
"290 635 LINE SMOOTH",
"504 635 OFFCURVE",
"606 544 OFFCURVE",
"606 354 CURVE SMOOTH",
"606 170 OFFCURVE",
"503 76 OFFCURVE",
"302 76 CURVE SMOOTH",
"177 76 LINE"
);
}
);
width = 754;
},
{
background = {
paths = (
{
closed = 1;
nodes = (
"1251 0 LINE SMOOTH",
"1510 0 OFFCURVE",
"1645 171 OFFCURVE",
"1645 359 CURVE SMOOTH",
"1645 580 OFFCURVE",
"1500 710 OFFCURVE",
"1216 710 CURVE SMOOTH",
"976 710 LINE",
"976 0 LINE"
);
},
{
closed = 1;
nodes = (
"1132 573 LINE",
"1236 573 LINE SMOOTH",
"1413 573 OFFCURVE",
"1486 496 OFFCURVE",
"1486 354 CURVE SMOOTH",
"1486 221 OFFCURVE",
"1404 139 OFFCURVE",
"1262 139 CURVE SMOOTH",
"1132 139 LINE"
);
},
{
closed = 1;
nodes = (
"694 0 LINE",
"694 710 LINE",
"538 710 LINE",
"538 0 LINE"
);
},
{
closed = 1;
nodes = (
"232 0 LINE",
"232 710 LINE",
"76 710 LINE",
"76 0 LINE"
);
},
{
closed = 1;
nodes = (
"634 290 LINE",
"634 426 LINE",
"124 426 LINE",
"124 290 LINE"
);
}
);
};
layerId = "014D4A40-7C7F-4023-B30E-1F55CE5EA091";
paths = (
{
closed = 1;
nodes = (
"345 0 LINE SMOOTH",
"581 0 OFFCURVE",
"728 146 OFFCURVE",
"728 357 CURVE SMOOTH",
"728 589 OFFCURVE",
"582 710 OFFCURVE",
"302 710 CURVE SMOOTH",
"76 710 LINE",
"76 0 LINE"
);
},
{
closed = 1;
nodes = (
"232 573 LINE",
"322 573 LINE SMOOTH",
"484 573 OFFCURVE",
"567 503 OFFCURVE",
"567 352 CURVE SMOOTH",
"567 210 OFFCURVE",
"485 139 OFFCURVE",
"338 139 CURVE SMOOTH",
"232 139 LINE"
);
}
);
width = 767;
}
);
leftMetricsKey = H;
rightMetricsKey = O;
unicode = 0044;
},
{
color = 3;
glyphname = E;
lastChange = "2019-03-12 13:07:15 +0000";
layers = (
{
background = {
paths = (
{
closed = 1;
nodes = (
"505 710 LINE",
"89 710 LINE",
"89 0 LINE",
"512 0 LINE",
"522 72 LINE",
"172 72 LINE",
"172 325 LINE",
"495 325 LINE",
"495 395 LINE",
"172 395 LINE",
"172 638 LINE",
"505 638 LINE"
);
}
);
};
layerId = "A3B50665-EA37-4AC6-885C-1233CA61B6BD";
paths = (
{
closed = 1;
nodes = (
"510 710 LINE",
"94 710 LINE",
"94 0 LINE",
"517 0 LINE",
"527 71 LINE",
"175 71 LINE",
"175 325 LINE",
"500 325 LINE",
"500 395 LINE",
"175 395 LINE",
"175 640 LINE",
"510 640 LINE"
);
}
);
width = 566;
},
{
background = {
paths = (
{
closed = 1;
nodes = (
"556 710 LINE",
"76 710 LINE",
"76 0 LINE",
"556 0 LINE",
"566 140 LINE",
"232 140 LINE",
"232 290 LINE",
"536 290 LINE",
"536 426 LINE",
"232 426 LINE",
"232 570 LINE",
"556 570 LINE"
);
}
);
};
layerId = "014D4A40-7C7F-4023-B30E-1F55CE5EA091";
paths = (
{
closed = 1;
nodes = (
"556 710 LINE",
"76 710 LINE",
"76 0 LINE",
"556 0 LINE",
"566 138 LINE",
"230 138 LINE",
"230 290 LINE",
"536 290 LINE",
"536 426 LINE",
"230 426 LINE",
"230 574 LINE",
"556 574 LINE"
);
}
);
width = 607;
}
);
leftMetricsKey = H;
unicode = 0045;
},
{
color = 3;
glyphname = F;
lastChange = "2019-03-12 13:07:15 +0000";
layers = (
{
background = {
paths = (
{
closed = 1;
nodes = (
"485 710 LINE",
"89 710 LINE",
"89 0 LINE",
"172 0 LINE",
"172 315 LINE",
"475 315 LINE",
"475 385 LINE",
"172 385 LINE",
"172 638 LINE",
"485 638 LINE"
);
}
);
};
layerId = "A3B50665-EA37-4AC6-885C-1233CA61B6BD";
paths = (
{
closed = 1;
nodes = (
"490 710 LINE",
"94 710 LINE",
"94 0 LINE",
"175 0 LINE",
"175 315 LINE",
"480 315 LINE",
"480 385 LINE",
"175 385 LINE",
"175 640 LINE",
"490 640 LINE"
);
}
);
width = 523;
},
{
background = {
paths = (
{
closed = 1;
nodes = (
"533 710 LINE",
"76 710 LINE",
"76 0 LINE",
"232 0 LINE",
"232 280 LINE",
"513 280 LINE",
"513 416 LINE",
"232 416 LINE",
"232 570 LINE",
"533 570 LINE"
);
}
);
};
layerId = "014D4A40-7C7F-4023-B30E-1F55CE5EA091";
paths = (
{
closed = 1;
nodes = (
"533 710 LINE",
"76 710 LINE",
"76 0 LINE",
"230 0 LINE",
"230 280 LINE",
"513 280 LINE",
"513 416 LINE",
"230 416 LINE",
"230 574 LINE",
"533 574 LINE"
);
}
);
width = 573;
}
);
leftMetricsKey = H;
unicode = 0046;
},
{
color = 3;
glyphname = G;
lastChange = "2019-03-12 13:07:15 +0000";
layers = (
{
background = {
paths = (
{
closed = 1;
nodes = (
"420 279 LINE",
"637 279 LINE",
"593 324 LINE",
"591 248 LINE SMOOTH",
"588 136 OFFCURVE",
"509 69 OFFCURVE",
"382 69 CURVE SMOOTH",
"235 69 OFFCURVE",
"143 166 OFFCURVE",
"143 342 CURVE SMOOTH",
"143 519 OFFCURVE",
"254 643 OFFCURVE",
"409 643 CURVE SMOOTH",
"498 643 OFFCURVE",
"562 608 OFFCURVE",
"601 537 CURVE",
"665 585 LINE",
"613 674 OFFCURVE",
"527 720 OFFCURVE",
"413 720 CURVE SMOOTH",
"205 720 OFFCURVE",
"59 566 OFFCURVE",
"59 342 CURVE SMOOTH",
"59 123 OFFCURVE",
"177 -8 OFFCURVE",
"376 -8 CURVE SMOOTH",
"489 -8 OFFCURVE",
"566 32 OFFCURVE",
"616 117 CURVE",
"594 107 LINE",
"606 0 LINE",
"671 0 LINE",
"671 347 LINE",
"420 347 LINE"
);
}
);
};
guideLines = (
{
angle = 90;
position = "{751, 356}";
},
{
angle = 90;
position = "{814, 356}";
}
);
layerId = "A3B50665-EA37-4AC6-885C-1233CA61B6BD";
paths = (
{
closed = 1;
nodes = (
"425 279 LINE",
"642 279 LINE",
"599 324 LINE",
"597 248 LINE SMOOTH",
"594 136 OFFCURVE",
"514 68 OFFCURVE",
"387 68 CURVE SMOOTH",
"240 68 OFFCURVE",
"148 166 OFFCURVE",
"148 342 CURVE SMOOTH",
"148 519 OFFCURVE",
"259 643 OFFCURVE",
"414 643 CURVE SMOOTH",
"503 643 OFFCURVE",
"567 608 OFFCURVE",
"606 537 CURVE",
"670 585 LINE",
"618 674 OFFCURVE",
"532 720 OFFCURVE",
"418 720 CURVE SMOOTH",
"211 720 OFFCURVE",
"64 566 OFFCURVE",
"64 342 CURVE SMOOTH",
"64 123 OFFCURVE",
"183 -8 OFFCURVE",
"381 -8 CURVE SMOOTH",
"494 -8 OFFCURVE",
"571 32 OFFCURVE",
"621 117 CURVE",
"599 107 LINE",
"611 0 LINE",
"676 0 LINE",
"676 347 LINE",
"425 347 LINE"
);
}
);
width = 781;
},
{
background = {
paths = (
{
closed = 1;
nodes = (
"578 264 LINE",
"578 173 OFFCURVE",
"489 132 OFFCURVE",
"407 132 CURVE SMOOTH",
"276 132 OFFCURVE",
"201 208 OFFCURVE",
"201 344 CURVE SMOOTH",
"201 484 OFFCURVE",
"292 579 OFFCURVE",
"421 579 CURVE SMOOTH",
"487 579 OFFCURVE",
"551 552 OFFCURVE",
"585 489 CURVE",
"702 576 LINE",
"640 673 OFFCURVE",
"551 720 OFFCURVE",
"422 720 CURVE SMOOTH",
"195 720 OFFCURVE",
"39 566 OFFCURVE",
"39 341 CURVE SMOOTH",
"39 122 OFFCURVE",
"173 -10 OFFCURVE",
"395 -10 CURVE SMOOTH",
"513 -10 OFFCURVE",
"620 43 OFFCURVE",
"678 139 CURVE"
);
},
{
closed = 1;
nodes = (
"464 426 LINE",
"464 290 LINE",
"578 290 LINE",
"578 0 LINE",
"734 0 LINE",
"734 426 LINE"
);
}
);
};
layerId = "014D4A40-7C7F-4023-B30E-1F55CE5EA091";
paths = (
{
closed = 1;
nodes = (
"421 256 LINE",
"610 256 LINE",
"568 335 LINE",
"565 264 LINE SMOOTH",
"561 173 OFFCURVE",
"476 131 OFFCURVE",
"400 131 CURVE SMOOTH",
"269 131 OFFCURVE",
"201 208 OFFCURVE",
"201 344 CURVE SMOOTH",
"201 487 OFFCURVE",
"292 579 OFFCURVE",
"431 579 CURVE SMOOTH",
"497 579 OFFCURVE",
"561 552 OFFCURVE",
"595 491 CURVE",
"712 578 LINE",
"650 673 OFFCURVE",
"561 720 OFFCURVE",
"432 720 CURVE SMOOTH",
"199 720 OFFCURVE",
"39 569 OFFCURVE",
"39 341 CURVE SMOOTH",
"39 122 OFFCURVE",
"164 -10 OFFCURVE",
"382 -10 CURVE SMOOTH",
"473 -10 OFFCURVE",
"558 24 OFFCURVE",
"599 95 CURVE",
"576 124 LINE",
"596 0 LINE",
"719 0 LINE",
"719 382 LINE",
"421 382 LINE"
);
}
);
width = 798;
}
);
leftMetricsKey = O;
unicode = 0047;
},
{
color = 3;
glyphname = H;
lastChange = "2019-03-14 10:23:03 +0000";
layers = (
{
background = {
paths = (
{
closed = 1;
nodes = (
"701 0 LINE",
"701 710 LINE",
"618 710 LINE",
"618 0 LINE"
);
},
{
closed = 1;
nodes = (
"172 0 LINE",
"172 710 LINE",
"89 710 LINE",
"89 0 LINE"
);
},
{
closed = 1;
nodes = (
"667 325 LINE",
"667 395 LINE",
"132 395 LINE",
"132 325 LINE"
);
}
);
};
layerId = "A3B50665-EA37-4AC6-885C-1233CA61B6BD";
paths = (
{
closed = 1;
nodes = (
"652 0 LINE",
"652 710 LINE",
"569 710 LINE",
"569 0 LINE"
);
},
{
closed = 1;
nodes = (
"177 0 LINE",
"177 710 LINE",
"94 710 LINE",
"94 0 LINE"
);
},
{
closed = 1;
nodes = (
"618 325 LINE",
"618 395 LINE",
"137 395 LINE",
"137 325 LINE"
);
}
);
width = 746;
},
{
background = {
paths = (
{
closed = 1;
nodes = (
"709 0 LINE",
"709 710 LINE",
"553 710 LINE",
"553 0 LINE"
);
},
{
closed = 1;
nodes = (
"232 0 LINE",
"232 710 LINE",
"76 710 LINE",
"76 0 LINE"
);
},
{
closed = 1;
nodes = (
"649 290 LINE",
"649 426 LINE",
"124 426 LINE",
"124 290 LINE"
);
}
);
};
layerId = "014D4A40-7C7F-4023-B30E-1F55CE5EA091";
paths = (
{
closed = 1;
nodes = (
"694 0 LINE",
"694 710 LINE",
"538 710 LINE",
"538 0 LINE"
);
},
{
closed = 1;
nodes = (
"232 0 LINE",
"232 710 LINE",
"76 710 LINE",
"76 0 LINE"
);
},
{
closed = 1;
nodes = (
"634 290 LINE",
"634 426 LINE",
"124 426 LINE",
"124 290 LINE"
);
}
);
width = 770;
}
);
rightMetricsKey = "=|";
unicode = 0048;
},
{
color = 3;
glyphname = I;
lastChange = "2019-03-14 10:23:03 +0000";
layers = (
{
background = {
paths = (
{
closed = 1;
nodes = (
"172 0 LINE",
"172 710 LINE",
"89 710 LINE",
"89 0 LINE"
);
}
);
};
layerId = "A3B50665-EA37-4AC6-885C-1233CA61B6BD";
paths = (
{
closed = 1;
nodes = (
"177 0 LINE",
"177 710 LINE",
"94 710 LINE",
"94 0 LINE"
);
}
);
width = 271;
},
{
background = {
paths = (
{
closed = 1;
nodes = (
"320 0 LINE",
"320 710 LINE",
"164 710 LINE",
"164 0 LINE"
);
}
);
};
layerId = "014D4A40-7C7F-4023-B30E-1F55CE5EA091";
paths = (
{
closed = 1;
nodes = (
"232 0 LINE",
"232 710 LINE",
"76 710 LINE",
"76 0 LINE"
);
}
);
width = 308;
}
);
leftMetricsKey = H;
rightMetricsKey = H;
unicode = 0049;
},
{
color = 3;
glyphname = J;
lastChange = "2019-03-12 13:07:15 +0000";
layers = (
{
background = {
paths = (
{
closed = 1;
nodes = (
"320 -8 OFFCURVE",
"383 68 OFFCURVE",
"383 199 CURVE SMOOTH",
"383 710 LINE",
"300 710 LINE",
"300 195 LINE SMOOTH",
"300 109 OFFCURVE",
"266 64 OFFCURVE",
"191 64 CURVE SMOOTH",
"125 64 OFFCURVE",
"84 94 OFFCURVE",
"61 159 CURVE",
"-7 130 LINE",
"17 45 OFFCURVE",
"92 -8 OFFCURVE",
"188 -8 CURVE SMOOTH"
);
}
);
};
layerId = "A3B50665-EA37-4AC6-885C-1233CA61B6BD";
paths = (
{
closed = 1;
nodes = (
"325 -8 OFFCURVE",
"388 68 OFFCURVE",
"388 199 CURVE SMOOTH",
"388 710 LINE",
"305 710 LINE",
"305 195 LINE SMOOTH",
"305 109 OFFCURVE",
"271 65 OFFCURVE",
"196 65 CURVE SMOOTH",
"128 65 OFFCURVE",
"87 94 OFFCURVE",
"66 159 CURVE",
"-2 129 LINE",
"20 45 OFFCURVE",
"95 -8 OFFCURVE",
"193 -8 CURVE SMOOTH"
);
}
);
width = 480;
},
{
background = {
paths = (
{
closed = 1;
nodes = (
"358 -10 OFFCURVE",
"440 81 OFFCURVE",
"440 238 CURVE SMOOTH",
"440 710 LINE",
"284 710 LINE",
"284 218 LINE SMOOTH",
"284 157 OFFCURVE",
"256 127 OFFCURVE",
"208 127 CURVE SMOOTH",
"162 127 OFFCURVE",
"134 152 OFFCURVE",
"115 202 CURVE",
"-12 145 LINE",
"19 44 OFFCURVE",
"101 -10 OFFCURVE",
"211 -10 CURVE SMOOTH"
);
}
);
};
layerId = "014D4A40-7C7F-4023-B30E-1F55CE5EA091";
paths = (
{
closed = 1;
nodes = (
"357 -10 OFFCURVE",
"440 81 OFFCURVE",
"440 238 CURVE SMOOTH",
"440 710 LINE",
"284 710 LINE",
"284 221 LINE SMOOTH",
"284 157 OFFCURVE",
"255 127 OFFCURVE",
"206 127 CURVE SMOOTH",
"158 127 OFFCURVE",
"130 152 OFFCURVE",
"110 202 CURVE",
"-17 145 LINE",
"14 44 OFFCURVE",
"97 -10 OFFCURVE",
"208 -10 CURVE SMOOTH"
);
}
);
width = 514;
}
);
unicode = 004A;
},
{
color = 3;
glyphname = K;
lastChange = "2019-03-12 13:07:15 +0000";
layers = (
{
background = {
paths = (
{
closed = 1;
nodes = (
"1899 710 LINE",
"1794 710 LINE",
"1447 360 LINE",
"1445 256 LINE"
);
},
{
closed = 1;
nodes = (
"1472 0 LINE",
"1472 710 LINE",
"1389 710 LINE",
"1389 0 LINE"
);
},
{
closed = 1;
nodes = (
"1877 -6 OFFCURVE",
"1907 2 OFFCURVE",
"1929 18 CURVE",
"1911 82 LINE",
"1894 72 OFFCURVE",
"1875 66 OFFCURVE",
"1854 66 CURVE SMOOTH",
"1813 66 OFFCURVE",
"1787 81 OFFCURVE",
"1744 141 CURVE SMOOTH",
"1562 398 LINE",
"1504 340 LINE",
"1686 83 LINE SMOOTH",
"1732 18 OFFCURVE",
"1781 -6 OFFCURVE",
"1840 -6 CURVE SMOOTH"
);
},
{
closed = 1;
nodes = (
"872 0 LINE",
"872 710 LINE",
"789 710 LINE",
"789 0 LINE"
);
},
{
closed = 1;
nodes = (
"1276 77 LINE",
"1261 68 OFFCURVE",
"1243 63 OFFCURVE",
"1225 63 CURVE SMOOTH",
"1180 63 OFFCURVE",
"1150 86 OFFCURVE",
"1117 133 CURVE SMOOTH",
"994 307 LINE SMOOTH",
"959 356 OFFCURVE",
"929 377 OFFCURVE",
"904 377 CURVE",
"925 338 LINE",
"1304 710 LINE",
"1200 710 LINE",
"861 375 LINE",
"827 339 LINE",
"869 339 OFFCURVE",
"902 306 OFFCURVE",
"928 269 CURVE SMOOTH",
"1065 73 LINE SMOOTH",
"1104 17 OFFCURVE",
"1152 -8 OFFCURVE",
"1211 -8 CURVE SMOOTH",
"1243 -8 OFFCURVE",
"1270 -1 OFFCURVE",
"1296 13 CURVE"
);
},
{
closed = 1;
nodes = (
"609 72 OFFCURVE",
"590 66 OFFCURVE",
"569 66 CURVE SMOOTH",
"528 66 OFFCURVE",
"499 81 OFFCURVE",
"457 141 CURVE SMOOTH",
"375 258 LINE SMOOTH",
"337 312 OFFCURVE",
"308 331 OFFCURVE",
"263 331 CURVE",
"287 322 LINE",
"346 322 LINE SMOOTH",
"475 322 OFFCURVE",
"590 386 OFFCURVE",
"590 513 CURVE SMOOTH",
"590 636 OFFCURVE",
"495 711 OFFCURVE",
"336 711 CURVE SMOOTH",
"89 711 LINE",
"89 0 LINE",
"172 0 LINE",
"172 640 LINE",
"325 640 LINE SMOOTH",
"447 640 OFFCURVE",
"510 594 OFFCURVE",
"510 510 CURVE SMOOTH",
"510 424 OFFCURVE",
"444 387 OFFCURVE",
"315 387 CURVE SMOOTH",
"156 387 LINE",
"156 319 LINE",
"198 319 LINE SMOOTH",
"225 319 OFFCURVE",
"247 301 OFFCURVE",
"261 282 CURVE SMOOTH",
"401 83 LINE SMOOTH",
"447 18 OFFCURVE",
"496 -6 OFFCURVE",
"555 -6 CURVE SMOOTH",
"592 -6 OFFCURVE",
"622 2 OFFCURVE",
"644 18 CURVE",
"626 82 LINE"
);
}
);
};
guideLines = (
{
angle = 225.5093;
position = "{267, 483}";
}
);
layerId = "A3B50665-EA37-4AC6-885C-1233CA61B6BD";
paths = (
{
closed = 1;
nodes = (
"177 0 LINE",
"177 710 LINE",
"94 710 LINE",
"94 0 LINE"
);
},
{
closed = 1;
nodes = (
"588 76 LINE",
"572 68 OFFCURVE",
"554 63 OFFCURVE",
"536 63 CURVE SMOOTH",
"494 63 OFFCURVE",
"466 82 OFFCURVE",
"430 133 CURVE SMOOTH",
"318 293 LINE SMOOTH",
"282 344 OFFCURVE",
"243 372 OFFCURVE",
"208 372 CURVE",
"236 338 LINE",
"605 710 LINE",
"501 710 LINE",
"157 360 LINE",
"138 336 LINE",
"176 336 OFFCURVE",
"209 312 OFFCURVE",
"249 255 CURVE SMOOTH",
"376 73 LINE SMOOTH",
"414 19 OFFCURVE",
"461 -8 OFFCURVE",
"522 -8 CURVE SMOOTH",
"552 -8 OFFCURVE",
"579 -2 OFFCURVE",
"606 13 CURVE"
);
}
);
width = 610;
},
{
background = {
paths = (
{
closed = 1;
nodes = (
"1464 132 OFFCURVE",
"1440 127 OFFCURVE",
"1417 127 CURVE SMOOTH",
"1375 127 OFFCURVE",
"1341 146 OFFCURVE",
"1307 195 CURVE SMOOTH",
"1271 247 LINE SMOOTH",
"1241 290 OFFCURVE",
"1204 305 OFFCURVE",
"1132 305 CURVE",
"1147 294 LINE",
"1192 294 LINE SMOOTH",
"1340 294 OFFCURVE",
"1442 375 OFFCURVE",
"1442 496 CURVE SMOOTH",
"1442 629 OFFCURVE",
"1344 710 OFFCURVE",
"1171 710 CURVE SMOOTH",
"876 710 LINE",
"876 0 LINE",
"1032 0 LINE",
"1032 587 LINE",
"1143 587 LINE SMOOTH",
"1241 587 OFFCURVE",
"1286 557 OFFCURVE",
"1286 494 CURVE SMOOTH",
"1286 436 OFFCURVE",
"1245 407 OFFCURVE",
"1139 407 CURVE SMOOTH",
"996 407 LINE",
"996 289 LINE",
"1033 289 LINE SMOOTH",
"1053 289 OFFCURVE",
"1067 280 OFFCURVE",
"1078 263 CURVE SMOOTH",
"1186 97 LINE SMOOTH",
"1231 28 OFFCURVE",
"1294 -10 OFFCURVE",
"1384 -10 CURVE SMOOTH",
"1434 -10 OFFCURVE",
"1489 4 OFFCURVE",
"1519 27 CURVE",
"1487 147 LINE"
);
},
{
closed = 1;
nodes = (
"232 0 LINE",
"232 710 LINE",
"76 710 LINE",
"76 0 LINE"
);
},
{
closed = 1;
nodes = (
"693 147 LINE",
"672 132 OFFCURVE",
"650 127 OFFCURVE",
"627 127 CURVE SMOOTH",
"585 127 OFFCURVE",
"551 146 OFFCURVE",
"528 183 CURVE SMOOTH",
"459 296 LINE SMOOTH",
"425 351 OFFCURVE",
"377 378 OFFCURVE",
"322 378 CURVE",
"361 342 LINE",
"702 710 LINE",
"510 710 LINE",
"190 364 LINE",
"190 313 LINE",
"227 313 OFFCURVE",
"275 297 OFFCURVE",
"309 242 CURVE SMOOTH",
"397 99 LINE SMOOTH",
"441 28 OFFCURVE",
"504 -10 OFFCURVE",
"594 -10 CURVE SMOOTH",
"644 -10 OFFCURVE",
"696 3 OFFCURVE",
"725 27 CURVE"
);
}
);
};
guideLines = (
{
angle = 46.6112;
position = "{222, 445}";
}
);
layerId = "014D4A40-7C7F-4023-B30E-1F55CE5EA091";
paths = (
{
closed = 1;
nodes = (
"232 0 LINE",
"232 710 LINE",
"76 710 LINE",
"76 0 LINE"
);
},
{
closed = 1;
nodes = (
"690 143 LINE",
"671 133 OFFCURVE",
"651 127 OFFCURVE",
"624 127 CURVE SMOOTH",
"582 127 OFFCURVE",
"548 147 OFFCURVE",
"525 183 CURVE SMOOTH",
"463 283 LINE SMOOTH",
"430 336 OFFCURVE",
"382 365 OFFCURVE",
"330 365 CURVE",
"369 329 LINE",
"715 710 LINE",
"523 710 LINE",
"198 351 LINE",
"198 300 LINE",
"246 300 OFFCURVE",
"283 283 OFFCURVE",
"317 229 CURVE SMOOTH",
"398 99 LINE SMOOTH",
"445 23 OFFCURVE",
"505 -10 OFFCURVE",
"591 -10 CURVE SMOOTH",
"645 -10 OFFCURVE",
"695 4 OFFCURVE",
"721 23 CURVE"
);
}
);
width = 714;
}
);
leftMetricsKey = H;
unicode = 004B;
},
{
color = 3;
glyphname = L;
lastChange = "2019-03-14 10:23:03 +0000";
layers = (
{
background = {
paths = (
{
closed = 1;
nodes = (
"504 0 LINE",
"514 72 LINE",
"172 72 LINE",
"172 712 LINE",
"89 712 LINE",
"89 0 LINE"
);
}
);
};
layerId = "A3B50665-EA37-4AC6-885C-1233CA61B6BD";
paths = (
{
closed = 1;
nodes = (
"500 0 LINE",
"510 71 LINE",
"177 71 LINE",
"177 710 LINE",
"94 710 LINE",
"94 0 LINE"
);
}
);
width = 521;
},
{
background = {
paths = (
{
closed = 1;
nodes = (
"537 0 LINE",
"547 136 LINE",
"232 136 LINE",
"232 710 LINE",
"76 710 LINE",
"76 0 LINE"
);
}
);
};
layerId = "014D4A40-7C7F-4023-B30E-1F55CE5EA091";
paths = (
{
closed = 1;
nodes = (
"531 0 LINE",
"541 138 LINE",
"232 138 LINE",
"232 710 LINE",
"76 710 LINE",
"76 0 LINE"
);
}
);
width = 566;
}
);
leftMetricsKey = H;
unicode = 004C;
},
{
color = 3;
glyphname = M;
lastChange = "2019-03-12 13:07:15 +0000";
layers = (
{
background = {
paths = (
{
closed = 1;
nodes = (
"157 0 LINE",
"187 652 LINE",
"140 648 LINE",
"439 0 LINE",
"517 0 LINE",
"823 647 LINE",
"773 652 LINE",
"803 0 LINE",
"882 0 LINE",
"852 712 LINE",
"773 712 LINE",
"452 30 LINE",
"510 30 LINE",
"195 712 LINE",
"112 712 LINE",
"82 0 LINE"
);
}
);
};
layerId = "A3B50665-EA37-4AC6-885C-1233CA61B6BD";
paths = (
{
closed = 1;
nodes = (
"162 0 LINE",
"192 650 LINE",
"145 646 LINE",
"429 0 LINE",
"507 0 LINE",
"798 645 LINE",
"748 650 LINE",
"773 0 LINE",
"852 0 LINE",
"827 710 LINE",
"747 710 LINE",
"441 30 LINE",
"499 30 LINE",
"199 710 LINE",
"117 710 LINE",
"87 0 LINE"
);
}
);
width = 935;
},
{
background = {
paths = (
{
closed = 1;
nodes = (
"217 0 LINE",
"235 468 LINE",
"196 459 LINE",
"426 0 LINE",
"528 0 LINE",
"756 459 LINE",
"719 468 LINE",
"732 0 LINE",
"882 0 LINE",
"862 710 LINE",
"730 710 LINE",
"432 102 LINE",
"534 102 LINE",
"231 710 LINE",
"97 710 LINE",
"72 0 LINE"
);
}
);
};
guideLines = (
{
angle = -88.391;
position = "{740, 356}";
},
{
angle = 88.391;
position = "{239, 356}";
}
);
layerId = "014D4A40-7C7F-4023-B30E-1F55CE5EA091";
paths = (
{
closed = 1;
nodes = (
"217 0 LINE",
"239 586 LINE",
"155 540 LINE",
"426 0 LINE",
"528 0 LINE",
"803 553 LINE",
"716 573 LINE",
"732 0 LINE",
"882 0 LINE",
"862 710 LINE",
"730 710 LINE",
"432 102 LINE",
"534 102 LINE",
"231 710 LINE",
"97 710 LINE",
"72 0 LINE"
);
}
);
width = 955;
}
);
unicode = 004D;
},
{
color = 3;
glyphname = N;
lastChange = "2019-03-12 13:07:15 +0000";
layers = (
{
anchors = (
{
name = bottom;
position = "{371, 0}";
},
{
name = top;
position = "{371, 712}";
}
);
background = {
paths = (
{
closed = 1;
nodes = (
"567 84 LINE",
"602 89 LINE",
"156 710 LINE",
"89 710 LINE",
"89 0 LINE",
"166 0 LINE",
"166 627 LINE",
"131 621 LINE",
"577 0 LINE",
"644 0 LINE",
"644 710 LINE",
"567 710 LINE"
);
}
);
};
layerId = "A3B50665-EA37-4AC6-885C-1233CA61B6BD";
paths = (
{
closed = 1;
nodes = (
"572 84 LINE",
"607 92 LINE",
"161 710 LINE",
"94 710 LINE",
"94 0 LINE",
"171 0 LINE",
"171 627 LINE",
"136 618 LINE",
"582 0 LINE",
"649 0 LINE",
"649 710 LINE",
"572 710 LINE"
);
}
);
width = 743;
},
{
anchors = (
{
name = bottom;
position = "{385, 0}";
},
{
name = top;
position = "{384, 712}";
}
);
background = {
paths = (
{
closed = 1;
nodes = (
"536 141 LINE",
"590 184 LINE",
"212 710 LINE",
"76 710 LINE",
"76 0 LINE",
"224 0 LINE",
"224 569 LINE",
"170 526 LINE",
"548 0 LINE",
"684 0 LINE",
"684 710 LINE",
"536 710 LINE"
);
}
);
};
layerId = "014D4A40-7C7F-4023-B30E-1F55CE5EA091";
paths = (
{
closed = 1;
nodes = (
"536 141 LINE",
"590 175 LINE",
"212 710 LINE",
"76 710 LINE",
"76 0 LINE",
"224 0 LINE",
"224 569 LINE",
"170 535 LINE",
"548 0 LINE",
"684 0 LINE",
"684 710 LINE",
"536 710 LINE"
);
}
);
width = 760;
}
);
leftKerningGroup = H;
leftMetricsKey = H;
rightKerningGroup = H;
rightMetricsKey = H;
unicode = 004E;
},
{
color = 3;
glyphname = O;
lastChange = "2019-03-12 13:07:15 +0000";
layers = (
{
background = {
paths = (
{
closed = 1;
nodes = (
"1728 -8 OFFCURVE",
"1881 153 OFFCURVE",
"1881 361 CURVE SMOOTH",
"1881 569 OFFCURVE",
"1733 720 OFFCURVE",
"1527 720 CURVE SMOOTH",
"1315 720 OFFCURVE",
"1159 552 OFFCURVE",
"1159 345 CURVE SMOOTH",
"1159 141 OFFCURVE",
"1308 -8 OFFCURVE",
"1515 -8 CURVE SMOOTH"
);
},
{
closed = 1;
nodes = (
"1354 68 OFFCURVE",
"1242 188 OFFCURVE",
"1242 346 CURVE SMOOTH",
"1242 516 OFFCURVE",
"1361 644 OFFCURVE",
"1525 644 CURVE SMOOTH",
"1685 644 OFFCURVE",
"1798 518 OFFCURVE",
"1798 358 CURVE SMOOTH",
"1798 184 OFFCURVE",
"1680 68 OFFCURVE",
"1515 68 CURVE SMOOTH"
);
},
{
closed = 1;
nodes = (
"197 720 OFFCURVE",
"59 564 OFFCURVE",
"59 342 CURVE SMOOTH",
"59 130 OFFCURVE",
"185 -8 OFFCURVE",
"378 -8 CURVE SMOOTH",
"573 -8 OFFCURVE",
"713 149 OFFCURVE",
"713 369 CURVE SMOOTH",
"713 580 OFFCURVE",
"587 720 OFFCURVE",
"400 720 CURVE SMOOTH"
);
},
{
closed = 1;
nodes = (
"233 68 OFFCURVE",
"142 174 OFFCURVE",
"142 342 CURVE SMOOTH",
"142 524 OFFCURVE",
"247 645 OFFCURVE",
"401 645 CURVE SMOOTH",
"541 645 OFFCURVE",
"630 538 OFFCURVE",
"630 371 CURVE SMOOTH",
"630 191 OFFCURVE",
"528 68 OFFCURVE",
"377 68 CURVE SMOOTH"
);
},
{
closed = 1;
nodes = (
"665 0 LINE",
"665 710 LINE",
"582 710 LINE",
"582 0 LINE"
);
},
{
closed = 1;
nodes = (
"190 0 LINE",
"190 710 LINE",
"107 710 LINE",
"107 0 LINE"
);
},
{
closed = 1;
nodes = (
"631 325 LINE",
"631 395 LINE",
"150 395 LINE",
"150 325 LINE"
);
}
);
};
guideLines = (
{
angle = 90;
position = "{746, 356}";
},
{
angle = 90;
position = "{809, 356}";
}
);
layerId = "A3B50665-EA37-4AC6-885C-1233CA61B6BD";
paths = (
{
closed = 1;
nodes = (
"578 -8 OFFCURVE",
"717 139 OFFCURVE",
"717 369 CURVE SMOOTH",
"717 580 OFFCURVE",
"592 720 OFFCURVE",
"405 720 CURVE SMOOTH",
"204 720 OFFCURVE",
"64 564 OFFCURVE",
"64 342 CURVE SMOOTH",
"64 120 OFFCURVE",
"187 -8 OFFCURVE",
"387 -8 CURVE SMOOTH"
);
},
{
closed = 1;
nodes = (
"238 68 OFFCURVE",
"147 166 OFFCURVE",
"147 342 CURVE SMOOTH",
"147 524 OFFCURVE",
"255 645 OFFCURVE",
"406 645 CURVE SMOOTH",
"546 645 OFFCURVE",
"635 538 OFFCURVE",
"635 371 CURVE SMOOTH",
"635 179 OFFCURVE",
"533 68 OFFCURVE",
"387 68 CURVE SMOOTH"
);
}
);
width = 781;
},
{
background = {
paths = (
{
closed = 1;
nodes = (
"1541 -10 OFFCURVE",
"1681 174 OFFCURVE",
"1681 362 CURVE SMOOTH",
"1681 578 OFFCURVE",
"1526 720 OFFCURVE",
"1316 720 CURVE SMOOTH",
"1080 720 OFFCURVE",
"939 534 OFFCURVE",
"939 346 CURVE SMOOTH",
"939 131 OFFCURVE",
"1093 -10 OFFCURVE",
"1304 -10 CURVE SMOOTH"
);
},
{
closed = 1;
nodes = (
"1183 127 OFFCURVE",
"1098 210 OFFCURVE",
"1098 349 CURVE SMOOTH",
"1098 483 OFFCURVE",
"1183 585 OFFCURVE",
"1314 585 CURVE SMOOTH",
"1435 585 OFFCURVE",
"1522 499 OFFCURVE",
"1522 359 CURVE SMOOTH",
"1522 221 OFFCURVE",
"1442 127 OFFCURVE",
"1306 127 CURVE SMOOTH"
);
},
{
closed = 1;
nodes = (
"595 -8 OFFCURVE",
"745 139 OFFCURVE",
"745 369 CURVE SMOOTH",
"745 580 OFFCURVE",
"610 720 OFFCURVE",
"408 720 CURVE SMOOTH",
"190 720 OFFCURVE",
"39 564 OFFCURVE",
"39 342 CURVE SMOOTH",
"39 120 OFFCURVE",
"172 -8 OFFCURVE",
"388 -8 CURVE SMOOTH"
);
},
{
closed = 1;
nodes = (
"270 127 OFFCURVE",
"198 205 OFFCURVE",
"198 345 CURVE SMOOTH",
"198 489 OFFCURVE",
"284 585 OFFCURVE",
"404 585 CURVE SMOOTH",
"515 585 OFFCURVE",
"586 500 OFFCURVE",
"586 368 CURVE SMOOTH",
"586 215 OFFCURVE",
"505 127 OFFCURVE",
"389 127 CURVE SMOOTH"
);
},
{
closed = 1;
nodes = (
"545 426 LINE",
"239 426 LINE",
"239 710 LINE",
"83 710 LINE",
"83 0 LINE",
"239 0 LINE",
"239 290 LINE",
"545 290 LINE",
"545 0 LINE",
"701 0 LINE",
"701 710 LINE",
"545 710 LINE"
);
}
);
};
layerId = "014D4A40-7C7F-4023-B30E-1F55CE5EA091";
paths = (
{
closed = 1;
nodes = (
"598 -8 OFFCURVE",
"744 139 OFFCURVE",
"744 369 CURVE SMOOTH",
"744 580 OFFCURVE",
"610 720 OFFCURVE",
"408 720 CURVE SMOOTH",
"180 720 OFFCURVE",
"39 564 OFFCURVE",
"39 342 CURVE SMOOTH",
"39 120 OFFCURVE",
"172 -12 OFFCURVE",
"395 -10 CURVE SMOOTH"
);
},
{
closed = 1;
nodes = (
"270 129 OFFCURVE",
"198 207 OFFCURVE",
"198 345 CURVE SMOOTH",
"198 486 OFFCURVE",
"284 582 OFFCURVE",
"404 582 CURVE SMOOTH",
"515 582 OFFCURVE",
"586 497 OFFCURVE",
"586 368 CURVE SMOOTH",
"586 217 OFFCURVE",
"505 129 OFFCURVE",
"389 129 CURVE SMOOTH"
);
}
);
width = 783;
}
);
rightMetricsKey = "=|";
unicode = 004F;
},
{
color = 3;
glyphname = P;
lastChange = "2019-03-12 13:07:15 +0000";
layers = (
{
anchors = (
{
name = bottom;
position = "{347, 0}";
},
{
name = top;
position = "{346, 710}";
}
);
background = {
paths = (
{
closed = 1;
nodes = (
"872 640 LINE",
"1025 640 LINE SMOOTH",
"1145 640 OFFCURVE",
"1210 593 OFFCURVE",
"1210 495 CURVE SMOOTH",
"1210 400 OFFCURVE",
"1139 353 OFFCURVE",
"995 353 CURVE SMOOTH",
"940 353 OFFCURVE",
"898 357 OFFCURVE",
"856 365 CURVE",
"856 292 LINE",
"903 285 OFFCURVE",
"947 281 OFFCURVE",
"996 281 CURVE SMOOTH",
"1180 281 OFFCURVE",
"1290 360 OFFCURVE",
"1290 498 CURVE SMOOTH",
"1290 633 OFFCURVE",
"1192 711 OFFCURVE",
"1036 711 CURVE SMOOTH",
"789 711 LINE",
"789 0 LINE",
"872 0 LINE"
);
},
{
closed = 1;
nodes = (
"172 640 LINE",
"325 640 LINE SMOOTH",
"447 640 OFFCURVE",
"510 591 OFFCURVE",
"510 500 CURVE SMOOTH",
"510 407 OFFCURVE",
"454 363 OFFCURVE",
"345 363 CURVE SMOOTH",
"156 363 LINE",
"156 292 LINE",
"346 292 LINE SMOOTH",
"495 292 OFFCURVE",
"590 369 OFFCURVE",
"590 502 CURVE SMOOTH",
"590 631 OFFCURVE",
"495 711 OFFCURVE",
"336 711 CURVE SMOOTH",
"89 711 LINE",
"89 0 LINE",
"172 0 LINE"
);
}
);
};
layerId = "A3B50665-EA37-4AC6-885C-1233CA61B6BD";
paths = (
{
closed = 1;
nodes = (
"175 641 LINE",
"318 641 LINE SMOOTH",
"449 641 OFFCURVE",
"508 598 OFFCURVE",
"508 502 CURVE SMOOTH",
"508 405 OFFCURVE",
"451 356 OFFCURVE",
"324 356 CURVE SMOOTH",
"159 356 LINE",
"159 285 LINE",
"318 285 LINE SMOOTH",
"496 285 OFFCURVE",
"588 367 OFFCURVE",
"588 502 CURVE SMOOTH",
"588 638 OFFCURVE",
"492 711 OFFCURVE",
"326 711 CURVE SMOOTH",
"94 711 LINE",
"94 0 LINE",
"175 0 LINE"
);
}
);
width = 629;
},
{
anchors = (
{
name = bottom;
position = "{358, 0}";
},
{
name = top;
position = "{358, 710}";
}
);
background = {
paths = (
{
closed = 1;
nodes = (
"232 587 LINE",
"343 587 LINE SMOOTH",
"441 587 OFFCURVE",
"486 559 OFFCURVE",
"486 498 CURVE SMOOTH",
"486 438 OFFCURVE",
"446 407 OFFCURVE",
"370 407 CURVE SMOOTH",
"196 407 LINE",
"196 285 LINE",
"392 285 LINE SMOOTH",
"546 285 OFFCURVE",
"642 368 OFFCURVE",
"642 501 CURVE SMOOTH",
"642 634 OFFCURVE",
"544 710 OFFCURVE",
"371 710 CURVE SMOOTH",
"76 710 LINE",
"76 0 LINE",
"232 0 LINE"
);
},
{
closed = 1;
nodes = (
"624 -10 OFFCURVE",
"679 4 OFFCURVE",
"709 27 CURVE",
"677 147 LINE",
"654 132 OFFCURVE",
"630 127 OFFCURVE",
"607 127 CURVE SMOOTH",
"565 127 OFFCURVE",
"527 153 OFFCURVE",
"495 202 CURVE SMOOTH",
"382 375 LINE",
"236 312 LINE",
"376 97 LINE SMOOTH",
"421 28 OFFCURVE",
"484 -10 OFFCURVE",
"574 -10 CURVE SMOOTH"
);
}
);
};
layerId = "014D4A40-7C7F-4023-B30E-1F55CE5EA091";
paths = (
{
closed = 1;
nodes = (
"228 587 LINE",
"333 587 LINE SMOOTH",
"431 587 OFFCURVE",
"476 558 OFFCURVE",
"476 483 CURVE SMOOTH",
"476 410 OFFCURVE",
"426 377 OFFCURVE",
"340 377 CURVE SMOOTH",
"196 377 LINE",
"196 252 LINE",
"342 252 LINE SMOOTH",
"516 252 OFFCURVE",
"632 340 OFFCURVE",
"632 486 CURVE SMOOTH",
"632 632 OFFCURVE",
"531 710 OFFCURVE",
"346 710 CURVE SMOOTH",
"76 710 LINE",
"76 0 LINE",
"228 0 LINE"
);
}
);
width = 647;
}
);
leftMetricsKey = H;
unicode = 0050;
},
{
color = 3;
glyphname = Q;
lastChange = "2019-03-12 13:07:15 +0000";
layers = (
{
background = {
paths = (
{
closed = 1;
nodes = (
"573 -8 OFFCURVE",
"712 139 OFFCURVE",
"712 369 CURVE SMOOTH",
"712 580 OFFCURVE",
"587 720 OFFCURVE",
"400 720 CURVE SMOOTH",
"199 720 OFFCURVE",
"59 564 OFFCURVE",
"59 342 CURVE SMOOTH",
"59 120 OFFCURVE",
"182 -8 OFFCURVE",
"382 -8 CURVE SMOOTH"
);
},
{
closed = 1;
nodes = (
"233 68 OFFCURVE",
"142 166 OFFCURVE",
"142 342 CURVE SMOOTH",
"142 524 OFFCURVE",
"250 645 OFFCURVE",
"401 645 CURVE SMOOTH",
"541 645 OFFCURVE",
"630 538 OFFCURVE",
"630 371 CURVE SMOOTH",
"630 179 OFFCURVE",
"528 68 OFFCURVE",
"382 68 CURVE SMOOTH"
);
},
{
closed = 1;
nodes = (
"331 -10 LINE SMOOTH",
"331 -141 OFFCURVE",
"398 -208 OFFCURVE",
"519 -208 CURVE SMOOTH",
"607 -208 OFFCURVE",
"663 -160 OFFCURVE",
"673 -76 CURVE",
"608 -68 LINE",
"604 -112 OFFCURVE",
"568 -141 OFFCURVE",
"517 -141 CURVE SMOOTH",
"444 -141 OFFCURVE",
"409 -104 OFFCURVE",
"409 -2 CURVE SMOOTH",
"409 47 LINE",
"331 47 LINE"
);
}
);
};
guideLines = (
{
angle = 90;
position = "{746, 356}";
},
{
angle = 90;
position = "{809, 356}";
}
);
layerId = "A3B50665-EA37-4AC6-885C-1233CA61B6BD";
paths = (
{
closed = 1;
nodes = (
"578 -8 OFFCURVE",
"717 139 OFFCURVE",
"717 369 CURVE SMOOTH",
"717 580 OFFCURVE",
"592 720 OFFCURVE",
"405 720 CURVE SMOOTH",
"204 720 OFFCURVE",
"64 564 OFFCURVE",
"64 342 CURVE SMOOTH",
"64 120 OFFCURVE",
"187 -8 OFFCURVE",
"387 -8 CURVE SMOOTH"
);
},
{
closed = 1;
nodes = (
"238 68 OFFCURVE",
"147 166 OFFCURVE",
"147 342 CURVE SMOOTH",
"147 524 OFFCURVE",
"255 645 OFFCURVE",
"406 645 CURVE SMOOTH",
"546 645 OFFCURVE",
"635 538 OFFCURVE",
"635 371 CURVE SMOOTH",
"635 179 OFFCURVE",
"533 68 OFFCURVE",
"387 68 CURVE SMOOTH"
);
},
{
closed = 1;
nodes = (
"336 0 LINE SMOOTH",
"336 -141 OFFCURVE",
"403 -208 OFFCURVE",
"524 -208 CURVE SMOOTH",
"612 -208 OFFCURVE",
"668 -160 OFFCURVE",
"678 -76 CURVE",
"613 -68 LINE",
"609 -112 OFFCURVE",
"573 -141 OFFCURVE",
"522 -141 CURVE SMOOTH",
"449 -141 OFFCURVE",
"414 -104 OFFCURVE",
"414 -2 CURVE SMOOTH",
"414 47 LINE",
"336 47 LINE"
);
}
);
width = 781;
},
{
background = {
paths = (
{
closed = 1;
nodes = (
"598 -8 OFFCURVE",
"744 139 OFFCURVE",
"744 369 CURVE SMOOTH",
"744 580 OFFCURVE",
"610 720 OFFCURVE",
"408 720 CURVE SMOOTH",
"180 720 OFFCURVE",
"39 564 OFFCURVE",
"39 342 CURVE SMOOTH",
"39 120 OFFCURVE",
"172 -12 OFFCURVE",
"395 -10 CURVE SMOOTH"
);
},
{
closed = 1;
nodes = (
"270 129 OFFCURVE",
"198 207 OFFCURVE",
"198 345 CURVE SMOOTH",
"198 486 OFFCURVE",
"284 582 OFFCURVE",
"404 582 CURVE SMOOTH",
"515 582 OFFCURVE",
"586 497 OFFCURVE",
"586 368 CURVE SMOOTH",
"586 217 OFFCURVE",
"505 129 OFFCURVE",
"389 129 CURVE SMOOTH"
);
},
{
closed = 1;
nodes = (
"310 -15 LINE SMOOTH",
"310 -128 OFFCURVE",
"394 -210 OFFCURVE",
"527 -210 CURVE SMOOTH",
"635 -210 OFFCURVE",
"705 -161 OFFCURVE",
"717 -57 CURVE",
"591 -42 LINE",
"587 -71 OFFCURVE",
"564 -87 OFFCURVE",
"532 -87 CURVE SMOOTH",
"486 -87 OFFCURVE",
"465 -61 OFFCURVE",
"465 -4 CURVE SMOOTH",
"465 80 LINE",
"310 80 LINE"
);
}
);
};
layerId = "014D4A40-7C7F-4023-B30E-1F55CE5EA091";
paths = (
{
closed = 1;
nodes = (
"598 -8 OFFCURVE",
"744 139 OFFCURVE",
"744 369 CURVE SMOOTH",
"744 580 OFFCURVE",
"610 720 OFFCURVE",
"408 720 CURVE SMOOTH",
"180 720 OFFCURVE",
"39 564 OFFCURVE",
"39 342 CURVE SMOOTH",
"39 120 OFFCURVE",
"172 -12 OFFCURVE",
"395 -10 CURVE SMOOTH"
);
},
{
closed = 1;
nodes = (
"270 129 OFFCURVE",
"198 207 OFFCURVE",
"198 345 CURVE SMOOTH",
"198 486 OFFCURVE",
"284 582 OFFCURVE",
"404 582 CURVE SMOOTH",
"515 582 OFFCURVE",
"586 497 OFFCURVE",
"586 368 CURVE SMOOTH",
"586 217 OFFCURVE",
"505 129 OFFCURVE",
"389 129 CURVE SMOOTH"
);
},
{
closed = 1;
nodes = (
"310 5 LINE SMOOTH",
"310 -128 OFFCURVE",
"394 -210 OFFCURVE",
"527 -210 CURVE SMOOTH",
"631 -210 OFFCURVE",
"705 -161 OFFCURVE",
"717 -57 CURVE",
"591 -42 LINE",
"587 -71 OFFCURVE",
"564 -87 OFFCURVE",
"532 -87 CURVE SMOOTH",
"486 -87 OFFCURVE",
"465 -61 OFFCURVE",
"465 -4 CURVE SMOOTH",
"465 80 LINE",
"310 80 LINE"
);
}
);
width = 783;
}
);
leftMetricsKey = O;
widthMetricsKey = O;
unicode = 0051;
},
{
color = 3;
glyphname = R;
lastChange = "2019-03-12 13:07:15 +0000";
layers = (
{
anchors = (
{
name = bottom;
position = "{347, 0}";
},
{
name = top;
position = "{346, 712}";
}
);
background = {
paths = (
{
closed = 1;
nodes = (
"590 72 OFFCURVE",
"572 66 OFFCURVE",
"552 66 CURVE SMOOTH",
"507 66 OFFCURVE",
"488 79 OFFCURVE",
"451 134 CURVE SMOOTH",
"367 258 LINE SMOOTH",
"331 312 OFFCURVE",
"302 331 OFFCURVE",
"263 331 CURVE",
"257 321 LINE",
"296 321 LINE SMOOTH",
"433 321 OFFCURVE",
"539 386 OFFCURVE",
"539 513 CURVE SMOOTH",
"539 636 OFFCURVE",
"443 710 OFFCURVE",
"271 710 CURVE SMOOTH",
"89 710 LINE",
"89 0 LINE",
"172 0 LINE",
"172 641 LINE",
"265 641 LINE SMOOTH",
"395 641 OFFCURVE",
"458 594 OFFCURVE",
"458 510 CURVE SMOOTH",
"458 424 OFFCURVE",
"392 386 OFFCURVE",
"255 386 CURVE SMOOTH",
"156 386 LINE",
"156 319 LINE",
"192 319 LINE SMOOTH",
"218 319 OFFCURVE",
"243 301 OFFCURVE",
"261 275 CURVE SMOOTH",
"391 83 LINE SMOOTH",
"435 18 OFFCURVE",
"482 -6 OFFCURVE",
"539 -6 CURVE SMOOTH",
"574 -6 OFFCURVE",
"603 2 OFFCURVE",
"624 18 CURVE",
"606 82 LINE"
);
}
);
};
guideLines = (
{
angle = 124.1013;
position = "{435, 179}";
}
);
layerId = "A3B50665-EA37-4AC6-885C-1233CA61B6BD";
paths = (
{
closed = 1;
nodes = (
"595 72 OFFCURVE",
"577 66 OFFCURVE",
"557 66 CURVE SMOOTH",
"512 66 OFFCURVE",
"493 79 OFFCURVE",
"456 134 CURVE SMOOTH",
"372 258 LINE SMOOTH",
"336 312 OFFCURVE",
"307 331 OFFCURVE",
"268 331 CURVE",
"262 321 LINE",
"301 321 LINE SMOOTH",
"438 321 OFFCURVE",
"544 386 OFFCURVE",
"544 513 CURVE SMOOTH",
"544 636 OFFCURVE",
"448 710 OFFCURVE",
"296 710 CURVE SMOOTH",
"94 710 LINE",
"94 0 LINE",
"175 0 LINE",
"175 641 LINE",
"290 641 LINE SMOOTH",
"400 641 OFFCURVE",
"463 594 OFFCURVE",
"463 510 CURVE SMOOTH",
"463 424 OFFCURVE",
"397 386 OFFCURVE",
"280 386 CURVE SMOOTH",
"159 386 LINE",
"159 319 LINE",
"199 319 LINE SMOOTH",
"225 319 OFFCURVE",
"250 301 OFFCURVE",
"268 275 CURVE SMOOTH",
"398 83 LINE SMOOTH",
"442 18 OFFCURVE",
"489 -6 OFFCURVE",
"544 -6 CURVE SMOOTH",
"579 -6 OFFCURVE",
"608 2 OFFCURVE",
"629 18 CURVE",
"611 82 LINE"
);
}
);
width = 644;
},
{
anchors = (
{
name = bottom;
position = "{358, 0}";
},
{
name = top;
position = "{358, 712}";
}
);
background = {
paths = (
{
closed = 1;
nodes = (
"644 132 OFFCURVE",
"622 127 OFFCURVE",
"597 127 CURVE SMOOTH",
"560 127 OFFCURVE",
"536 141 OFFCURVE",
"512 177 CURVE SMOOTH",
"474 234 LINE SMOOTH",
"443 280 OFFCURVE",
"407 300 OFFCURVE",
"351 300 CURVE",
"327 282 LINE",
"352 282 LINE SMOOTH",
"494 282 OFFCURVE",
"597 357 OFFCURVE",
"597 491 CURVE SMOOTH",
"597 627 OFFCURVE",
"499 710 OFFCURVE",
"286 710 CURVE SMOOTH",
"76 710 LINE",
"76 0 LINE",
"232 0 LINE",
"232 587 LINE",
"278 587 LINE SMOOTH",
"396 587 OFFCURVE",
"441 555 OFFCURVE",
"441 489 CURVE SMOOTH",
"441 428 OFFCURVE",
"400 395 OFFCURVE",
"274 395 CURVE SMOOTH",
"196 395 LINE",
"196 279 LINE",
"220 279 LINE SMOOTH",
"248 279 OFFCURVE",
"270 270 OFFCURVE",
"293 234 CURVE SMOOTH",
"382 93 LINE SMOOTH",
"424 26 OFFCURVE",
"488 -10 OFFCURVE",
"574 -10 CURVE SMOOTH",
"621 -10 OFFCURVE",
"669 4 OFFCURVE",
"697 26 CURVE",
"665 146 LINE"
);
}
);
};
guideLines = (
{
angle = 122.1118;
position = "{521, 170}";
}
);
layerId = "014D4A40-7C7F-4023-B30E-1F55CE5EA091";
paths = (
{
closed = 1;
nodes = (
"644 132 OFFCURVE",
"622 127 OFFCURVE",
"597 127 CURVE SMOOTH",
"560 127 OFFCURVE",
"536 141 OFFCURVE",
"512 177 CURVE SMOOTH",
"474 234 LINE SMOOTH",
"443 280 OFFCURVE",
"407 300 OFFCURVE",
"351 300 CURVE",
"327 282 LINE",
"352 282 LINE SMOOTH",
"494 282 OFFCURVE",
"597 357 OFFCURVE",
"597 491 CURVE SMOOTH",
"597 627 OFFCURVE",
"499 710 OFFCURVE",
"306 710 CURVE SMOOTH",
"76 710 LINE",
"76 0 LINE",
"229 0 LINE",
"229 587 LINE",
"298 587 LINE SMOOTH",
"396 587 OFFCURVE",
"441 555 OFFCURVE",
"441 489 CURVE SMOOTH",
"441 428 OFFCURVE",
"400 395 OFFCURVE",
"294 395 CURVE SMOOTH",
"196 395 LINE",
"196 279 LINE",
"223 279 LINE SMOOTH",
"251 279 OFFCURVE",
"273 270 OFFCURVE",
"296 234 CURVE SMOOTH",
"385 93 LINE SMOOTH",
"427 26 OFFCURVE",
"491 -10 OFFCURVE",
"574 -10 CURVE SMOOTH",
"621 -10 OFFCURVE",
"669 4 OFFCURVE",
"697 26 CURVE",
"665 146 LINE"
);
}
);
width = 685;
}
);
leftMetricsKey = H;
unicode = 0052;
},
{
color = 3;
glyphname = S;
lastChange = "2019-03-12 13:07:15 +0000";
layers = (
{
background = {
paths = (
{
closed = 1;
nodes = (
"458 -8 OFFCURVE",
"540 74 OFFCURVE",
"540 186 CURVE SMOOTH",
"540 296 OFFCURVE",
"475 358 OFFCURVE",
"317 387 CURVE SMOOTH",
"201 408 OFFCURVE",
"160 442 OFFCURVE",
"160 517 CURVE SMOOTH",
"160 596 OFFCURVE",
"219 647 OFFCURVE",
"310 647 CURVE SMOOTH",
"397 647 OFFCURVE",
"442 605 OFFCURVE",
"460 518 CURVE",
"531 530 LINE",
"514 650 OFFCURVE",
"433 720 OFFCURVE",
"311 720 CURVE SMOOTH",
"174 720 OFFCURVE",
"79 635 OFFCURVE",
"79 514 CURVE SMOOTH",
"79 403 OFFCURVE",
"143 337 OFFCURVE",
"295 310 CURVE SMOOTH",
"410 290 OFFCURVE",
"459 253 OFFCURVE",
"459 184 CURVE SMOOTH",
"459 108 OFFCURVE",
"402 66 OFFCURVE",
"299 66 CURVE SMOOTH",
"184 66 OFFCURVE",
"132 113 OFFCURVE",
"114 221 CURVE",
"37 210 LINE",
"51 68 OFFCURVE",
"138 -8 OFFCURVE",
"298 -8 CURVE SMOOTH"
);
}
);
};
layerId = "A3B50665-EA37-4AC6-885C-1233CA61B6BD";
paths = (
{
closed = 1;
nodes = (
"449 -8 OFFCURVE",
"545 74 OFFCURVE",
"545 188 CURVE SMOOTH",
"545 296 OFFCURVE",
"475 356 OFFCURVE",
"322 384 CURVE SMOOTH",
"209 404 OFFCURVE",
"167 439 OFFCURVE",
"167 517 CURVE SMOOTH",
"167 596 OFFCURVE",
"226 647 OFFCURVE",
"314 647 CURVE SMOOTH",
"404 647 OFFCURVE",
"449 605 OFFCURVE",
"467 518 CURVE",
"538 530 LINE",
"523 650 OFFCURVE",
"440 720 OFFCURVE",
"316 720 CURVE SMOOTH",
"181 720 OFFCURVE",
"86 632 OFFCURVE",
"86 514 CURVE SMOOTH",
"86 403 OFFCURVE",
"144 339 OFFCURVE",
"300 311 CURVE SMOOTH",
"411 291 OFFCURVE",
"464 255 OFFCURVE",
"464 187 CURVE SMOOTH",
"464 110 OFFCURVE",
"404 65 OFFCURVE",
"307 65 CURVE SMOOTH",
"189 65 OFFCURVE",
"137 116 OFFCURVE",
"119 221 CURVE",
"42 210 LINE",
"58 67 OFFCURVE",
"143 -8 OFFCURVE",
"303 -8 CURVE SMOOTH"
);
}
);
width = 588;
},
{
background = {
paths = (
{
closed = 1;
nodes = (
"473 -9 OFFCURVE",
"585 80 OFFCURVE",
"585 210 CURVE SMOOTH",
"585 317 OFFCURVE",
"516 383 OFFCURVE",
"381 412 CURVE SMOOTH",
"265 436 OFFCURVE",
"229 459 OFFCURVE",
"229 509 CURVE SMOOTH",
"229 555 OFFCURVE",
"264 590 OFFCURVE",
"328 590 CURVE SMOOTH",
"392 590 OFFCURVE",
"431 556 OFFCURVE",
"442 500 CURVE",
"578 523 LINE",
"564 643 OFFCURVE",
"473 720 OFFCURVE",
"335 720 CURVE SMOOTH",
"174 720 OFFCURVE",
"69 625 OFFCURVE",
"69 493 CURVE SMOOTH",
"69 385 OFFCURVE",
"135 317 OFFCURVE",
"271 289 CURVE SMOOTH",
"386 264 OFFCURVE",
"425 242 OFFCURVE",
"425 197 CURVE SMOOTH",
"425 149 OFFCURVE",
"385 122 OFFCURVE",
"313 122 CURVE SMOOTH",
"225 122 OFFCURVE",
"179 163 OFFCURVE",
"170 233 CURVE",
"26 212 LINE",
"38 68 OFFCURVE",
"134 -9 OFFCURVE",
"305 -9 CURVE SMOOTH"
);
}
);
};
layerId = "014D4A40-7C7F-4023-B30E-1F55CE5EA091";
paths = (
{
closed = 1;
nodes = (
"473 -9 OFFCURVE",
"585 80 OFFCURVE",
"585 210 CURVE SMOOTH",
"585 312 OFFCURVE",
"516 380 OFFCURVE",
"381 409 CURVE SMOOTH",
"265 434 OFFCURVE",
"229 457 OFFCURVE",
"229 509 CURVE SMOOTH",
"229 555 OFFCURVE",
"264 590 OFFCURVE",
"328 590 CURVE SMOOTH",
"392 590 OFFCURVE",
"431 556 OFFCURVE",
"442 500 CURVE",
"578 523 LINE",
"564 643 OFFCURVE",
"473 720 OFFCURVE",
"335 720 CURVE SMOOTH",
"174 720 OFFCURVE",
"69 625 OFFCURVE",
"69 493 CURVE SMOOTH",
"69 395 OFFCURVE",
"135 318 OFFCURVE",
"271 290 CURVE SMOOTH",
"386 265 OFFCURVE",
"425 242 OFFCURVE",
"425 197 CURVE SMOOTH",
"425 149 OFFCURVE",
"385 122 OFFCURVE",
"313 122 CURVE SMOOTH",
"225 122 OFFCURVE",
"179 163 OFFCURVE",
"170 233 CURVE",
"26 212 LINE",
"38 68 OFFCURVE",
"134 -9 OFFCURVE",
"305 -9 CURVE SMOOTH"
);
}
);
width = 616;
}
);
note = s;
unicode = 0053;
},
{
color = 3;
glyphname = T;
lastChange = "2019-03-12 13:07:15 +0000";
layers = (
{
layerId = "A3B50665-EA37-4AC6-885C-1233CA61B6BD";
paths = (
{
closed = 1;
nodes = (
"17 710 LINE",
"17 639 LINE",
"249 639 LINE",
"249 0 LINE",
"332 0 LINE",
"332 639 LINE",
"559 639 LINE",
"569 710 LINE"
);
}
);
width = 581;
},
{
background = {
paths = (
{
closed = 1;
nodes = (
"10 710 LINE",
"10 574 LINE",
"236 574 LINE",
"236 0 LINE",
"392 0 LINE",
"392 574 LINE",
"618 574 LINE",
"618 710 LINE"
);
}
);
};
layerId = "014D4A40-7C7F-4023-B30E-1F55CE5EA091";
paths = (
{
closed = 1;
nodes = (
"10 710 LINE",
"10 576 LINE",
"236 576 LINE",
"236 0 LINE",
"392 0 LINE",
"392 576 LINE",
"608 576 LINE",
"628 710 LINE"
);
}
);
width = 628;
}
);
unicode = 0054;
},
{
color = 3;
glyphname = U;
lastChange = "2019-03-12 13:07:15 +0000";
layers = (
{
background = {
paths = (
{
closed = 1;
nodes = (
"578 345 LINE SMOOTH",
"579 155 OFFCURVE",
"512 68 OFFCURVE",
"367 68 CURVE SMOOTH",
"227 68 OFFCURVE",
"166 142 OFFCURVE",
"166 312 CURVE SMOOTH",
"166 710 LINE",
"82 710 LINE",
"82 308 LINE SMOOTH",
"82 92 OFFCURVE",
"179 -8 OFFCURVE",
"367 -8 CURVE SMOOTH",
"558 -8 OFFCURVE",
"661 115 OFFCURVE",
"660 343 CURVE SMOOTH",
"659 710 LINE",
"577 710 LINE"
);
}
);
};
guideLines = (
{
angle = 90;
position = "{754, 356}";
},
{
angle = 90;
position = "{817, 356}";
}
);
layerId = "A3B50665-EA37-4AC6-885C-1233CA61B6BD";
paths = (
{
closed = 1;
nodes = (
"578 342 LINE SMOOTH",
"579 155 OFFCURVE",
"517 68 OFFCURVE",
"372 68 CURVE SMOOTH",
"235 68 OFFCURVE",
"176 140 OFFCURVE",
"176 307 CURVE SMOOTH",
"176 710 LINE",
"92 710 LINE",
"92 303 LINE SMOOTH",
"92 88 OFFCURVE",
"184 -8 OFFCURVE",
"372 -8 CURVE SMOOTH",
"563 -8 OFFCURVE",
"661 115 OFFCURVE",
"660 340 CURVE SMOOTH",
"659 710 LINE",
"577 710 LINE"
);
}
);
width = 752;
},
{
background = {
paths = (
{
closed = 1;
nodes = (
"1549 -10 OFFCURVE",
"1689 174 OFFCURVE",
"1689 362 CURVE SMOOTH",
"1689 578 OFFCURVE",
"1534 720 OFFCURVE",
"1324 720 CURVE SMOOTH",
"1088 720 OFFCURVE",
"947 534 OFFCURVE",
"947 346 CURVE SMOOTH",
"947 131 OFFCURVE",
"1101 -10 OFFCURVE",
"1312 -10 CURVE SMOOTH"
);
},
{
closed = 1;
nodes = (
"1191 127 OFFCURVE",
"1106 210 OFFCURVE",
"1106 349 CURVE SMOOTH",
"1106 483 OFFCURVE",
"1191 585 OFFCURVE",
"1322 585 CURVE SMOOTH",
"1443 585 OFFCURVE",
"1530 499 OFFCURVE",
"1530 359 CURVE SMOOTH",
"1530 221 OFFCURVE",
"1450 127 OFFCURVE",
"1314 127 CURVE SMOOTH"
);
},
{
closed = 1;
nodes = (
"603 -8 OFFCURVE",
"753 139 OFFCURVE",
"753 369 CURVE SMOOTH",
"753 580 OFFCURVE",
"618 720 OFFCURVE",
"416 720 CURVE SMOOTH",
"198 720 OFFCURVE",
"47 564 OFFCURVE",
"47 342 CURVE SMOOTH",
"47 120 OFFCURVE",
"180 -8 OFFCURVE",
"396 -8 CURVE SMOOTH"
);
},
{
closed = 1;
nodes = (
"278 127 OFFCURVE",
"206 205 OFFCURVE",
"206 345 CURVE SMOOTH",
"206 489 OFFCURVE",
"292 585 OFFCURVE",
"412 585 CURVE SMOOTH",
"523 585 OFFCURVE",
"594 500 OFFCURVE",
"594 368 CURVE SMOOTH",
"594 215 OFFCURVE",
"513 127 OFFCURVE",
"397 127 CURVE SMOOTH"
);
},
{
closed = 1;
nodes = (
"553 426 LINE",
"247 426 LINE",
"247 710 LINE",
"91 710 LINE",
"91 0 LINE",
"247 0 LINE",
"247 290 LINE",
"553 290 LINE",
"553 0 LINE",
"709 0 LINE",
"709 710 LINE",
"553 710 LINE"
);
}
);
};
layerId = "014D4A40-7C7F-4023-B30E-1F55CE5EA091";
paths = (
{
closed = 1;
nodes = (
"546 336 LINE SMOOTH",
"547 194 OFFCURVE",
"491 129 OFFCURVE",
"390 129 CURVE SMOOTH",
"287 129 OFFCURVE",
"230 183 OFFCURVE",
"230 313 CURVE SMOOTH",
"230 710 LINE",
"74 710 LINE",
"74 300 LINE SMOOTH",
"74 94 OFFCURVE",
"183 -12 OFFCURVE",
"393 -10 CURVE SMOOTH",
"582 -8 OFFCURVE",
"703 123 OFFCURVE",
"702 327 CURVE SMOOTH",
"700 710 LINE",
"544 710 LINE"
);
}
);
width = 776;
}
);
rightMetricsKey = "=|";
unicode = 0055;
},
{
color = 3;
glyphname = V;
lastChange = "2019-03-12 13:07:15 +0000";
layers = (
{
background = {
paths = (
{
closed = 1;
nodes = (
"286 24 LINE",
"304 23 LINE",
"101 710 LINE",
"14 710 LINE",
"236 0 LINE",
"348 0 LINE",
"615 710 LINE",
"532 710 LINE"
);
}
);
};
layerId = "A3B50665-EA37-4AC6-885C-1233CA61B6BD";
paths = (
{
closed = 1;
nodes = (
"286 24 LINE",
"313 23 LINE",
"106 710 LINE",
"21 710 LINE",
"241 0 LINE",
"352 0 LINE",
"618 710 LINE",
"536 710 LINE"
);
}
);
width = 615;
},
{
background = {
paths = (
{
closed = 1;
nodes = (
"298 33 LINE",
"362 33 LINE",
"168 710 LINE",
"0 710 LINE",
"212 0 LINE",
"435 0 LINE",
"689 710 LINE",
"532 710 LINE"
);
}
);
};
guideLines = (
{
angle = 68.7799;
position = "{371, 235}";
}
);
layerId = "014D4A40-7C7F-4023-B30E-1F55CE5EA091";
paths = (
{
closed = 1;
nodes = (
"298 33 LINE",
"362 33 LINE",
"168 710 LINE",
"2 710 LINE",
"214 0 LINE",
"433 0 LINE",
"687 710 LINE",
"532 710 LINE"
);
}
);
width = 666;
}
);
unicode = 0056;
},
{
color = 3;
glyphname = W;
lastChange = "2019-03-12 13:07:15 +0000";
layers = (
{
background = {
paths = (
{
closed = 1;
nodes = (
"1600 24 LINE",
"1639 23 LINE",
"1495 497 LINE",
"1411 497 LINE",
"1236 24 LINE",
"1278 23 LINE",
"1136 497 LINE",
"1050 497 LINE",
"1206 0 LINE",
"1302 0 LINE",
"1462 427 LINE",
"1439 427 LINE",
"1571 0 LINE",
"1667 0 LINE",
"1852 497 LINE",
"1769 497 LINE"
);
},
{
closed = 1;
nodes = (
"655 71 LINE",
"722 70 LINE",
"575 710 LINE",
"390 710 LINE",
"213 71 LINE",
"285 70 LINE",
"134 710 LINE",
"-25 710 LINE",
"152 0 LINE",
"329 0 LINE",
"480 541 LINE",
"466 541 LINE",
"592 0 LINE",
"769 0 LINE",
"972 710 LINE",
"829 710 LINE"
);
}
);
};
layerId = "A3B50665-EA37-4AC6-885C-1233CA61B6BD";
paths = (
{
closed = 1;
nodes = (
"664 24 LINE",
"705 23 LINE",
"538 710 LINE",
"450 710 LINE",
"252 24 LINE",
"292 23 LINE",
"128 710 LINE",
"44 710 LINE",
"220 0 LINE",
"316 0 LINE",
"501 640 LINE",
"478 640 LINE",
"635 0 LINE",
"731 0 LINE",
"937 710 LINE",
"856 710 LINE"
);
}
);
width = 966;
},
{
background = {
paths = (
{
closed = 1;
nodes = (
"665 46 LINE",
"720 46 LINE",
"591 508 LINE",
"451 508 LINE",
"300 46 LINE",
"357 46 LINE",
"226 508 LINE",
"77 508 LINE",
"235 0 LINE",
"411 0 LINE",
"526 339 LINE",
"510 339 LINE",
"607 0 LINE",
"783 0 LINE",
"958 508 LINE",
"816 508 LINE"
);
}
);
};
layerId = "014D4A40-7C7F-4023-B30E-1F55CE5EA091";
paths = (
{
closed = 1;
nodes = (
"701 67 LINE",
"767 66 LINE",
"620 710 LINE",
"436 710 LINE",
"259 67 LINE",
"329 66 LINE",
"178 710 LINE",
"21 710 LINE",
"198 0 LINE",
"375 0 LINE",
"526 541 LINE",
"512 541 LINE",
"638 0 LINE",
"815 0 LINE",
"1020 710 LINE",
"877 710 LINE"
);
}
);
width = 1024;
}
);
unicode = 0057;
},
{
color = 3;
glyphname = X;
lastChange = "2019-03-12 13:07:15 +0000";
layers = (
{
background = {
paths = (
{
closed = 1;
nodes = (
"594 0 LINE",
"118 710 LINE",
"25 710 LINE",
"499 0 LINE"
);
},
{
closed = 1;
nodes = (
"583 710 LINE",
"496 710 LINE",
"13 0 LINE",
"104 0 LINE"
);
}
);
};
layerId = "A3B50665-EA37-4AC6-885C-1233CA61B6BD";
paths = (
{
closed = 1;
nodes = (
"599 0 LINE",
"354 365 LINE",
"312 428 LINE",
"126 710 LINE",
"33 710 LINE",
"264 361 LINE",
"308 296 LINE",
"504 0 LINE"
);
},
{
closed = 1;
nodes = (
"308 296 LINE",
"354 365 LINE",
"588 710 LINE",
"501 710 LINE",
"312 428 LINE",
"264 361 LINE",
"18 0 LINE",
"109 0 LINE"
);
}
);
width = 620;
},
{
background = {
paths = (
{
closed = 1;
nodes = (
"1345 0 LINE",
"892 710 LINE",
"721 710 LINE",
"1171 0 LINE"
);
},
{
closed = 1;
nodes = (
"1335 710 LINE",
"1173 710 LINE",
"709 0 LINE",
"872 0 LINE"
);
},
{
closed = 1;
nodes = (
"647 0 LINE",
"194 710 LINE",
"19 710 LINE",
"469 0 LINE"
);
},
{
closed = 1;
nodes = (
"637 710 LINE",
"471 710 LINE",
"7 0 LINE",
"174 0 LINE"
);
}
);
};
layerId = "014D4A40-7C7F-4023-B30E-1F55CE5EA091";
paths = (
{
closed = 1;
nodes = (
"645 0 LINE",
"412 367 LINE",
"332 491 LINE",
"195 710 LINE",
"20 710 LINE",
"243 359 LINE",
"326 232 LINE",
"467 0 LINE"
);
},
{
closed = 1;
nodes = (
"326 232 LINE",
"412 367 LINE",
"635 710 LINE",
"469 710 LINE",
"332 491 LINE",
"243 359 LINE",
"7 0 LINE",
"178 0 LINE"
);
}
);
width = 656;
}
);
unicode = 0058;
},
{
color = 3;
glyphname = Y;
lastChange = "2019-03-12 13:07:15 +0000";
layers = (
{
background = {
paths = (
{
closed = 1;
nodes = (
"293 422 LINE",
"103 710 LINE",
"10 710 LINE",
"262 329 LINE",
"311 323 LINE",
"565 710 LINE",
"478 710 LINE"
);
},
{
closed = 1;
nodes = (
"331 0 LINE",
"331 410 LINE",
"248 410 LINE",
"248 0 LINE"
);
}
);
};
layerId = "A3B50665-EA37-4AC6-885C-1233CA61B6BD";
paths = (
{
closed = 1;
nodes = (
"298 392 LINE",
"88 710 LINE",
"-5 710 LINE",
"267 299 LINE",
"316 293 LINE",
"589 710 LINE",
"502 710 LINE"
);
},
{
closed = 1;
nodes = (
"336 0 LINE",
"336 370 LINE",
"253 370 LINE",
"253 0 LINE"
);
}
);
width = 589;
},
{
background = {
paths = (
{
closed = 1;
nodes = (
"313 481 LINE",
"169 710 LINE",
"-6 710 LINE",
"255 299 LINE",
"349 289 LINE",
"609 710 LINE",
"443 710 LINE"
);
},
{
closed = 1;
nodes = (
"384 0 LINE",
"384 418 LINE",
"228 418 LINE",
"228 0 LINE"
);
}
);
};
layerId = "014D4A40-7C7F-4023-B30E-1F55CE5EA091";
paths = (
{
closed = 1;
nodes = (
"313 451 LINE",
"150 710 LINE",
"-25 710 LINE",
"255 269 LINE",
"349 259 LINE",
"626 710 LINE",
"460 710 LINE"
);
},
{
closed = 1;
nodes = (
"384 0 LINE",
"384 418 LINE",
"228 418 LINE",
"228 0 LINE"
);
}
);
width = 612;
}
);
unicode = 0059;
},
{
color = 3;
glyphname = Z;
lastChange = "2019-03-12 13:07:15 +0000";
layers = (
{
background = {
paths = (
{
closed = 1;
nodes = (
"580 0 LINE",
"580 67 LINE",
"118 67 LINE",
"123 27 LINE",
"575 655 LINE",
"575 710 LINE",
"64 710 LINE",
"64 645 LINE",
"509 645 LINE",
"501 683 LINE",
"49 55 LINE",
"49 0 LINE"
);
}
);
};
layerId = "A3B50665-EA37-4AC6-885C-1233CA61B6BD";
paths = (
{
closed = 1;
nodes = (
"585 0 LINE",
"585 71 LINE",
"123 71 LINE",
"126 27 LINE",
"580 650 LINE",
"580 710 LINE",
"69 710 LINE",
"69 641 LINE",
"514 641 LINE",
"508 683 LINE",
"54 60 LINE",
"54 0 LINE"
);
}
);
width = 628;
},
{
background = {
paths = (
{
closed = 1;
nodes = (
"669 0 LINE",
"669 710 LINE",
"513 710 LINE",
"513 0 LINE"
);
},
{
closed = 1;
nodes = (
"207 0 LINE",
"207 710 LINE",
"51 710 LINE",
"51 0 LINE"
);
},
{
closed = 1;
nodes = (
"609 290 LINE",
"609 426 LINE",
"99 426 LINE",
"99 290 LINE"
);
}
);
};
layerId = "014D4A40-7C7F-4023-B30E-1F55CE5EA091";
paths = (
{
closed = 1;
nodes = (
"622 0 LINE",
"622 135 LINE",
"196 135 LINE",
"215 84 LINE",
"620 598 LINE",
"620 710 LINE",
"69 710 LINE",
"69 575 LINE",
"473 575 LINE",
"456 626 LINE",
"51 112 LINE",
"51 0 LINE"
);
}
);
width = 664;
}
);
unicode = 005A;
},
{
color = 3;
glyphname = a;
lastChange = "2019-03-20 09:57:58 +0000";
layers = (
{
background = {
paths = (
{
closed = 1;
nodes = (
"449 498 LINE",
"440 416 LINE",
"449 418 LINE",
"432 470 OFFCURVE",
"375 507 OFFCURVE",
"306 507 CURVE SMOOTH",
"161 507 OFFCURVE",
"60 388 OFFCURVE",
"60 217 CURVE SMOOTH",
"60 85 OFFCURVE",
"129 -8 OFFCURVE",
"254 -8 CURVE SMOOTH",
"349 -8 OFFCURVE",
"423 56 OFFCURVE",
"455 160 CURVE",
"439 154 LINE",
"437 126 OFFCURVE",
"435 98 OFFCURVE",
"435 70 CURVE SMOOTH",
"435 0 LINE",
"513 0 LINE",
"513 498 LINE"
);
},
{
closed = 1;
nodes = (
"387 436 OFFCURVE",
"436 380 OFFCURVE",
"436 287 CURVE SMOOTH",
"436 160 OFFCURVE",
"361 64 OFFCURVE",
"264 64 CURVE SMOOTH",
"188 64 OFFCURVE",
"141 123 OFFCURVE",
"141 223 CURVE SMOOTH",
"141 351 OFFCURVE",
"206 436 OFFCURVE",
"306 436 CURVE SMOOTH"
);
}
);
};
layerId = "A3B50665-EA37-4AC6-885C-1233CA61B6BD";
paths = (
{
closed = 1;
nodes = (
"449 498 LINE",
"440 416 LINE",
"449 418 LINE",
"432 470 OFFCURVE",
"375 507 OFFCURVE",
"306 507 CURVE SMOOTH",
"161 507 OFFCURVE",
"60 388 OFFCURVE",
"60 217 CURVE SMOOTH",
"60 85 OFFCURVE",
"129 -8 OFFCURVE",
"253 -8 CURVE SMOOTH",
"349 -8 OFFCURVE",
"423 58 OFFCURVE",
"455 164 CURVE",
"439 178 LINE",
"434 0 LINE",
"513 0 LINE",
"513 498 LINE"
);
},
{
closed = 1;
nodes = (
"387 436 OFFCURVE",
"436 380 OFFCURVE",
"436 287 CURVE SMOOTH",
"436 160 OFFCURVE",
"361 64 OFFCURVE",
"264 64 CURVE SMOOTH",
"188 64 OFFCURVE",
"141 123 OFFCURVE",
"141 223 CURVE SMOOTH",
"141 351 OFFCURVE",
"206 436 OFFCURVE",
"306 436 CURVE SMOOTH"
);
}
);
width = 596;
},
{
background = {
hints = (
{
horizontal = 1;
place = "{-8, 129}";
type = Stem;
},
{
horizontal = 1;
place = "{386, 129}";
type = Stem;
},
{
horizontal = 1;
place = "{672, -20}";
target = down;
type = TopGhost;
},
{
place = "{46, 134}";
type = Stem;
},
{
place = "{366, 134}";
type = Stem;
},
{
horizontal = 1;
place = "{0, 21}";
target = up;
type = BottomGhost;
},
{
place = "{385, 115}";
type = Stem;
}
);
paths = (
{
closed = 1;
nodes = (
"464 506 LINE",
"446 422 LINE",
"460 442 LINE",
"436 485 OFFCURVE",
"381 516 OFFCURVE",
"310 516 CURVE SMOOTH",
"158 516 OFFCURVE",
"45 398 OFFCURVE",
"45 223 CURVE SMOOTH",
"45 88 OFFCURVE",
"116 -10 OFFCURVE",
"256 -10 CURVE SMOOTH",
"358 -10 OFFCURVE",
"430 49 OFFCURVE",
"460 155 CURVE",
"429 155 LINE",
"426 127 OFFCURVE",
"423 67 OFFCURVE",
"423 30 CURVE SMOOTH",
"423 0 LINE",
"569 0 LINE",
"569 506 LINE"
);
},
{
closed = 1;
nodes = (
"385 389 OFFCURVE",
"423 347 OFFCURVE",
"423 278 CURVE SMOOTH",
"423 187 OFFCURVE",
"367 118 OFFCURVE",
"294 118 CURVE SMOOTH",
"236 118 OFFCURVE",
"200 160 OFFCURVE",
"200 234 CURVE SMOOTH",
"200 325 OFFCURVE",
"248 389 OFFCURVE",
"324 389 CURVE SMOOTH"
);
}
);
};
layerId = "014D4A40-7C7F-4023-B30E-1F55CE5EA091";
paths = (
{
closed = 1;
nodes = (
"464 506 LINE",
"446 422 LINE",
"460 442 LINE",
"436 485 OFFCURVE",
"381 516 OFFCURVE",
"310 516 CURVE SMOOTH",
"160 516 OFFCURVE",
"45 398 OFFCURVE",
"45 223 CURVE SMOOTH",
"45 88 OFFCURVE",
"119 -10 OFFCURVE",
"256 -10 CURVE SMOOTH",
"358 -10 OFFCURVE",
"430 49 OFFCURVE",
"460 155 CURVE",
"432 179 LINE",
"422 0 LINE",
"569 0 LINE",
"569 506 LINE"
);
},
{
closed = 1;
nodes = (
"385 389 OFFCURVE",
"423 347 OFFCURVE",
"423 278 CURVE SMOOTH",
"423 187 OFFCURVE",
"367 118 OFFCURVE",
"294 118 CURVE SMOOTH",
"236 118 OFFCURVE",
"200 160 OFFCURVE",
"200 234 CURVE SMOOTH",
"200 325 OFFCURVE",
"248 389 OFFCURVE",
"325 389 CURVE SMOOTH"
);
}
);
width = 638;
}
);
leftKerningGroup = o;
leftMetricsKey = o;
note = d;
rightMetricsKey = "=|n";
unicode = 0061;
},
{
color = 3;
glyphname = ae;
lastChange = "2019-03-18 12:32:05 +0000";
layers = (
{
background = {
paths = (
{
closed = 1;
nodes = (
"395 220 LINE SMOOTH",
"395 119 OFFCURVE",
"343 60 OFFCURVE",
"247 60 CURVE SMOOTH",
"174 60 OFFCURVE",
"140 95 OFFCURVE",
"140 139 CURVE SMOOTH",
"140 190 OFFCURVE",
"177 222 OFFCURVE",
"251 222 CURVE SMOOTH",
"422 222 LINE",
"422 286 LINE",
"257 286 LINE SMOOTH",
"131 286 OFFCURVE",
"58 229 OFFCURVE",
"58 136 CURVE SMOOTH",
"58 50 OFFCURVE",
"135 -8 OFFCURVE",
"239 -8 CURVE SMOOTH",
"355 -8 OFFCURVE",
"415 44 OFFCURVE",
"445 147 CURVE",
"467 309 LINE",
"467 437 OFFCURVE",
"397 507 OFFCURVE",
"272 507 CURVE SMOOTH",
"158 507 OFFCURVE",
"77 442 OFFCURVE",
"66 347 CURVE",
"139 334 LINE",
"150 402 OFFCURVE",
"191 436 OFFCURVE",
"268 436 CURVE SMOOTH",
"348 436 OFFCURVE",
"395 397 OFFCURVE",
"395 306 CURVE SMOOTH"
);
},
{
closed = 1;
nodes = (
"723 -8 OFFCURVE",
"787 24 OFFCURVE",
"832 89 CURVE",
"780 134 LINE",
"745 86 OFFCURVE",
"690 64 OFFCURVE",
"646 64 CURVE SMOOTH",
"541 64 OFFCURVE",
"477 123 OFFCURVE",
"477 231 CURVE SMOOTH",
"477 258 LINE SMOOTH",
"477 359 OFFCURVE",
"539 442 OFFCURVE",
"632 442 CURVE SMOOTH",
"712 442 OFFCURVE",
"771 391 OFFCURVE",
"761 272 CURVE",
"781 286 LINE",
"443 286 LINE",
"443 222 LINE",
"829 222 LINE",
"850 410 OFFCURVE",
"768 507 OFFCURVE",
"633 507 CURVE SMOOTH",
"503 507 OFFCURVE",
"408 400 OFFCURVE",
"408 242 CURVE SMOOTH",
"408 85 OFFCURVE",
"491 -8 OFFCURVE",
"643 -8 CURVE SMOOTH"
);
}
);
};
layerId = "A3B50665-EA37-4AC6-885C-1233CA61B6BD";
paths = (
{
closed = 1;
nodes = (
"340 -8 OFFCURVE",
"421 52 OFFCURVE",
"444 143 CURVE",
"422 140 LINE",
"453 44 OFFCURVE",
"530 -8 OFFCURVE",
"643 -8 CURVE SMOOTH",
"723 -8 OFFCURVE",
"787 24 OFFCURVE",
"832 89 CURVE",
"780 134 LINE",
"749 92 OFFCURVE",
"697 64 OFFCURVE",
"646 64 CURVE SMOOTH",
"539 64 OFFCURVE",
"477 125 OFFCURVE",
"477 229 CURVE SMOOTH",
"477 263 LINE SMOOTH",
"477 365 OFFCURVE",
"544 442 OFFCURVE",
"632 442 CURVE SMOOTH",
"722 442 OFFCURVE",
"770 379 OFFCURVE",
"761 270 CURVE",
"781 284 LINE",
"453 284 LINE",
"453 220 LINE",
"829 220 LINE",
"849 400 OFFCURVE",
"776 507 OFFCURVE",
"633 507 CURVE SMOOTH",
"547 507 OFFCURVE",
"474 460 OFFCURVE",
"438 377 CURVE",
"460 375 LINE",
"437 462 OFFCURVE",
"375 507 OFFCURVE",
"277 507 CURVE SMOOTH",
"169 507 OFFCURVE",
"87 444 OFFCURVE",
"72 347 CURVE",
"140 334 LINE",
"155 403 OFFCURVE",
"201 437 OFFCURVE",
"275 437 CURVE SMOOTH",
"356 437 OFFCURVE",
"395 394 OFFCURVE",
"395 306 CURVE SMOOTH",
"395 218 LINE SMOOTH",
"395 123 OFFCURVE",
"337 60 OFFCURVE",
"247 60 CURVE SMOOTH",
"181 60 OFFCURVE",
"140 90 OFFCURVE",
"140 139 CURVE SMOOTH",
"140 190 OFFCURVE",
"179 221 OFFCURVE",
"257 221 CURVE SMOOTH",
"412 221 LINE",
"412 283 LINE",
"257 283 LINE SMOOTH",
"130 283 OFFCURVE",
"58 227 OFFCURVE",
"58 136 CURVE SMOOTH",
"58 52 OFFCURVE",
"133 -8 OFFCURVE",
"239 -8 CURVE SMOOTH"
);
}
);
width = 884;
},
{
background = {
paths = (
{
closed = 1;
nodes = (
"354 215 LINE SMOOTH",
"354 136 OFFCURVE",
"323 102 OFFCURVE",
"260 102 CURVE SMOOTH",
"215 102 OFFCURVE",
"186 126 OFFCURVE",
"186 156 CURVE SMOOTH",
"186 189 OFFCURVE",
"212 212 OFFCURVE",
"254 212 CURVE SMOOTH",
"368 212 LINE",
"368 309 LINE",
"239 309 LINE SMOOTH",
"121 309 OFFCURVE",
"43 238 OFFCURVE",
"43 146 CURVE SMOOTH",
"43 59 OFFCURVE",
"120 -10 OFFCURVE",
"242 -10 CURVE SMOOTH",
"350 -10 OFFCURVE",
"418 42 OFFCURVE",
"452 144 CURVE",
"490 293 LINE",
"490 446 OFFCURVE",
"421 516 OFFCURVE",
"281 516 CURVE SMOOTH",
"156 516 OFFCURVE",
"70 452 OFFCURVE",
"50 356 CURVE",
"180 341 LINE",
"193 381 OFFCURVE",
"220 399 OFFCURVE",
"269 399 CURVE SMOOTH",
"322 399 OFFCURVE",
"354 375 OFFCURVE",
"354 335 CURVE SMOOTH"
);
},
{
closed = 1;
nodes = (
"729 -10 OFFCURVE",
"791 24 OFFCURVE",
"836 83 CURVE",
"753 163 LINE",
"724 131 OFFCURVE",
"679 114 OFFCURVE",
"645 114 CURVE SMOOTH",
"561 114 OFFCURVE",
"512 163 OFFCURVE",
"512 225 CURVE SMOOTH",
"512 272 LINE SMOOTH",
"512 354 OFFCURVE",
"555 410 OFFCURVE",
"620 410 CURVE SMOOTH",
"678 410 OFFCURVE",
"715 375 OFFCURVE",
"706 294 CURVE",
"738 309 LINE",
"474 309 LINE",
"474 212 LINE",
"830 212 LINE",
"853 396 OFFCURVE",
"777 516 OFFCURVE",
"617 516 CURVE SMOOTH",
"484 516 OFFCURVE",
"374 407 OFFCURVE",
"374 246 CURVE SMOOTH",
"374 85 OFFCURVE",
"470 -10 OFFCURVE",
"634 -10 CURVE SMOOTH"
);
}
);
};
hints = (
{
horizontal = 1;
place = "{0, 21}";
target = up;
type = BottomGhost;
},
{
horizontal = 1;
place = "{472, 148}";
type = Stem;
},
{
place = "{49, 151}";
type = Stem;
},
{
place = "{419, 161}";
type = Stem;
},
{
horizontal = 1;
place = "{-10, 148}";
type = Stem;
},
{
place = "{441, 139}";
type = Stem;
},
{
place = "{49, 170}";
type = Stem;
}
);
layerId = "014D4A40-7C7F-4023-B30E-1F55CE5EA091";
paths = (
{
closed = 1;
nodes = (
"340 -10 OFFCURVE",
"406 31 OFFCURVE",
"442 114 CURVE",
"412 109 LINE",
"455 28 OFFCURVE",
"521 -10 OFFCURVE",
"624 -10 CURVE SMOOTH",
"713 -10 OFFCURVE",
"778 20 OFFCURVE",
"826 83 CURVE",
"743 163 LINE",
"717 134 OFFCURVE",
"673 114 OFFCURVE",
"635 114 CURVE SMOOTH",
"556 114 OFFCURVE",
"502 159 OFFCURVE",
"502 223 CURVE SMOOTH",
"502 270 LINE SMOOTH",
"502 355 OFFCURVE",
"545 410 OFFCURVE",
"610 410 CURVE SMOOTH",
"674 410 OFFCURVE",
"704 369 OFFCURVE",
"696 292 CURVE",
"728 306 LINE",
"474 306 LINE",
"474 211 LINE",
"820 211 LINE",
"844 402 OFFCURVE",
"763 516 OFFCURVE",
"614 516 CURVE SMOOTH",
"543 516 OFFCURVE",
"462 475 OFFCURVE",
"424 406 CURVE",
"468 394 LINE",
"439 484 OFFCURVE",
"362 516 OFFCURVE",
"276 516 CURVE SMOOTH",
"157 516 OFFCURVE",
"75 451 OFFCURVE",
"48 359 CURVE",
"174 335 LINE",
"188 375 OFFCURVE",
"218 399 OFFCURVE",
"271 399 CURVE SMOOTH",
"323 399 OFFCURVE",
"354 371 OFFCURVE",
"354 318 CURVE SMOOTH",
"354 193 LINE SMOOTH",
"354 133 OFFCURVE",
"322 98 OFFCURVE",
"260 98 CURVE SMOOTH",
"218 98 OFFCURVE",
"186 122 OFFCURVE",
"186 156 CURVE SMOOTH",
"186 190 OFFCURVE",
"209 212 OFFCURVE",
"267 212 CURVE SMOOTH",
"398 212 LINE",
"398 305 LINE",
"255 305 LINE SMOOTH",
"115 305 OFFCURVE",
"43 244 OFFCURVE",
"43 150 CURVE SMOOTH",
"43 57 OFFCURVE",
"128 -10 OFFCURVE",
"245 -10 CURVE SMOOTH"
);
}
);
width = 870;
}
);
note = A;
rightMetricsKey = e;
unicode = 00E6;
},
{
color = 3;
glyphname = b;
lastChange = "2019-03-20 09:58:16 +0000";
layers = (
{
background = {
paths = (
{
closed = 1;
nodes = (
"147 0 LINE",
"156 82 LINE",
"147 81 LINE",
"164 29 OFFCURVE",
"221 -8 OFFCURVE",
"290 -8 CURVE SMOOTH",
"435 -8 OFFCURVE",
"536 111 OFFCURVE",
"536 282 CURVE SMOOTH",
"536 414 OFFCURVE",
"467 507 OFFCURVE",
"343 507 CURVE SMOOTH",
"247 507 OFFCURVE",
"173 441 OFFCURVE",
"141 335 CURVE",
"157 321 LINE",
"162 499 LINE",
"83 499 LINE",
"83 0 LINE"
);
},
{
closed = 1;
nodes = (
"209 64 OFFCURVE",
"160 120 OFFCURVE",
"160 213 CURVE SMOOTH",
"160 340 OFFCURVE",
"235 436 OFFCURVE",
"332 436 CURVE SMOOTH",
"408 436 OFFCURVE",
"455 377 OFFCURVE",
"455 277 CURVE SMOOTH",
"455 149 OFFCURVE",
"390 64 OFFCURVE",
"290 64 CURVE SMOOTH"
);
}
);
};
layerId = "A3B50665-EA37-4AC6-885C-1233CA61B6BD";
paths = (
{
closed = 1;
nodes = (
"147 0 LINE",
"156 82 LINE",
"147 81 LINE",
"164 29 OFFCURVE",
"221 -8 OFFCURVE",
"290 -8 CURVE SMOOTH",
"435 -8 OFFCURVE",
"536 112 OFFCURVE",
"536 282 CURVE SMOOTH",
"536 414 OFFCURVE",
"467 507 OFFCURVE",
"343 507 CURVE SMOOTH",
"247 507 OFFCURVE",
"173 441 OFFCURVE",
"141 335 CURVE",
"156 321 LINE",
"161 499 LINE",
"161 740 LINE",
"83 740 LINE",
"83 0 LINE"
);
},
{
closed = 1;
nodes = (
"209 64 OFFCURVE",
"160 120 OFFCURVE",
"160 213 CURVE SMOOTH",
"160 340 OFFCURVE",
"235 436 OFFCURVE",
"332 436 CURVE SMOOTH",
"408 436 OFFCURVE",
"455 377 OFFCURVE",
"455 277 CURVE SMOOTH",
"455 149 OFFCURVE",
"390 64 OFFCURVE",
"290 64 CURVE SMOOTH"
);
}
);
width = 596;
},
{
background = {
paths = (
{
closed = 1;
nodes = (
"174 0 LINE",
"192 84 LINE",
"178 64 LINE",
"202 21 OFFCURVE",
"257 -10 OFFCURVE",
"328 -10 CURVE SMOOTH",
"478 -10 OFFCURVE",
"593 108 OFFCURVE",
"593 283 CURVE SMOOTH",
"593 418 OFFCURVE",
"519 516 OFFCURVE",
"382 516 CURVE SMOOTH",
"280 516 OFFCURVE",
"208 457 OFFCURVE",
"178 351 CURVE",
"206 327 LINE",
"216 506 LINE",
"69 506 LINE",
"69 0 LINE"
);
},
{
closed = 1;
nodes = (
"253 118 OFFCURVE",
"215 160 OFFCURVE",
"215 229 CURVE SMOOTH",
"215 320 OFFCURVE",
"271 389 OFFCURVE",
"344 389 CURVE SMOOTH",
"402 389 OFFCURVE",
"438 347 OFFCURVE",
"438 273 CURVE SMOOTH",
"438 182 OFFCURVE",
"390 118 OFFCURVE",
"313 118 CURVE SMOOTH"
);
}
);
};
layerId = "014D4A40-7C7F-4023-B30E-1F55CE5EA091";
paths = (
{
closed = 1;
nodes = (
"174 0 LINE",
"192 84 LINE",
"178 64 LINE",
"202 21 OFFCURVE",
"257 -10 OFFCURVE",
"328 -10 CURVE SMOOTH",
"478 -10 OFFCURVE",
"593 108 OFFCURVE",
"593 283 CURVE SMOOTH",
"593 418 OFFCURVE",
"519 516 OFFCURVE",
"382 516 CURVE SMOOTH",
"280 516 OFFCURVE",
"208 457 OFFCURVE",
"178 351 CURVE",
"206 329 LINE",
"215 508 LINE",
"215 740 LINE",
"69 740 LINE",
"69 0 LINE"
);
},
{
closed = 1;
nodes = (
"253 118 OFFCURVE",
"215 160 OFFCURVE",
"215 229 CURVE SMOOTH",
"215 320 OFFCURVE",
"271 389 OFFCURVE",
"344 389 CURVE SMOOTH",
"402 389 OFFCURVE",
"438 347 OFFCURVE",
"438 273 CURVE SMOOTH",
"438 182 OFFCURVE",
"390 118 OFFCURVE",
"314 118 CURVE SMOOTH"
);
}
);
width = 638;
}
);
leftMetricsKey = h;
note = b;
rightKerningGroup = o;
rightMetricsKey = o;
unicode = 0062;
},
{
color = 3;
glyphname = c;
lastChange = "2019-03-20 09:58:16 +0000";
layers = (
{
background = {
paths = (
{
closed = 1;
nodes = (
"150 507 OFFCURVE",
"55 392 OFFCURVE",
"55 240 CURVE SMOOTH",
"55 87 OFFCURVE",
"140 -8 OFFCURVE",
"281 -8 CURVE SMOOTH",
"422 -8 OFFCURVE",
"518 107 OFFCURVE",
"518 259 CURVE SMOOTH",
"518 412 OFFCURVE",
"433 507 OFFCURVE",
"295 507 CURVE SMOOTH"
);
},
{
closed = 1;
nodes = (
"189 63 OFFCURVE",
"135 126 OFFCURVE",
"135 240 CURVE SMOOTH",
"135 356 OFFCURVE",
"198 436 OFFCURVE",
"296 436 CURVE SMOOTH",
"384 436 OFFCURVE",
"438 373 OFFCURVE",
"438 259 CURVE SMOOTH",
"438 142 OFFCURVE",
"375 63 OFFCURVE",
"281 63 CURVE SMOOTH"
);
},
{
closed = 1;
nodes = (
"978 -8 OFFCURVE",
"1044 18 OFFCURVE",
"1093 87 CURVE",
"1034 140 LINE",
"997 83 OFFCURVE",
"952 66 OFFCURVE",
"898 66 CURVE SMOOTH",
"798 66 OFFCURVE",
"737 123 OFFCURVE",
"737 240 CURVE SMOOTH",
"737 357 OFFCURVE",
"804 434 OFFCURVE",
"906 434 CURVE SMOOTH",
"952 434 OFFCURVE",
"997 418 OFFCURVE",
"1034 361 CURVE",
"1093 412 LINE",
"1045 486 OFFCURVE",
"978 507 OFFCURVE",
"908 507 CURVE SMOOTH",
"752 507 OFFCURVE",
"655 394 OFFCURVE",
"655 240 CURVE SMOOTH",
"655 84 OFFCURVE",
"745 -8 OFFCURVE",
"895 -8 CURVE SMOOTH"
);
}
);
};
guideLines = (
{
angle = 90;
position = "{485, 142}";
}
);
layerId = "A3B50665-EA37-4AC6-885C-1233CA61B6BD";
paths = (
{
closed = 1;
nodes = (
"379 -8 OFFCURVE",
"443 24 OFFCURVE",
"484 89 CURVE",
"427 134 LINE",
"397 86 OFFCURVE",
"351 65 OFFCURVE",
"298 65 CURVE SMOOTH",
"197 65 OFFCURVE",
"142 126 OFFCURVE",
"142 240 CURVE SMOOTH",
"142 358 OFFCURVE",
"207 435 OFFCURVE",
"305 435 CURVE SMOOTH",
"359 435 OFFCURVE",
"398 413 OFFCURVE",
"425 365 CURVE",
"484 410 LINE",
"446 475 OFFCURVE",
"388 507 OFFCURVE",
"307 507 CURVE SMOOTH",
"160 507 OFFCURVE",
"60 399 OFFCURVE",
"60 240 CURVE SMOOTH",
"60 84 OFFCURVE",
"148 -8 OFFCURVE",
"295 -8 CURVE SMOOTH"
);
}
);
width = 504;
},
{
background = {
paths = (
{
closed = 1;
nodes = (
"150 516 OFFCURVE",
"45 399 OFFCURVE",
"45 241 CURVE SMOOTH",
"45 87 OFFCURVE",
"137 -10 OFFCURVE",
"290 -10 CURVE SMOOTH",
"452 -10 OFFCURVE",
"558 107 OFFCURVE",
"558 265 CURVE SMOOTH",
"558 419 OFFCURVE",
"465 516 OFFCURVE",
"312 516 CURVE SMOOTH"
);
},
{
closed = 1;
nodes = (
"232 117 OFFCURVE",
"195 163 OFFCURVE",
"195 241 CURVE SMOOTH",
"195 331 OFFCURVE",
"239 389 OFFCURVE",
"308 389 CURVE SMOOTH",
"370 389 OFFCURVE",
"408 343 OFFCURVE",
"408 265 CURVE SMOOTH",
"408 175 OFFCURVE",
"364 117 OFFCURVE",
"297 117 CURVE SMOOTH"
);
},
{
closed = 1;
nodes = (
"-314 -10 OFFCURVE",
"-237 18 OFFCURVE",
"-186 95 CURVE",
"-286 176 LINE",
"-310 136 OFFCURVE",
"-346 120 OFFCURVE",
"-386 120 CURVE SMOOTH",
"-462 120 OFFCURVE",
"-503 164 OFFCURVE",
"-503 246 CURVE SMOOTH",
"-503 331 OFFCURVE",
"-452 387 OFFCURVE",
"-381 387 CURVE SMOOTH",
"-339 387 OFFCURVE",
"-309 368 OFFCURVE",
"-288 332 CURVE",
"-185 410 LINE",
"-229 484 OFFCURVE",
"-295 516 OFFCURVE",
"-384 516 CURVE SMOOTH",
"-545 516 OFFCURVE",
"-655 406 OFFCURVE",
"-655 244 CURVE SMOOTH",
"-655 84 OFFCURVE",
"-558 -10 OFFCURVE",
"-397 -10 CURVE SMOOTH"
);
}
);
};
layerId = "014D4A40-7C7F-4023-B30E-1F55CE5EA091";
paths = (
{
closed = 1;
nodes = (
"387 -10 OFFCURVE",
"464 18 OFFCURVE",
"510 95 CURVE",
"410 176 LINE",
"387 136 OFFCURVE",
"351 120 OFFCURVE",
"312 120 CURVE SMOOTH",
"237 120 OFFCURVE",
"197 164 OFFCURVE",
"197 246 CURVE SMOOTH",
"197 331 OFFCURVE",
"247 387 OFFCURVE",
"317 387 CURVE SMOOTH",
"358 387 OFFCURVE",
"387 368 OFFCURVE",
"408 332 CURVE",
"511 410 LINE",
"467 484 OFFCURVE",
"402 516 OFFCURVE",
"314 516 CURVE SMOOTH",
"154 516 OFFCURVE",
"45 406 OFFCURVE",
"45 244 CURVE SMOOTH",
"45 84 OFFCURVE",
"145 -10 OFFCURVE",
"301 -10 CURVE SMOOTH"
);
}
);
width = 519;
}
);
leftKerningGroup = o;
leftMetricsKey = o;
unicode = 0063;
},
{
color = 3;
glyphname = d;
lastChange = "2019-03-20 09:58:16 +0000";
layers = (
{
background = {
paths = (
{
closed = 1;
nodes = (
"435 740 LINE",
"435 498 LINE",
"439 320 LINE",
"449 418 LINE",
"432 470 OFFCURVE",
"375 507 OFFCURVE",
"306 507 CURVE SMOOTH",
"161 507 OFFCURVE",
"60 388 OFFCURVE",
"60 217 CURVE SMOOTH",
"60 85 OFFCURVE",
"129 -8 OFFCURVE",
"253 -8 CURVE SMOOTH",
"349 -8 OFFCURVE",
"423 58 OFFCURVE",
"455 164 CURVE",
"439 178 LINE",
"434 0 LINE",
"513 0 LINE",
"513 740 LINE"
);
},
{
closed = 1;
nodes = (
"387 436 OFFCURVE",
"436 380 OFFCURVE",
"436 287 CURVE SMOOTH",
"436 160 OFFCURVE",
"361 64 OFFCURVE",
"264 64 CURVE SMOOTH",
"188 64 OFFCURVE",
"141 123 OFFCURVE",
"141 223 CURVE SMOOTH",
"141 351 OFFCURVE",
"206 436 OFFCURVE",
"306 436 CURVE SMOOTH"
);
}
);
};
layerId = "A3B50665-EA37-4AC6-885C-1233CA61B6BD";
paths = (
{
closed = 1;
nodes = (
"435 740 LINE",
"435 498 LINE",
"437 407 LINE",
"449 418 LINE",
"432 470 OFFCURVE",
"375 507 OFFCURVE",
"306 507 CURVE SMOOTH",
"161 507 OFFCURVE",
"60 388 OFFCURVE",
"60 217 CURVE SMOOTH",
"60 85 OFFCURVE",
"129 -8 OFFCURVE",
"253 -8 CURVE SMOOTH",
"349 -8 OFFCURVE",
"423 58 OFFCURVE",
"455 164 CURVE",
"439 178 LINE",
"434 0 LINE",
"513 0 LINE",
"513 740 LINE"
);
},
{
closed = 1;
nodes = (
"387 436 OFFCURVE",
"436 380 OFFCURVE",
"436 287 CURVE SMOOTH",
"436 160 OFFCURVE",
"361 64 OFFCURVE",
"264 64 CURVE SMOOTH",
"188 64 OFFCURVE",
"141 123 OFFCURVE",
"141 223 CURVE SMOOTH",
"141 351 OFFCURVE",
"206 436 OFFCURVE",
"306 436 CURVE SMOOTH"
);
}
);
width = 596;
},
{
background = {
paths = (
{
closed = 1;
nodes = (
"423 740 LINE",
"423 508 LINE",
"431 329 LINE",
"460 436 LINE",
"436 483 OFFCURVE",
"381 516 OFFCURVE",
"310 516 CURVE SMOOTH",
"158 516 OFFCURVE",
"45 398 OFFCURVE",
"45 223 CURVE SMOOTH",
"45 88 OFFCURVE",
"116 -10 OFFCURVE",
"256 -10 CURVE SMOOTH",
"358 -10 OFFCURVE",
"430 49 OFFCURVE",
"460 155 CURVE",
"432 179 LINE",
"422 0 LINE",
"569 0 LINE",
"569 740 LINE"
);
},
{
closed = 1;
nodes = (
"385 389 OFFCURVE",
"423 347 OFFCURVE",
"423 278 CURVE SMOOTH",
"423 187 OFFCURVE",
"367 118 OFFCURVE",
"294 118 CURVE SMOOTH",
"236 118 OFFCURVE",
"200 160 OFFCURVE",
"200 234 CURVE SMOOTH",
"200 325 OFFCURVE",
"248 389 OFFCURVE",
"325 389 CURVE SMOOTH"
);
}
);
};
layerId = "014D4A40-7C7F-4023-B30E-1F55CE5EA091";
paths = (
{
closed = 1;
nodes = (
"423 740 LINE",
"423 508 LINE",
"427 418 LINE",
"460 436 LINE",
"436 483 OFFCURVE",
"381 516 OFFCURVE",
"310 516 CURVE SMOOTH",
"158 516 OFFCURVE",
"45 398 OFFCURVE",
"45 223 CURVE SMOOTH",
"45 88 OFFCURVE",
"116 -10 OFFCURVE",
"256 -10 CURVE SMOOTH",
"358 -10 OFFCURVE",
"430 49 OFFCURVE",
"460 155 CURVE",
"432 179 LINE",
"422 0 LINE",
"569 0 LINE",
"569 740 LINE"
);
},
{
closed = 1;
nodes = (
"385 389 OFFCURVE",
"423 347 OFFCURVE",
"423 278 CURVE SMOOTH",
"423 187 OFFCURVE",
"367 118 OFFCURVE",
"294 118 CURVE SMOOTH",
"236 118 OFFCURVE",
"200 160 OFFCURVE",
"200 234 CURVE SMOOTH",
"200 325 OFFCURVE",
"248 389 OFFCURVE",
"325 389 CURVE SMOOTH"
);
}
);
width = 638;
}
);
leftKerningGroup = o;
leftMetricsKey = o;
note = d;
rightMetricsKey = "=|h";
unicode = 0064;
},
{
color = 3;
glyphname = eth;
lastChange = "2019-03-18 22:13:39 +0000";
layers = (
{
background = {
paths = (
{
closed = 1;
nodes = (
"1023 -8 OFFCURVE",
"1114 107 OFFCURVE",
"1114 293 CURVE SMOOTH",
"1114 523 OFFCURVE",
"1005 675 OFFCURVE",
"785 752 CURVE",
"759 691 LINE",
"936 629 OFFCURVE",
"1029 508 OFFCURVE",
"1037 334 CURVE",
"1062 324 LINE",
"1048 414 OFFCURVE",
"974 470 OFFCURVE",
"882 470 CURVE SMOOTH",
"751 470 OFFCURVE",
"656 367 OFFCURVE",
"656 224 CURVE SMOOTH",
"656 79 OFFCURVE",
"739 -8 OFFCURVE",
"876 -8 CURVE SMOOTH"
);
},
{
closed = 1;
nodes = (
"787 62 OFFCURVE",
"736 121 OFFCURVE",
"736 224 CURVE SMOOTH",
"736 332 OFFCURVE",
"798 403 OFFCURVE",
"892 403 CURVE SMOOTH",
"979 403 OFFCURVE",
"1031 342 OFFCURVE",
"1031 241 CURVE SMOOTH",
"1031 133 OFFCURVE",
"970 62 OFFCURVE",
"878 62 CURVE SMOOTH"
);
},
{
closed = 1;
nodes = (
"1098 646 LINE",
"1077 702 LINE",
"757 574 LINE",
"778 518 LINE"
);
},
{
closed = 1;
nodes = (
"434 461 LINE",
"425 379 LINE",
"434 381 LINE",
"417 433 OFFCURVE",
"360 470 OFFCURVE",
"291 470 CURVE SMOOTH",
"146 470 OFFCURVE",
"45 351 OFFCURVE",
"45 180 CURVE SMOOTH",
"45 48 OFFCURVE",
"114 -45 OFFCURVE",
"238 -45 CURVE SMOOTH",
"334 -45 OFFCURVE",
"408 21 OFFCURVE",
"440 127 CURVE",
"424 141 LINE",
"419 -37 LINE",
"498 -37 LINE",
"498 461 LINE"
);
},
{
closed = 1;
nodes = (
"372 399 OFFCURVE",
"421 343 OFFCURVE",
"421 250 CURVE SMOOTH",
"421 123 OFFCURVE",
"346 27 OFFCURVE",
"249 27 CURVE SMOOTH",
"173 27 OFFCURVE",
"126 86 OFFCURVE",
"126 186 CURVE SMOOTH",
"126 314 OFFCURVE",
"191 399 OFFCURVE",
"291 399 CURVE SMOOTH"
);
}
);
};
layerId = "A3B50665-EA37-4AC6-885C-1233CA61B6BD";
paths = (
{
closed = 1;
nodes = (
"423 -8 OFFCURVE",
"514 117 OFFCURVE",
"514 293 CURVE SMOOTH",
"514 523 OFFCURVE",
"408 675 OFFCURVE",
"188 752 CURVE",
"162 691 LINE",
"339 629 OFFCURVE",
"428 508 OFFCURVE",
"436 334 CURVE",
"458 324 LINE",
"444 416 OFFCURVE",
"374 470 OFFCURVE",
"283 470 CURVE SMOOTH",
"157 470 OFFCURVE",
"56 364 OFFCURVE",
"56 218 CURVE SMOOTH",
"56 79 OFFCURVE",
"141 -8 OFFCURVE",
"275 -8 CURVE SMOOTH"
);
},
{
closed = 1;
nodes = (
"184 63 OFFCURVE",
"136 124 OFFCURVE",
"136 218 CURVE SMOOTH",
"136 329 OFFCURVE",
"205 401 OFFCURVE",
"293 401 CURVE SMOOTH",
"379 401 OFFCURVE",
"431 342 OFFCURVE",
"431 241 CURVE SMOOTH",
"431 138 OFFCURVE",
"365 63 OFFCURVE",
"280 63 CURVE SMOOTH"
);
},
{
closed = 1;
nodes = (
"496 653 LINE",
"477 702 LINE",
"143 574 LINE",
"162 525 LINE"
);
}
);
width = 567;
},
{
background = {
paths = (
{
closed = 1;
nodes = (
"1075 -10 OFFCURVE",
"1179 125 OFFCURVE",
"1179 307 CURVE SMOOTH",
"1179 522 OFFCURVE",
"1039 688 OFFCURVE",
"798 756 CURVE",
"751 648 LINE",
"915 603 OFFCURVE",
"1018 494 OFFCURVE",
"1032 356 CURVE",
"1071 341 LINE",
"1044 426 OFFCURVE",
"982 470 OFFCURVE",
"886 470 CURVE SMOOTH",
"744 470 OFFCURVE",
"639 367 OFFCURVE",
"639 223 CURVE SMOOTH",
"639 82 OFFCURVE",
"734 -10 OFFCURVE",
"894 -10 CURVE SMOOTH"
);
},
{
closed = 1;
nodes = (
"829 112 OFFCURVE",
"790 157 OFFCURVE",
"790 221 CURVE SMOOTH",
"790 300 OFFCURVE",
"840 353 OFFCURVE",
"913 353 CURVE SMOOTH",
"980 353 OFFCURVE",
"1020 311 OFFCURVE",
"1020 242 CURVE SMOOTH",
"1020 174 OFFCURVE",
"972 112 OFFCURVE",
"900 112 CURVE SMOOTH"
);
},
{
closed = 1;
nodes = (
"1165 600 LINE",
"1145 680 LINE",
"745 571 LINE",
"765 491 LINE"
);
},
{
closed = 1;
nodes = (
"448 467 LINE",
"430 383 LINE",
"444 403 LINE",
"420 446 OFFCURVE",
"365 477 OFFCURVE",
"294 477 CURVE SMOOTH",
"144 477 OFFCURVE",
"29 359 OFFCURVE",
"29 184 CURVE SMOOTH",
"29 49 OFFCURVE",
"103 -49 OFFCURVE",
"240 -49 CURVE SMOOTH",
"342 -49 OFFCURVE",
"414 10 OFFCURVE",
"444 116 CURVE",
"416 140 LINE",
"406 -39 LINE",
"553 -39 LINE",
"553 467 LINE"
);
},
{
closed = 1;
nodes = (
"369 350 OFFCURVE",
"407 308 OFFCURVE",
"407 239 CURVE SMOOTH",
"407 148 OFFCURVE",
"351 79 OFFCURVE",
"278 79 CURVE SMOOTH",
"220 79 OFFCURVE",
"184 121 OFFCURVE",
"184 195 CURVE SMOOTH",
"184 286 OFFCURVE",
"232 350 OFFCURVE",
"309 350 CURVE SMOOTH"
);
}
);
};
layerId = "014D4A40-7C7F-4023-B30E-1F55CE5EA091";
paths = (
{
closed = 1;
nodes = (
"475 -10 OFFCURVE",
"579 125 OFFCURVE",
"579 307 CURVE SMOOTH",
"579 522 OFFCURVE",
"439 688 OFFCURVE",
"198 756 CURVE",
"151 648 LINE",
"315 603 OFFCURVE",
"418 494 OFFCURVE",
"432 356 CURVE",
"472 331 LINE",
"443 426 OFFCURVE",
"380 470 OFFCURVE",
"286 470 CURVE SMOOTH",
"144 470 OFFCURVE",
"39 367 OFFCURVE",
"39 223 CURVE SMOOTH",
"39 82 OFFCURVE",
"134 -10 OFFCURVE",
"294 -10 CURVE SMOOTH"
);
},
{
closed = 1;
nodes = (
"232 115 OFFCURVE",
"190 158 OFFCURVE",
"190 224 CURVE SMOOTH",
"190 301 OFFCURVE",
"239 350 OFFCURVE",
"311 350 CURVE SMOOTH",
"379 350 OFFCURVE",
"420 308 OFFCURVE",
"420 242 CURVE SMOOTH",
"420 174 OFFCURVE",
"372 115 OFFCURVE",
"300 115 CURVE SMOOTH"
);
},
{
closed = 1;
nodes = (
"565 600 LINE",
"545 680 LINE",
"145 571 LINE",
"165 491 LINE"
);
}
);
width = 615;
}
);
unicode = 00F0;
},
{
color = 3;
glyphname = e;
lastChange = "2019-03-20 09:58:16 +0000";
layers = (
{
background = {
paths = (
{
closed = 1;
nodes = (
"1076 -8 OFFCURVE",
"1134 12 OFFCURVE",
"1168 42 CURVE",
"1140 105 LINE",
"1101 78 OFFCURVE",
"1057 64 OFFCURVE",
"1007 64 CURVE SMOOTH",
"901 64 OFFCURVE",
"833 123 OFFCURVE",
"833 231 CURVE SMOOTH",
"833 258 LINE SMOOTH",
"833 359 OFFCURVE",
"898 442 OFFCURVE",
"994 442 CURVE SMOOTH",
"1077 442 OFFCURVE",
"1135 391 OFFCURVE",
"1124 270 CURVE",
"1144 284 LINE",
"800 284 LINE",
"800 220 LINE",
"1192 220 LINE",
"1214 410 OFFCURVE",
"1133 507 OFFCURVE",
"995 507 CURVE SMOOTH",
"870 507 OFFCURVE",
"755 410 OFFCURVE",
"755 238 CURVE SMOOTH",
"755 79 OFFCURVE",
"848 -8 OFFCURVE",
"1003 -8 CURVE SMOOTH"
);
},
{
closed = 1;
nodes = (
"391 -8 OFFCURVE",
"455 24 OFFCURVE",
"500 89 CURVE",
"443 134 LINE",
"411 86 OFFCURVE",
"356 64 OFFCURVE",
"306 64 CURVE SMOOTH",
"198 64 OFFCURVE",
"135 123 OFFCURVE",
"134 231 CURVE SMOOTH",
"134 258 LINE SMOOTH",
"133 359 OFFCURVE",
"196 442 OFFCURVE",
"292 442 CURVE SMOOTH",
"375 442 OFFCURVE",
"434 391 OFFCURVE",
"424 272 CURVE",
"444 286 LINE",
"100 286 LINE",
"100 222 LINE",
"492 222 LINE",
"513 410 OFFCURVE",
"431 507 OFFCURVE",
"293 507 CURVE SMOOTH",
"154 507 OFFCURVE",
"54 399 OFFCURVE",
"55 240 CURVE SMOOTH",
"56 84 OFFCURVE",
"149 -8 OFFCURVE",
"303 -8 CURVE SMOOTH"
);
}
);
};
layerId = "A3B50665-EA37-4AC6-885C-1233CA61B6BD";
paths = (
{
closed = 1;
nodes = (
"391 -8 OFFCURVE",
"455 24 OFFCURVE",
"500 89 CURVE",
"448 134 LINE",
"413 86 OFFCURVE",
"358 64 OFFCURVE",
"311 64 CURVE SMOOTH",
"203 64 OFFCURVE",
"140 123 OFFCURVE",
"139 231 CURVE SMOOTH",
"139 258 LINE SMOOTH",
"138 359 OFFCURVE",
"201 442 OFFCURVE",
"297 442 CURVE SMOOTH",
"380 442 OFFCURVE",
"439 391 OFFCURVE",
"429 272 CURVE",
"449 286 LINE",
"105 286 LINE",
"105 222 LINE",
"497 222 LINE",
"518 410 OFFCURVE",
"436 507 OFFCURVE",
"298 507 CURVE SMOOTH",
"160 507 OFFCURVE",
"60 400 OFFCURVE",
"60 242 CURVE SMOOTH",
"60 85 OFFCURVE",
"153 -8 OFFCURVE",
"308 -8 CURVE SMOOTH"
);
}
);
width = 552;
},
{
background = {
paths = (
{
closed = 1;
nodes = (
"417 -10 OFFCURVE",
"479 24 OFFCURVE",
"524 83 CURVE",
"437 166 LINE",
"408 134 OFFCURVE",
"363 117 OFFCURVE",
"326 117 CURVE SMOOTH",
"241 117 OFFCURVE",
"194 163 OFFCURVE",
"193 225 CURVE SMOOTH",
"193 266 LINE SMOOTH",
"192 354 OFFCURVE",
"236 411 OFFCURVE",
"305 411 CURVE SMOOTH",
"366 411 OFFCURVE",
"403 375 OFFCURVE",
"394 294 CURVE",
"426 309 LINE",
"155 309 LINE",
"155 212 LINE",
"518 212 LINE",
"541 396 OFFCURVE",
"465 516 OFFCURVE",
"302 516 CURVE SMOOTH",
"155 516 OFFCURVE",
"45 407 OFFCURVE",
"45 246 CURVE SMOOTH",
"45 85 OFFCURVE",
"155 -10 OFFCURVE",
"319 -10 CURVE SMOOTH"
);
}
);
};
layerId = "014D4A40-7C7F-4023-B30E-1F55CE5EA091";
paths = (
{
closed = 1;
nodes = (
"417 -10 OFFCURVE",
"479 24 OFFCURVE",
"524 83 CURVE",
"441 163 LINE",
"412 131 OFFCURVE",
"367 114 OFFCURVE",
"330 114 CURVE SMOOTH",
"242 114 OFFCURVE",
"194 163 OFFCURVE",
"193 225 CURVE SMOOTH",
"193 266 LINE SMOOTH",
"192 354 OFFCURVE",
"236 410 OFFCURVE",
"305 410 CURVE SMOOTH",
"366 410 OFFCURVE",
"403 375 OFFCURVE",
"394 294 CURVE",
"426 309 LINE",
"155 309 LINE",
"155 212 LINE",
"518 212 LINE",
"541 396 OFFCURVE",
"465 516 OFFCURVE",
"302 516 CURVE SMOOTH",
"155 516 OFFCURVE",
"45 407 OFFCURVE",
"45 246 CURVE SMOOTH",
"45 85 OFFCURVE",
"151 -10 OFFCURVE",
"319 -10 CURVE SMOOTH"
);
}
);
width = 568;
}
);
leftKerningGroup = o;
leftMetricsKey = o;
note = e;
unicode = 0065;
},
{
color = 3;
glyphname = f;
lastChange = "2019-03-14 10:23:03 +0000";
layers = (
{
background = {
paths = (
{
closed = 1;
nodes = (
"180 0 LINE",
"180 454 LINE",
"179 489 LINE",
"179 555 LINE SMOOTH",
"179 638 OFFCURVE",
"220 683 OFFCURVE",
"288 683 CURVE SMOOTH",
"341 683 OFFCURVE",
"375 655 OFFCURVE",
"379 610 CURVE",
"444 618 LINE",
"437 702 OFFCURVE",
"382 750 OFFCURVE",
"289 750 CURVE SMOOTH",
"177 750 OFFCURVE",
"102 672 OFFCURVE",
"102 547 CURVE SMOOTH",
"102 0 LINE"
);
},
{
closed = 1;
nodes = (
"3 432 LINE",
"347 432 LINE",
"347 498 LINE",
"3 498 LINE"
);
}
);
};
layerId = "A3B50665-EA37-4AC6-885C-1233CA61B6BD";
paths = (
{
closed = 1;
nodes = (
"185 0 LINE",
"185 454 LINE",
"184 489 LINE",
"184 540 LINE SMOOTH",
"184 636 OFFCURVE",
"225 683 OFFCURVE",
"293 683 CURVE SMOOTH",
"346 683 OFFCURVE",
"380 655 OFFCURVE",
"384 610 CURVE",
"449 618 LINE",
"442 702 OFFCURVE",
"387 750 OFFCURVE",
"294 750 CURVE SMOOTH",
"182 750 OFFCURVE",
"107 670 OFFCURVE",
"107 532 CURVE SMOOTH",
"107 0 LINE"
);
},
{
closed = 1;
nodes = (
"8 432 LINE",
"352 432 LINE",
"352 498 LINE",
"8 498 LINE"
);
}
);
width = 360;
},
{
background = {
paths = (
{
closed = 1;
nodes = (
"239 0 LINE",
"239 419 LINE",
"237 487 LINE",
"237 540 LINE SMOOTH",
"237 596 OFFCURVE",
"267 627 OFFCURVE",
"311 627 CURVE SMOOTH",
"347 627 OFFCURVE",
"370 611 OFFCURVE",
"374 582 CURVE",
"500 597 LINE",
"485 701 OFFCURVE",
"423 750 OFFCURVE",
"317 750 CURVE SMOOTH",
"187 750 OFFCURVE",
"93 662 OFFCURVE",
"93 535 CURVE SMOOTH",
"93 0 LINE"
);
},
{
closed = 1;
nodes = (
"-2 387 LINE",
"377 387 LINE",
"377 510 LINE",
"-2 510 LINE"
);
}
);
};
layerId = "014D4A40-7C7F-4023-B30E-1F55CE5EA091";
paths = (
{
closed = 1;
nodes = (
"239 0 LINE",
"239 419 LINE",
"237 487 LINE",
"237 539 LINE SMOOTH",
"237 596 OFFCURVE",
"267 627 OFFCURVE",
"315 627 CURVE SMOOTH",
"347 627 OFFCURVE",
"370 611 OFFCURVE",
"374 582 CURVE",
"500 597 LINE",
"485 701 OFFCURVE",
"423 750 OFFCURVE",
"317 750 CURVE SMOOTH",
"187 750 OFFCURVE",
"93 662 OFFCURVE",
"93 525 CURVE SMOOTH",
"93 0 LINE"
);
},
{
closed = 1;
nodes = (
"-2 389 LINE",
"377 389 LINE",
"377 510 LINE",
"-2 510 LINE"
);
}
);
width = 393;
}
);
unicode = 0066;
},
{
color = 3;
glyphname = g;
lastChange = "2019-03-20 09:58:16 +0000";
layers = (
{
background = {
paths = (
{
closed = 1;
nodes = (
"1028 -210 OFFCURVE",
"1117 -117 OFFCURVE",
"1117 70 CURVE SMOOTH",
"1117 498 LINE",
"1053 498 LINE",
"1045 416 LINE",
"1053 420 LINE",
"1037 471 OFFCURVE",
"976 507 OFFCURVE",
"908 507 CURVE SMOOTH",
"762 507 OFFCURVE",
"660 390 OFFCURVE",
"660 223 CURVE SMOOTH",
"660 93 OFFCURVE",
"730 2 OFFCURVE",
"856 2 CURVE SMOOTH",
"952 2 OFFCURVE",
"1027 65 OFFCURVE",
"1059 167 CURVE",
"1044 154 LINE",
"1042 126 OFFCURVE",
"1040 88 OFFCURVE",
"1040 70 CURVE SMOOTH",
"1040 -79 OFFCURVE",
"986 -138 OFFCURVE",
"852 -138 CURVE SMOOTH",
"801 -138 OFFCURVE",
"748 -127 OFFCURVE",
"702 -106 CURVE",
"682 -176 LINE",
"730 -199 OFFCURVE",
"795 -210 OFFCURVE",
"850 -210 CURVE SMOOTH"
);
},
{
closed = 1;
nodes = (
"990 436 OFFCURVE",
"1040 382 OFFCURVE",
"1040 291 CURVE SMOOTH",
"1040 167 OFFCURVE",
"964 74 OFFCURVE",
"866 74 CURVE SMOOTH",
"789 74 OFFCURVE",
"741 131 OFFCURVE",
"741 229 CURVE SMOOTH",
"741 353 OFFCURVE",
"807 436 OFFCURVE",
"908 436 CURVE SMOOTH"
);
},
{
closed = 1;
nodes = (
"453 498 LINE",
"444 416 LINE",
"453 418 LINE",
"436 470 OFFCURVE",
"379 507 OFFCURVE",
"310 507 CURVE SMOOTH",
"165 507 OFFCURVE",
"64 388 OFFCURVE",
"64 217 CURVE SMOOTH",
"64 85 OFFCURVE",
"133 -8 OFFCURVE",
"257 -8 CURVE SMOOTH",
"353 -8 OFFCURVE",
"427 58 OFFCURVE",
"459 164 CURVE",
"443 178 LINE",
"438 0 LINE",
"517 0 LINE",
"517 498 LINE"
);
},
{
closed = 1;
nodes = (
"391 436 OFFCURVE",
"440 380 OFFCURVE",
"440 287 CURVE SMOOTH",
"440 160 OFFCURVE",
"365 64 OFFCURVE",
"268 64 CURVE SMOOTH",
"192 64 OFFCURVE",
"145 123 OFFCURVE",
"145 223 CURVE SMOOTH",
"145 351 OFFCURVE",
"210 436 OFFCURVE",
"310 436 CURVE SMOOTH"
);
}
);
};
layerId = "A3B50665-EA37-4AC6-885C-1233CA61B6BD";
paths = (
{
closed = 1;
nodes = (
"429 -210 OFFCURVE",
"517 -116 OFFCURVE",
"517 70 CURVE SMOOTH",
"517 498 LINE",
"453 498 LINE",
"444 416 LINE",
"453 418 LINE",
"436 470 OFFCURVE",
"379 507 OFFCURVE",
"308 507 CURVE SMOOTH",
"162 507 OFFCURVE",
"60 390 OFFCURVE",
"60 223 CURVE SMOOTH",
"60 93 OFFCURVE",
"130 2 OFFCURVE",
"256 2 CURVE SMOOTH",
"353 2 OFFCURVE",
"427 68 OFFCURVE",
"459 174 CURVE",
"443 188 LINE",
"440 58 LINE SMOOTH",
"437 -80 OFFCURVE",
"389 -139 OFFCURVE",
"262 -139 CURVE SMOOTH",
"213 -139 OFFCURVE",
"160 -127 OFFCURVE",
"116 -105 CURVE",
"95 -175 LINE",
"138 -199 OFFCURVE",
"203 -210 OFFCURVE",
"260 -210 CURVE SMOOTH"
);
},
{
closed = 1;
nodes = (
"390 436 OFFCURVE",
"440 382 OFFCURVE",
"440 291 CURVE SMOOTH",
"440 167 OFFCURVE",
"364 74 OFFCURVE",
"266 74 CURVE SMOOTH",
"189 74 OFFCURVE",
"141 131 OFFCURVE",
"141 229 CURVE SMOOTH",
"141 353 OFFCURVE",
"207 436 OFFCURVE",
"308 436 CURVE SMOOTH"
);
}
);
width = 600;
},
{
background = {
paths = (
{
closed = 1;
nodes = (
"468 525 LINE",
"450 441 LINE",
"464 461 LINE",
"440 504 OFFCURVE",
"385 535 OFFCURVE",
"314 535 CURVE SMOOTH",
"164 535 OFFCURVE",
"49 417 OFFCURVE",
"49 242 CURVE SMOOTH",
"49 107 OFFCURVE",
"123 9 OFFCURVE",
"260 9 CURVE SMOOTH",
"362 9 OFFCURVE",
"434 68 OFFCURVE",
"464 174 CURVE",
"436 198 LINE",
"426 19 LINE",
"573 19 LINE",
"573 525 LINE"
);
},
{
closed = 1;
nodes = (
"389 408 OFFCURVE",
"427 366 OFFCURVE",
"427 297 CURVE SMOOTH",
"427 206 OFFCURVE",
"371 137 OFFCURVE",
"298 137 CURVE SMOOTH",
"240 137 OFFCURVE",
"204 179 OFFCURVE",
"204 253 CURVE SMOOTH",
"204 344 OFFCURVE",
"252 408 OFFCURVE",
"329 408 CURVE SMOOTH"
);
}
);
};
layerId = "014D4A40-7C7F-4023-B30E-1F55CE5EA091";
paths = (
{
closed = 1;
nodes = (
"450 -210 OFFCURVE",
"573 -114 OFFCURVE",
"573 96 CURVE SMOOTH",
"573 506 LINE",
"468 506 LINE",
"450 422 LINE",
"464 442 LINE",
"440 485 OFFCURVE",
"384 516 OFFCURVE",
"313 516 CURVE SMOOTH",
"159 516 OFFCURVE",
"45 402 OFFCURVE",
"45 234 CURVE SMOOTH",
"45 103 OFFCURVE",
"117 9 OFFCURVE",
"258 9 CURVE SMOOTH",
"362 9 OFFCURVE",
"434 68 OFFCURVE",
"464 174 CURVE",
"436 198 LINE",
"429 79 LINE SMOOTH",
"422 -32 OFFCURVE",
"380 -82 OFFCURVE",
"267 -82 CURVE SMOOTH",
"203 -82 OFFCURVE",
"153 -67 OFFCURVE",
"108 -44 CURVE",
"73 -169 LINE",
"118 -198 OFFCURVE",
"198 -210 OFFCURVE",
"259 -210 CURVE SMOOTH"
);
},
{
closed = 1;
nodes = (
"388 389 OFFCURVE",
"427 350 OFFCURVE",
"427 286 CURVE SMOOTH",
"427 201 OFFCURVE",
"370 137 OFFCURVE",
"296 137 CURVE SMOOTH",
"237 137 OFFCURVE",
"200 176 OFFCURVE",
"200 245 CURVE SMOOTH",
"200 329 OFFCURVE",
"249 389 OFFCURVE",
"326 389 CURVE SMOOTH"
);
}
);
width = 642;
}
);
leftKerningGroup = o;
leftMetricsKey = o;
note = g;
rightMetricsKey = "=|n";
unicode = 0067;
},
{
color = 4;
glyphname = h;
lastChange = "2019-03-20 10:03:28 +0000";
layers = (
{
background = {
paths = (
{
closed = 1;
nodes = (
"160 0 LINE",
"161 328 OFFCURVE",
"235 434 OFFCURVE",
"337 434 CURVE SMOOTH",
"407 434 OFFCURVE",
"438 385 OFFCURVE",
"437 290 CURVE SMOOTH",
"435 0 LINE",
"513 0 LINE",
"515 299 LINE SMOOTH",
"516 433 OFFCURVE",
"459 507 OFFCURVE",
"356 507 CURVE SMOOTH",
"248 507 OFFCURVE",
"170 426 OFFCURVE",
"143 282 CURVE",
"154 290 LINE",
"162 498 LINE",
"83 498 LINE",
"83 0 LINE"
);
}
);
};
layerId = "A3B50665-EA37-4AC6-885C-1233CA61B6BD";
paths = (
{
closed = 1;
nodes = (
"160 0 LINE",
"161 328 OFFCURVE",
"235 434 OFFCURVE",
"337 434 CURVE SMOOTH",
"407 434 OFFCURVE",
"438 385 OFFCURVE",
"437 290 CURVE SMOOTH",
"435 0 LINE",
"513 0 LINE",
"515 299 LINE SMOOTH",
"516 433 OFFCURVE",
"459 507 OFFCURVE",
"356 507 CURVE SMOOTH",
"248 507 OFFCURVE",
"170 426 OFFCURVE",
"143 282 CURVE",
"154 290 LINE",
"162 498 LINE",
"161 740 LINE",
"83 740 LINE",
"83 0 LINE"
);
}
);
width = 594;
},
{
background = {
paths = (
{
closed = 1;
nodes = (
"214 0 LINE",
"218 297 OFFCURVE",
"276 381 OFFCURVE",
"359 381 CURVE SMOOTH",
"408 381 OFFCURVE",
"430 341 OFFCURVE",
"429 270 CURVE SMOOTH",
"427 0 LINE",
"573 0 LINE",
"575 281 LINE SMOOTH",
"576 432 OFFCURVE",
"516 516 OFFCURVE",
"397 516 CURVE SMOOTH",
"284 516 OFFCURVE",
"197 431 OFFCURVE",
"172 289 CURVE",
"203 309 LINE",
"214 508 LINE",
"69 508 LINE",
"69 0 LINE"
);
}
);
};
layerId = "014D4A40-7C7F-4023-B30E-1F55CE5EA091";
paths = (
{
closed = 1;
nodes = (
"214 0 LINE",
"218 297 OFFCURVE",
"276 381 OFFCURVE",
"359 381 CURVE SMOOTH",
"408 381 OFFCURVE",
"430 341 OFFCURVE",
"429 270 CURVE SMOOTH",
"427 0 LINE",
"573 0 LINE",
"575 281 LINE SMOOTH",
"576 432 OFFCURVE",
"516 516 OFFCURVE",
"397 516 CURVE SMOOTH",
"284 516 OFFCURVE",
"197 431 OFFCURVE",
"172 289 CURVE",
"203 309 LINE",
"216 508 LINE",
"215 740 LINE",
"69 740 LINE",
"69 0 LINE"
);
}
);
width = 638;
}
);
leftMetricsKey = n;
note = h;
rightMetricsKey = n;
unicode = 0068;
},
{
color = 3;
glyphname = i;
lastChange = "2019-03-14 10:23:03 +0000";
layers = (
{
background = {
paths = (
{
closed = 1;
nodes = (
"78 498 LINE",
"78 0 LINE",
"155 0 LINE",
"155 498 LINE"
);
},
{
closed = 1;
nodes = (
"152 604 OFFCURVE",
"173 629 OFFCURVE",
"173 660 CURVE SMOOTH",
"173 690 OFFCURVE",
"152 715 OFFCURVE",
"117 715 CURVE SMOOTH",
"82 715 OFFCURVE",
"60 690 OFFCURVE",
"60 660 CURVE SMOOTH",
"60 629 OFFCURVE",
"82 604 OFFCURVE",
"117 604 CURVE SMOOTH"
);
}
);
};
layerId = "A3B50665-EA37-4AC6-885C-1233CA61B6BD";
paths = (
{
closed = 1;
nodes = (
"83 498 LINE",
"83 0 LINE",
"160 0 LINE",
"160 498 LINE"
);
},
{
closed = 1;
nodes = (
"157 604 OFFCURVE",
"178 629 OFFCURVE",
"178 660 CURVE SMOOTH",
"178 690 OFFCURVE",
"157 715 OFFCURVE",
"122 715 CURVE SMOOTH",
"87 715 OFFCURVE",
"65 690 OFFCURVE",
"65 660 CURVE SMOOTH",
"65 629 OFFCURVE",
"87 604 OFFCURVE",
"122 604 CURVE SMOOTH"
);
}
);
width = 243;
},
{
background = {
paths = (
{
closed = 1;
nodes = (
"69 508 LINE",
"69 0 LINE",
"215 0 LINE",
"215 508 LINE"
);
},
{
closed = 1;
nodes = (
"201 558 OFFCURVE",
"238 599 OFFCURVE",
"238 650 CURVE SMOOTH",
"238 701 OFFCURVE",
"201 742 OFFCURVE",
"142 742 CURVE SMOOTH",
"83 742 OFFCURVE",
"46 701 OFFCURVE",
"46 650 CURVE SMOOTH",
"46 599 OFFCURVE",
"83 558 OFFCURVE",
"142 558 CURVE SMOOTH"
);
}
);
};
layerId = "014D4A40-7C7F-4023-B30E-1F55CE5EA091";
paths = (
{
closed = 1;
nodes = (
"69 508 LINE",
"69 0 LINE",
"215 0 LINE",
"215 508 LINE"
);
},
{
closed = 1;
nodes = (
"201 568 OFFCURVE",
"238 609 OFFCURVE",
"238 660 CURVE SMOOTH",
"238 711 OFFCURVE",
"201 752 OFFCURVE",
"142 752 CURVE SMOOTH",
"83 752 OFFCURVE",
"46 711 OFFCURVE",
"46 660 CURVE SMOOTH",
"46 609 OFFCURVE",
"83 568 OFFCURVE",
"142 568 CURVE SMOOTH"
);
}
);
width = 284;
}
);
note = i;
unicode = 0069;
},
{
color = 3;
glyphname = j;
lastChange = "2019-03-14 10:23:03 +0000";
layers = (
{
background = {
paths = (
{
closed = 1;
nodes = (
"99 -200 OFFCURVE",
"173 -124 OFFCURVE",
"173 6 CURVE SMOOTH",
"173 498 LINE",
"96 498 LINE",
"96 10 LINE SMOOTH",
"96 -77 OFFCURVE",
"63 -130 OFFCURVE",
"-19 -130 CURVE SMOOTH",
"-46 -130 OFFCURVE",
"-73 -125 OFFCURVE",
"-98 -114 CURVE",
"-116 -180 LINE",
"-91 -194 OFFCURVE",
"-53 -200 OFFCURVE",
"-17 -200 CURVE SMOOTH"
);
},
{
closed = 1;
nodes = (
"168 604 OFFCURVE",
"191 627 OFFCURVE",
"191 660 CURVE SMOOTH",
"191 692 OFFCURVE",
"168 715 OFFCURVE",
"135 715 CURVE SMOOTH",
"102 715 OFFCURVE",
"78 692 OFFCURVE",
"78 660 CURVE SMOOTH",
"78 627 OFFCURVE",
"102 604 OFFCURVE",
"135 604 CURVE SMOOTH"
);
}
);
};
layerId = "A3B50665-EA37-4AC6-885C-1233CA61B6BD";
paths = (
{
closed = 1;
nodes = (
"104 -210 OFFCURVE",
"178 -134 OFFCURVE",
"178 -4 CURVE SMOOTH",
"178 498 LINE",
"101 498 LINE",
"101 0 LINE SMOOTH",
"101 -87 OFFCURVE",
"68 -140 OFFCURVE",
"-14 -140 CURVE SMOOTH",
"-41 -140 OFFCURVE",
"-68 -135 OFFCURVE",
"-93 -124 CURVE",
"-111 -190 LINE",
"-86 -204 OFFCURVE",
"-48 -210 OFFCURVE",
"-12 -210 CURVE SMOOTH"
);
},
{
closed = 1;
nodes = (
"173 604 OFFCURVE",
"196 627 OFFCURVE",
"196 660 CURVE SMOOTH",
"196 692 OFFCURVE",
"173 715 OFFCURVE",
"140 715 CURVE SMOOTH",
"107 715 OFFCURVE",
"83 692 OFFCURVE",
"83 660 CURVE SMOOTH",
"83 627 OFFCURVE",
"107 604 OFFCURVE",
"140 604 CURVE SMOOTH"
);
}
);
width = 261;
},
{
background = {
paths = (
{
closed = 1;
nodes = (
"129 -200 OFFCURVE",
"222 -119 OFFCURVE",
"222 27 CURVE SMOOTH",
"222 508 LINE",
"76 508 LINE",
"76 26 LINE SMOOTH",
"76 -44 OFFCURVE",
"48 -76 OFFCURVE",
"-15 -76 CURVE SMOOTH",
"-47 -76 OFFCURVE",
"-81 -69 OFFCURVE",
"-102 -63 CURVE",
"-123 -183 LINE",
"-94 -194 OFFCURVE",
"-53 -200 OFFCURVE",
"-10 -200 CURVE SMOOTH"
);
},
{
closed = 1;
nodes = (
"205 558 OFFCURVE",
"245 596 OFFCURVE",
"245 650 CURVE SMOOTH",
"245 704 OFFCURVE",
"205 742 OFFCURVE",
"149 742 CURVE SMOOTH",
"93 742 OFFCURVE",
"53 704 OFFCURVE",
"53 650 CURVE SMOOTH",
"53 596 OFFCURVE",
"93 558 OFFCURVE",
"149 558 CURVE SMOOTH"
);
}
);
};
layerId = "014D4A40-7C7F-4023-B30E-1F55CE5EA091";
paths = (
{
closed = 1;
nodes = (
"129 -200 OFFCURVE",
"222 -119 OFFCURVE",
"222 27 CURVE SMOOTH",
"222 508 LINE",
"76 508 LINE",
"76 26 LINE SMOOTH",
"76 -44 OFFCURVE",
"48 -76 OFFCURVE",
"-15 -76 CURVE SMOOTH",
"-47 -76 OFFCURVE",
"-81 -69 OFFCURVE",
"-102 -63 CURVE",
"-123 -183 LINE",
"-94 -194 OFFCURVE",
"-53 -200 OFFCURVE",
"-10 -200 CURVE SMOOTH"
);
},
{
closed = 1;
nodes = (
"205 568 OFFCURVE",
"245 606 OFFCURVE",
"245 660 CURVE SMOOTH",
"245 714 OFFCURVE",
"205 752 OFFCURVE",
"149 752 CURVE SMOOTH",
"93 752 OFFCURVE",
"53 714 OFFCURVE",
"53 660 CURVE SMOOTH",
"53 606 OFFCURVE",
"93 568 OFFCURVE",
"149 568 CURVE SMOOTH"
);
}
);
width = 291;
}
);
unicode = 006A;
},
{
color = 3;
glyphname = k;
lastChange = "2019-03-14 10:23:03 +0000";
layers = (
{
background = {
paths = (
{
closed = 1;
nodes = (
"477 72 LINE",
"463 65 OFFCURVE",
"446 61 OFFCURVE",
"429 61 CURVE SMOOTH",
"387 61 OFFCURVE",
"358 83 OFFCURVE",
"327 127 CURVE SMOOTH",
"269 209 LINE SMOOTH",
"246 241 OFFCURVE",
"229 259 OFFCURVE",
"207 277 CURVE",
"204 238 LINE",
"467 497 LINE",
"369 497 LINE",
"143 273 LINE",
"143 239 LINE",
"167 221 OFFCURVE",
"191 193 OFFCURVE",
"220 152 CURVE SMOOTH",
"278 70 LINE SMOOTH",
"315 17 OFFCURVE",
"360 -6 OFFCURVE",
"416 -6 CURVE SMOOTH",
"446 -6 OFFCURVE",
"472 0 OFFCURVE",
"490 11 CURVE"
);
},
{
closed = 1;
nodes = (
"156 0 LINE",
"156 740 LINE",
"78 740 LINE",
"78 0 LINE"
);
}
);
};
guideLines = (
{
angle = 128.8201;
position = "{354, 161}";
}
);
layerId = "A3B50665-EA37-4AC6-885C-1233CA61B6BD";
paths = (
{
closed = 1;
nodes = (
"482 74 LINE",
"468 66 OFFCURVE",
"451 61 OFFCURVE",
"434 61 CURVE SMOOTH",
"392 61 OFFCURVE",
"363 83 OFFCURVE",
"332 127 CURVE SMOOTH",
"274 209 LINE SMOOTH",
"240 257 OFFCURVE",
"212 275 OFFCURVE",
"189 275 CURVE",
"209 238 LINE",
"472 497 LINE",
"374 497 LINE",
"148 273 LINE",
"116 239 LINE",
"156 239 OFFCURVE",
"185 209 OFFCURVE",
"211 173 CURVE SMOOTH",
"283 70 LINE SMOOTH",
"320 17 OFFCURVE",
"365 -6 OFFCURVE",
"421 -6 CURVE SMOOTH",
"451 -6 OFFCURVE",
"477 0 OFFCURVE",
"501 14 CURVE"
);
},
{
closed = 1;
nodes = (
"161 0 LINE",
"161 740 LINE",
"83 740 LINE",
"83 0 LINE"
);
}
);
width = 499;
},
{
background = {
paths = (
{
closed = 1;
nodes = (
"573 126 LINE",
"556 117 OFFCURVE",
"538 112 OFFCURVE",
"517 112 CURVE SMOOTH",
"480 112 OFFCURVE",
"452 128 OFFCURVE",
"427 167 CURVE SMOOTH",
"394 218 LINE SMOOTH",
"375 247 OFFCURVE",
"352 273 OFFCURVE",
"331 288 CURVE",
"330 239 LINE",
"583 508 LINE",
"407 508 LINE",
"196 284 LINE",
"196 227 LINE",
"219 220 OFFCURVE",
"241 196 OFFCURVE",
"276 141 CURVE SMOOTH",
"309 90 LINE SMOOTH",
"354 19 OFFCURVE",
"405 -8 OFFCURVE",
"489 -10 CURVE SMOOTH",
"531 -11 OFFCURVE",
"569 -3 OFFCURVE",
"605 19 CURVE"
);
},
{
closed = 1;
nodes = (
"215 0 LINE",
"215 740 LINE",
"69 740 LINE",
"69 0 LINE"
);
}
);
};
guideLines = (
{
angle = 126.1496;
position = "{423, 166}";
}
);
layerId = "014D4A40-7C7F-4023-B30E-1F55CE5EA091";
paths = (
{
closed = 1;
nodes = (
"573 126 LINE",
"556 117 OFFCURVE",
"538 112 OFFCURVE",
"517 112 CURVE SMOOTH",
"480 112 OFFCURVE",
"452 128 OFFCURVE",
"427 167 CURVE SMOOTH",
"394 218 LINE SMOOTH",
"368 258 OFFCURVE",
"321 288 OFFCURVE",
"285 288 CURVE",
"330 239 LINE",
"583 508 LINE",
"407 508 LINE",
"196 284 LINE",
"173 226 LINE",
"207 226 OFFCURVE",
"232 210 OFFCURVE",
"267 155 CURVE SMOOTH",
"309 90 LINE SMOOTH",
"354 19 OFFCURVE",
"405 -8 OFFCURVE",
"489 -10 CURVE SMOOTH",
"531 -11 OFFCURVE",
"569 -3 OFFCURVE",
"605 19 CURVE"
);
},
{
closed = 1;
nodes = (
"215 0 LINE",
"215 740 LINE",
"69 740 LINE",
"69 0 LINE"
);
}
);
width = 596;
}
);
leftMetricsKey = h;
note = k;
unicode = 006B;
},
{
color = 3;
glyphname = l;
lastChange = "2019-03-14 10:23:03 +0000";
layers = (
{
background = {
paths = (
{
closed = 1;
nodes = (
"239 -8 OFFCURVE",
"271 2 OFFCURVE",
"291 22 CURVE",
"259 79 LINE",
"248 72 OFFCURVE",
"233 62 OFFCURVE",
"212 62 CURVE SMOOTH",
"177 62 OFFCURVE",
"156 87 OFFCURVE",
"156 133 CURVE SMOOTH",
"156 710 LINE",
"78 710 LINE",
"78 130 LINE SMOOTH",
"78 42 OFFCURVE",
"124 -8 OFFCURVE",
"203 -8 CURVE SMOOTH"
);
}
);
};
layerId = "A3B50665-EA37-4AC6-885C-1233CA61B6BD";
paths = (
{
closed = 1;
nodes = (
"239 -8 OFFCURVE",
"273 2 OFFCURVE",
"291 22 CURVE",
"270 76 LINE",
"259 69 OFFCURVE",
"238 60 OFFCURVE",
"217 60 CURVE SMOOTH",
"182 60 OFFCURVE",
"161 85 OFFCURVE",
"161 124 CURVE SMOOTH",
"161 740 LINE",
"83 740 LINE",
"83 114 LINE SMOOTH",
"83 42 OFFCURVE",
"124 -8 OFFCURVE",
"208 -8 CURVE SMOOTH"
);
}
);
width = 285;
},
{
background = {
paths = (
{
closed = 1;
nodes = (
"868 -10 OFFCURVE",
"911 2 OFFCURVE",
"932 18 CURVE",
"898 129 LINE",
"888 122 OFFCURVE",
"874 117 OFFCURVE",
"858 117 CURVE SMOOTH",
"828 117 OFFCURVE",
"815 137 OFFCURVE",
"815 162 CURVE SMOOTH",
"815 710 LINE",
"669 709 LINE",
"669 139 LINE SMOOTH",
"669 51 OFFCURVE",
"725 -10 OFFCURVE",
"824 -10 CURVE SMOOTH"
);
},
{
closed = 1;
nodes = (
"277 -8 OFFCURVE",
"311 2 OFFCURVE",
"329 22 CURVE",
"308 76 LINE",
"297 69 OFFCURVE",
"276 59 OFFCURVE",
"255 59 CURVE SMOOTH",
"220 59 OFFCURVE",
"199 85 OFFCURVE",
"199 134 CURVE SMOOTH",
"199 710 LINE",
"121 710 LINE",
"121 124 LINE SMOOTH",
"121 42 OFFCURVE",
"162 -8 OFFCURVE",
"246 -8 CURVE SMOOTH"
);
}
);
};
layerId = "014D4A40-7C7F-4023-B30E-1F55CE5EA091";
paths = (
{
closed = 1;
nodes = (
"271 -10 OFFCURVE",
"313 4 OFFCURVE",
"335 27 CURVE",
"300 127 LINE",
"289 119 OFFCURVE",
"275 115 OFFCURVE",
"260 115 CURVE SMOOTH",
"231 115 OFFCURVE",
"215 132 OFFCURVE",
"215 162 CURVE SMOOTH",
"215 740 LINE",
"69 740 LINE",
"69 152 LINE SMOOTH",
"69 47 OFFCURVE",
"125 -10 OFFCURVE",
"226 -10 CURVE SMOOTH"
);
}
);
width = 325;
}
);
leftMetricsKey = h;
note = l;
unicode = 006C;
},
{
color = 4;
glyphname = m;
lastChange = "2019-03-20 10:05:33 +0000";
layers = (
{
background = {
paths = (
{
closed = 1;
nodes = (
"160 0 LINE",
"161 328 OFFCURVE",
"235 434 OFFCURVE",
"337 434 CURVE SMOOTH",
"407 434 OFFCURVE",
"438 385 OFFCURVE",
"437 290 CURVE SMOOTH",
"435 0 LINE",
"513 0 LINE",
"515 299 LINE SMOOTH",
"516 433 OFFCURVE",
"459 507 OFFCURVE",
"356 507 CURVE SMOOTH",
"248 507 OFFCURVE",
"170 426 OFFCURVE",
"143 282 CURVE",
"154 290 LINE",
"162 498 LINE",
"83 498 LINE",
"83 0 LINE"
);
}
);
};
layerId = "A3B50665-EA37-4AC6-885C-1233CA61B6BD";
paths = (
{
closed = 1;
nodes = (
"160 0 LINE",
"161 338 OFFCURVE",
"243 434 OFFCURVE",
"332 434 CURVE SMOOTH",
"400 434 OFFCURVE",
"429 385 OFFCURVE",
"429 290 CURVE SMOOTH",
"429 0 LINE",
"506 0 LINE",
"507 338 OFFCURVE",
"588 434 OFFCURVE",
"677 434 CURVE SMOOTH",
"745 434 OFFCURVE",
"777 385 OFFCURVE",
"776 290 CURVE SMOOTH",
"774 0 LINE",
"852 0 LINE",
"854 299 LINE SMOOTH",
"855 433 OFFCURVE",
"799 507 OFFCURVE",
"696 507 CURVE SMOOTH",
"601 507 OFFCURVE",
"513 435 OFFCURVE",
"486 294 CURVE",
"506 318 LINE",
"501 443 OFFCURVE",
"443 507 OFFCURVE",
"348 507 CURVE SMOOTH",
"254 507 OFFCURVE",
"173 435 OFFCURVE",
"143 282 CURVE",
"154 290 LINE",
"162 498 LINE",
"83 498 LINE",
"83 0 LINE"
);
}
);
width = 933;
},
{
background = {
paths = (
{
closed = 1;
nodes = (
"1315 0 LINE",
"1318 299 OFFCURVE",
"1377 381 OFFCURVE",
"1451 381 CURVE SMOOTH",
"1500 381 OFFCURVE",
"1521 341 OFFCURVE",
"1521 280 CURVE SMOOTH",
"1521 0 LINE",
"1666 0 LINE",
"1669 299 OFFCURVE",
"1728 381 OFFCURVE",
"1802 381 CURVE SMOOTH",
"1851 381 OFFCURVE",
"1874 341 OFFCURVE",
"1874 280 CURVE SMOOTH",
"1872 0 LINE",
"2018 0 LINE",
"2020 281 LINE SMOOTH",
"2021 431 OFFCURVE",
"1962 516 OFFCURVE",
"1844 516 CURVE SMOOTH",
"1749 516 OFFCURVE",
"1645 452 OFFCURVE",
"1622 313 CURVE",
"1665 327 LINE",
"1654 460 OFFCURVE",
"1584 516 OFFCURVE",
"1495 516 CURVE SMOOTH",
"1396 516 OFFCURVE",
"1302 446 OFFCURVE",
"1277 304 CURVE",
"1306 329 LINE",
"1315 508 LINE",
"1169 508 LINE",
"1169 0 LINE"
);
},
{
closed = 1;
nodes = (
"214 0 LINE",
"218 297 OFFCURVE",
"276 381 OFFCURVE",
"359 381 CURVE SMOOTH",
"408 381 OFFCURVE",
"430 341 OFFCURVE",
"429 270 CURVE SMOOTH",
"427 0 LINE",
"573 0 LINE",
"575 281 LINE SMOOTH",
"576 432 OFFCURVE",
"516 516 OFFCURVE",
"397 516 CURVE SMOOTH",
"284 516 OFFCURVE",
"197 431 OFFCURVE",
"172 289 CURVE",
"203 309 LINE",
"214 508 LINE",
"69 508 LINE",
"69 0 LINE"
);
}
);
};
layerId = "014D4A40-7C7F-4023-B30E-1F55CE5EA091";
paths = (
{
closed = 1;
nodes = (
"214 0 LINE",
"218 299 OFFCURVE",
"277 381 OFFCURVE",
"351 381 CURVE SMOOTH",
"400 381 OFFCURVE",
"421 341 OFFCURVE",
"421 280 CURVE SMOOTH",
"421 0 LINE",
"566 0 LINE",
"569 299 OFFCURVE",
"628 381 OFFCURVE",
"702 381 CURVE SMOOTH",
"751 381 OFFCURVE",
"774 341 OFFCURVE",
"774 280 CURVE SMOOTH",
"772 0 LINE",
"918 0 LINE",
"920 281 LINE SMOOTH",
"921 431 OFFCURVE",
"862 516 OFFCURVE",
"744 516 CURVE SMOOTH",
"649 516 OFFCURVE",
"545 452 OFFCURVE",
"522 313 CURVE",
"565 327 LINE",
"554 460 OFFCURVE",
"484 516 OFFCURVE",
"395 516 CURVE SMOOTH",
"296 516 OFFCURVE",
"202 446 OFFCURVE",
"172 289 CURVE",
"203 309 LINE",
"214 508 LINE",
"69 508 LINE",
"69 0 LINE"
);
}
);
width = 983;
}
);
leftMetricsKey = n;
note = m;
rightMetricsKey = n;
unicode = 006D;
},
{
color = 4;
glyphname = n;
lastChange = "2019-03-20 10:02:28 +0000";
layers = (
{
background = {
paths = (
{
closed = 1;
nodes = (
"160 0 LINE",
"161 328 OFFCURVE",
"235 434 OFFCURVE",
"337 434 CURVE SMOOTH",
"407 434 OFFCURVE",
"438 385 OFFCURVE",
"437 290 CURVE SMOOTH",
"435 0 LINE",
"513 0 LINE",
"515 299 LINE SMOOTH",
"516 433 OFFCURVE",
"459 507 OFFCURVE",
"356 507 CURVE SMOOTH",
"248 507 OFFCURVE",
"170 426 OFFCURVE",
"143 292 CURVE",
"158 320 LINE",
"162 498 LINE",
"161 740 LINE",
"83 740 LINE",
"83 0 LINE"
);
}
);
};
layerId = "A3B50665-EA37-4AC6-885C-1233CA61B6BD";
paths = (
{
closed = 1;
nodes = (
"160 0 LINE",
"161 328 OFFCURVE",
"235 434 OFFCURVE",
"337 434 CURVE SMOOTH",
"407 434 OFFCURVE",
"438 385 OFFCURVE",
"437 290 CURVE SMOOTH",
"435 0 LINE",
"513 0 LINE",
"515 299 LINE SMOOTH",
"516 433 OFFCURVE",
"459 507 OFFCURVE",
"356 507 CURVE SMOOTH",
"248 507 OFFCURVE",
"170 426 OFFCURVE",
"143 282 CURVE",
"154 290 LINE",
"162 498 LINE",
"83 498 LINE",
"83 0 LINE"
);
}
);
width = 594;
},
{
background = {
paths = (
{
closed = 1;
nodes = (
"215 0 LINE",
"218 297 OFFCURVE",
"276 381 OFFCURVE",
"359 381 CURVE SMOOTH",
"408 381 OFFCURVE",
"430 341 OFFCURVE",
"429 270 CURVE SMOOTH",
"427 0 LINE",
"573 0 LINE",
"575 281 LINE SMOOTH",
"576 432 OFFCURVE",
"516 516 OFFCURVE",
"397 516 CURVE SMOOTH",
"284 516 OFFCURVE",
"197 431 OFFCURVE",
"172 299 CURVE",
"206 329 LINE",
"216 508 LINE",
"69 508 LINE",
"69 0 LINE"
);
}
);
};
layerId = "014D4A40-7C7F-4023-B30E-1F55CE5EA091";
paths = (
{
closed = 1;
nodes = (
"214 0 LINE",
"218 297 OFFCURVE",
"276 381 OFFCURVE",
"359 381 CURVE SMOOTH",
"408 381 OFFCURVE",
"430 341 OFFCURVE",
"429 270 CURVE SMOOTH",
"427 0 LINE",
"573 0 LINE",
"575 281 LINE SMOOTH",
"576 432 OFFCURVE",
"516 516 OFFCURVE",
"397 516 CURVE SMOOTH",
"284 516 OFFCURVE",
"197 431 OFFCURVE",
"172 289 CURVE",
"203 309 LINE",
"214 508 LINE",
"69 508 LINE",
"69 0 LINE"
);
}
);
width = 638;
}
);
note = n;
unicode = 006E;
},
{
color = 3;
glyphname = o;
lastChange = "2019-03-20 09:58:01 +0000";
layers = (
{
background = {
paths = (
{
closed = 1;
nodes = (
"149 507 OFFCURVE",
"56 392 OFFCURVE",
"56 240 CURVE SMOOTH",
"56 87 OFFCURVE",
"141 -8 OFFCURVE",
"281 -8 CURVE SMOOTH",
"423 -8 OFFCURVE",
"517 107 OFFCURVE",
"517 259 CURVE SMOOTH",
"517 412 OFFCURVE",
"432 507 OFFCURVE",
"295 507 CURVE SMOOTH"
);
},
{
closed = 1;
nodes = (
"189 63 OFFCURVE",
"135 126 OFFCURVE",
"135 240 CURVE SMOOTH",
"135 356 OFFCURVE",
"198 436 OFFCURVE",
"295 436 CURVE SMOOTH",
"384 436 OFFCURVE",
"438 373 OFFCURVE",
"438 259 CURVE SMOOTH",
"438 143 OFFCURVE",
"375 63 OFFCURVE",
"281 63 CURVE SMOOTH"
);
}
);
};
layerId = "A3B50665-EA37-4AC6-885C-1233CA61B6BD";
paths = (
{
closed = 1;
nodes = (
"155 507 OFFCURVE",
"60 392 OFFCURVE",
"60 240 CURVE SMOOTH",
"60 87 OFFCURVE",
"145 -8 OFFCURVE",
"286 -8 CURVE SMOOTH",
"427 -8 OFFCURVE",
"523 107 OFFCURVE",
"523 259 CURVE SMOOTH",
"523 412 OFFCURVE",
"438 507 OFFCURVE",
"300 507 CURVE SMOOTH"
);
},
{
closed = 1;
nodes = (
"194 63 OFFCURVE",
"140 126 OFFCURVE",
"140 240 CURVE SMOOTH",
"140 356 OFFCURVE",
"203 436 OFFCURVE",
"301 436 CURVE SMOOTH",
"389 436 OFFCURVE",
"443 373 OFFCURVE",
"443 259 CURVE SMOOTH",
"443 142 OFFCURVE",
"380 63 OFFCURVE",
"286 63 CURVE SMOOTH"
);
}
);
width = 583;
},
{
background = {
paths = (
{
closed = 1;
nodes = (
"951 516 OFFCURVE",
"845 399 OFFCURVE",
"845 241 CURVE SMOOTH",
"845 87 OFFCURVE",
"941 -10 OFFCURVE",
"1098 -10 CURVE SMOOTH",
"1262 -10 OFFCURVE",
"1368 107 OFFCURVE",
"1368 265 CURVE SMOOTH",
"1368 419 OFFCURVE",
"1272 516 OFFCURVE",
"1115 516 CURVE SMOOTH"
);
},
{
closed = 1;
nodes = (
"1033 117 OFFCURVE",
"995 162 OFFCURVE",
"995 241 CURVE SMOOTH",
"995 328 OFFCURVE",
"1034 389 OFFCURVE",
"1111 389 CURVE SMOOTH",
"1180 389 OFFCURVE",
"1218 344 OFFCURVE",
"1218 265 CURVE SMOOTH",
"1218 178 OFFCURVE",
"1179 117 OFFCURVE",
"1102 117 CURVE SMOOTH"
);
},
{
closed = 1;
nodes = (
"234 117 OFFCURVE",
"195 163 OFFCURVE",
"195 246 CURVE SMOOTH",
"195 331 OFFCURVE",
"241 389 OFFCURVE",
"313 389 CURVE SMOOTH",
"378 389 OFFCURVE",
"418 343 OFFCURVE",
"418 260 CURVE SMOOTH",
"418 175 OFFCURVE",
"372 117 OFFCURVE",
"302 117 CURVE SMOOTH"
);
}
);
};
layerId = "014D4A40-7C7F-4023-B30E-1F55CE5EA091";
paths = (
{
closed = 1;
nodes = (
"152 516 OFFCURVE",
"45 399 OFFCURVE",
"45 241 CURVE SMOOTH",
"45 87 OFFCURVE",
"139 -10 OFFCURVE",
"295 -10 CURVE SMOOTH",
"460 -10 OFFCURVE",
"568 107 OFFCURVE",
"568 265 CURVE SMOOTH",
"568 419 OFFCURVE",
"473 516 OFFCURVE",
"317 516 CURVE SMOOTH"
);
},
{
closed = 1;
nodes = (
"234 117 OFFCURVE",
"195 163 OFFCURVE",
"195 241 CURVE SMOOTH",
"195 331 OFFCURVE",
"241 389 OFFCURVE",
"313 389 CURVE SMOOTH",
"378 389 OFFCURVE",
"418 343 OFFCURVE",
"418 265 CURVE SMOOTH",
"418 175 OFFCURVE",
"372 117 OFFCURVE",
"302 117 CURVE SMOOTH"
);
}
);
width = 613;
}
);
leftKerningGroup = o;
note = o;
rightKerningGroup = o;
rightMetricsKey = "=|";
unicode = 006F;
},
{
color = 3;
glyphname = p;
lastChange = "2019-03-20 09:58:16 +0000";
layers = (
{
background = {
paths = (
{
closed = 1;
nodes = (
"161 -200 LINE",
"161 -8 LINE SMOOTH",
"161 19 OFFCURVE",
"160 56 OFFCURVE",
"158 83 CURVE",
"147 81 LINE",
"164 29 OFFCURVE",
"221 -8 OFFCURVE",
"290 -8 CURVE SMOOTH",
"435 -8 OFFCURVE",
"536 111 OFFCURVE",
"536 282 CURVE SMOOTH",
"536 414 OFFCURVE",
"467 507 OFFCURVE",
"342 507 CURVE SMOOTH",
"247 507 OFFCURVE",
"173 443 OFFCURVE",
"141 339 CURVE",
"157 345 LINE",
"159 373 OFFCURVE",
"161 401 OFFCURVE",
"161 429 CURVE SMOOTH",
"161 498 LINE",
"83 498 LINE",
"83 -200 LINE"
);
},
{
closed = 1;
nodes = (
"209 63 OFFCURVE",
"160 119 OFFCURVE",
"160 212 CURVE SMOOTH",
"160 339 OFFCURVE",
"235 435 OFFCURVE",
"332 435 CURVE SMOOTH",
"408 435 OFFCURVE",
"455 376 OFFCURVE",
"455 276 CURVE SMOOTH",
"455 148 OFFCURVE",
"390 63 OFFCURVE",
"290 63 CURVE SMOOTH"
);
}
);
};
layerId = "A3B50665-EA37-4AC6-885C-1233CA61B6BD";
paths = (
{
closed = 1;
nodes = (
"161 -200 LINE",
"161 0 LINE",
"159 91 LINE",
"147 81 LINE",
"164 29 OFFCURVE",
"221 -8 OFFCURVE",
"290 -8 CURVE SMOOTH",
"435 -8 OFFCURVE",
"536 111 OFFCURVE",
"536 282 CURVE SMOOTH",
"536 414 OFFCURVE",
"467 507 OFFCURVE",
"343 507 CURVE SMOOTH",
"247 507 OFFCURVE",
"173 441 OFFCURVE",
"141 335 CURVE",
"157 320 LINE",
"162 498 LINE",
"83 498 LINE",
"83 -200 LINE"
);
},
{
closed = 1;
nodes = (
"209 63 OFFCURVE",
"160 119 OFFCURVE",
"160 212 CURVE SMOOTH",
"160 339 OFFCURVE",
"235 435 OFFCURVE",
"332 435 CURVE SMOOTH",
"408 435 OFFCURVE",
"455 376 OFFCURVE",
"455 276 CURVE SMOOTH",
"455 148 OFFCURVE",
"390 63 OFFCURVE",
"290 63 CURVE SMOOTH"
);
}
);
width = 596;
},
{
background = {
paths = (
{
closed = 1;
nodes = (
"215 -200 LINE",
"215 -43 LINE SMOOTH",
"215 -1 OFFCURVE",
"211 52 OFFCURVE",
"208 84 CURVE",
"178 70 LINE",
"202 23 OFFCURVE",
"257 -10 OFFCURVE",
"328 -10 CURVE SMOOTH",
"480 -10 OFFCURVE",
"593 108 OFFCURVE",
"593 283 CURVE SMOOTH",
"593 418 OFFCURVE",
"522 516 OFFCURVE",
"382 516 CURVE SMOOTH",
"280 516 OFFCURVE",
"208 457 OFFCURVE",
"178 351 CURVE",
"209 351 LINE",
"212 379 OFFCURVE",
"215 439 OFFCURVE",
"215 477 CURVE SMOOTH",
"215 508 LINE",
"69 508 LINE",
"69 -200 LINE"
);
},
{
closed = 1;
nodes = (
"253 117 OFFCURVE",
"215 159 OFFCURVE",
"215 228 CURVE SMOOTH",
"215 319 OFFCURVE",
"271 388 OFFCURVE",
"344 388 CURVE SMOOTH",
"402 388 OFFCURVE",
"438 346 OFFCURVE",
"438 272 CURVE SMOOTH",
"438 181 OFFCURVE",
"390 117 OFFCURVE",
"314 117 CURVE SMOOTH"
);
}
);
};
layerId = "014D4A40-7C7F-4023-B30E-1F55CE5EA091";
paths = (
{
closed = 1;
nodes = (
"215 -200 LINE",
"215 0 LINE",
"211 90 LINE",
"178 70 LINE",
"202 23 OFFCURVE",
"257 -10 OFFCURVE",
"328 -10 CURVE SMOOTH",
"480 -10 OFFCURVE",
"593 108 OFFCURVE",
"593 283 CURVE SMOOTH",
"593 418 OFFCURVE",
"522 516 OFFCURVE",
"382 516 CURVE SMOOTH",
"280 516 OFFCURVE",
"208 457 OFFCURVE",
"178 351 CURVE",
"206 329 LINE",
"216 508 LINE",
"69 508 LINE",
"69 -200 LINE"
);
},
{
closed = 1;
nodes = (
"253 117 OFFCURVE",
"215 159 OFFCURVE",
"215 228 CURVE SMOOTH",
"215 319 OFFCURVE",
"271 388 OFFCURVE",
"344 388 CURVE SMOOTH",
"402 388 OFFCURVE",
"438 346 OFFCURVE",
"438 272 CURVE SMOOTH",
"438 181 OFFCURVE",
"390 117 OFFCURVE",
"313 117 CURVE SMOOTH"
);
}
);
width = 638;
}
);
leftMetricsKey = n;
note = p;
rightMetricsKey = o;
unicode = 0070;
},
{
color = 3;
glyphname = q;
lastChange = "2019-03-20 09:58:16 +0000";
layers = (
{
background = {
paths = (
{
closed = 1;
nodes = (
"513 -200 LINE",
"513 498 LINE",
"449 498 LINE",
"440 416 LINE",
"449 418 LINE",
"432 470 OFFCURVE",
"375 507 OFFCURVE",
"306 507 CURVE SMOOTH",
"161 507 OFFCURVE",
"60 387 OFFCURVE",
"60 217 CURVE SMOOTH",
"60 85 OFFCURVE",
"129 -8 OFFCURVE",
"254 -8 CURVE SMOOTH",
"349 -8 OFFCURVE",
"423 56 OFFCURVE",
"455 160 CURVE",
"439 154 LINE",
"437 126 OFFCURVE",
"435 98 OFFCURVE",
"435 70 CURVE SMOOTH",
"435 -200 LINE"
);
},
{
closed = 1;
nodes = (
"188 63 OFFCURVE",
"141 122 OFFCURVE",
"141 222 CURVE SMOOTH",
"141 350 OFFCURVE",
"206 435 OFFCURVE",
"306 435 CURVE SMOOTH",
"387 435 OFFCURVE",
"436 379 OFFCURVE",
"436 286 CURVE SMOOTH",
"436 159 OFFCURVE",
"361 63 OFFCURVE",
"264 63 CURVE SMOOTH"
);
}
);
};
layerId = "A3B50665-EA37-4AC6-885C-1233CA61B6BD";
paths = (
{
closed = 1;
nodes = (
"449 498 LINE",
"440 416 LINE",
"449 418 LINE",
"432 470 OFFCURVE",
"375 507 OFFCURVE",
"306 507 CURVE SMOOTH",
"161 507 OFFCURVE",
"60 387 OFFCURVE",
"60 217 CURVE SMOOTH",
"60 85 OFFCURVE",
"129 -8 OFFCURVE",
"253 -8 CURVE SMOOTH",
"349 -8 OFFCURVE",
"423 58 OFFCURVE",
"455 164 CURVE",
"440 178 LINE",
"435 0 LINE",
"435 -200 LINE",
"513 -200 LINE",
"513 498 LINE"
);
},
{
closed = 1;
nodes = (
"387 436 OFFCURVE",
"436 380 OFFCURVE",
"436 287 CURVE SMOOTH",
"436 160 OFFCURVE",
"361 64 OFFCURVE",
"264 64 CURVE SMOOTH",
"188 64 OFFCURVE",
"141 123 OFFCURVE",
"141 223 CURVE SMOOTH",
"141 351 OFFCURVE",
"206 436 OFFCURVE",
"306 436 CURVE SMOOTH"
);
}
);
width = 596;
},
{
background = {
paths = (
{
closed = 1;
nodes = (
"569 -200 LINE",
"569 508 LINE",
"464 508 LINE",
"446 424 LINE",
"460 442 LINE",
"436 485 OFFCURVE",
"381 516 OFFCURVE",
"310 516 CURVE SMOOTH",
"158 516 OFFCURVE",
"45 398 OFFCURVE",
"45 223 CURVE SMOOTH",
"45 88 OFFCURVE",
"116 -10 OFFCURVE",
"256 -10 CURVE SMOOTH",
"358 -10 OFFCURVE",
"430 49 OFFCURVE",
"460 155 CURVE",
"429 155 LINE",
"426 127 OFFCURVE",
"423 67 OFFCURVE",
"423 29 CURVE SMOOTH",
"423 -200 LINE"
);
},
{
closed = 1;
nodes = (
"236 117 OFFCURVE",
"200 159 OFFCURVE",
"200 233 CURVE SMOOTH",
"200 324 OFFCURVE",
"248 388 OFFCURVE",
"324 388 CURVE SMOOTH",
"385 388 OFFCURVE",
"423 346 OFFCURVE",
"423 277 CURVE SMOOTH",
"423 186 OFFCURVE",
"367 117 OFFCURVE",
"294 117 CURVE SMOOTH"
);
}
);
};
layerId = "014D4A40-7C7F-4023-B30E-1F55CE5EA091";
paths = (
{
closed = 1;
nodes = (
"464 508 LINE",
"446 424 LINE",
"460 442 LINE",
"436 485 OFFCURVE",
"381 516 OFFCURVE",
"310 516 CURVE SMOOTH",
"160 516 OFFCURVE",
"45 398 OFFCURVE",
"45 223 CURVE SMOOTH",
"45 88 OFFCURVE",
"119 -10 OFFCURVE",
"256 -10 CURVE SMOOTH",
"358 -10 OFFCURVE",
"430 49 OFFCURVE",
"460 155 CURVE",
"432 179 LINE",
"423 0 LINE",
"423 -200 LINE",
"569 -200 LINE",
"569 508 LINE"
);
},
{
closed = 1;
nodes = (
"385 389 OFFCURVE",
"423 347 OFFCURVE",
"423 278 CURVE SMOOTH",
"423 187 OFFCURVE",
"367 118 OFFCURVE",
"294 118 CURVE SMOOTH",
"236 118 OFFCURVE",
"200 160 OFFCURVE",
"200 234 CURVE SMOOTH",
"200 325 OFFCURVE",
"248 389 OFFCURVE",
"324 389 CURVE SMOOTH"
);
}
);
width = 638;
}
);
leftMetricsKey = o;
note = q;
rightMetricsKey = "=|n";
unicode = 0071;
},
{
color = 3;
glyphname = r;
lastChange = "2019-03-20 12:27:44 +0000";
layers = (
{
background = {
paths = (
{
closed = 1;
nodes = (
"379 499 LINE",
"368 504 OFFCURVE",
"350 507 OFFCURVE",
"330 507 CURVE SMOOTH",
"246 507 OFFCURVE",
"165 440 OFFCURVE",
"144 290 CURVE",
"157 320 LINE",
"160 498 LINE",
"81 498 LINE",
"83 320 LINE",
"83 0 LINE",
"161 0 LINE",
"162 100 LINE SMOOTH",
"165 362 OFFCURVE",
"244 429 OFFCURVE",
"327 429 CURVE SMOOTH",
"342 429 OFFCURVE",
"354 428 OFFCURVE",
"368 422 CURVE"
);
}
);
};
layerId = "A3B50665-EA37-4AC6-885C-1233CA61B6BD";
paths = (
{
closed = 1;
nodes = (
"379 499 LINE",
"368 504 OFFCURVE",
"350 507 OFFCURVE",
"330 507 CURVE SMOOTH",
"246 507 OFFCURVE",
"165 440 OFFCURVE",
"144 276 CURVE",
"154 290 LINE",
"160 498 LINE",
"81 498 LINE",
"83 320 LINE",
"83 0 LINE",
"160 0 LINE",
"160 359 OFFCURVE",
"233 429 OFFCURVE",
"327 429 CURVE SMOOTH",
"342 429 OFFCURVE",
"354 428 OFFCURVE",
"368 422 CURVE"
);
}
);
width = 382;
},
{
background = {
paths = (
{
closed = 1;
nodes = (
"437 507 LINE",
"420 515 OFFCURVE",
"401 516 OFFCURVE",
"382 516 CURVE SMOOTH",
"298 516 OFFCURVE",
"210 456 OFFCURVE",
"186 301 CURVE",
"206 329 LINE",
"216 508 LINE",
"69 508 LINE",
"69 0 LINE",
"215 0 LINE",
"215 70 LINE SMOOTH",
"215 318 OFFCURVE",
"289 375 OFFCURVE",
"362 375 CURVE SMOOTH",
"381 375 OFFCURVE",
"399 372 OFFCURVE",
"412 366 CURVE"
);
}
);
};
layerId = "014D4A40-7C7F-4023-B30E-1F55CE5EA091";
paths = (
{
closed = 1;
nodes = (
"437 507 LINE",
"420 515 OFFCURVE",
"401 516 OFFCURVE",
"382 516 CURVE SMOOTH",
"298 516 OFFCURVE",
"210 456 OFFCURVE",
"186 301 CURVE",
"206 329 LINE",
"213 508 LINE",
"66 508 LINE",
"69 329 LINE",
"69 0 LINE",
"215 0 LINE",
"215 80 LINE SMOOTH",
"215 315 OFFCURVE",
"289 375 OFFCURVE",
"362 375 CURVE SMOOTH",
"381 375 OFFCURVE",
"399 372 OFFCURVE",
"412 366 CURVE"
);
}
);
width = 438;
}
);
note = r;
unicode = 0072;
},
{
color = 3;
glyphname = s;
lastChange = "2019-03-14 10:23:03 +0000";
layers = (
{
background = {
paths = (
{
closed = 1;
nodes = (
"337 -8 OFFCURVE",
"415 56 OFFCURVE",
"415 142 CURVE SMOOTH",
"415 215 OFFCURVE",
"368 260 OFFCURVE",
"257 277 CURVE SMOOTH",
"180 289 OFFCURVE",
"150 311 OFFCURVE",
"150 358 CURVE SMOOTH",
"150 406 OFFCURVE",
"188 439 OFFCURVE",
"244 439 CURVE SMOOTH",
"297 439 OFFCURVE",
"331 411 OFFCURVE",
"340 362 CURVE",
"408 372 LINE",
"396 458 OFFCURVE",
"334 506 OFFCURVE",
"245 506 CURVE SMOOTH",
"146 506 OFFCURVE",
"73 439 OFFCURVE",
"73 351 CURVE SMOOTH",
"73 271 OFFCURVE",
"120 228 OFFCURVE",
"226 210 CURVE SMOOTH",
"308 196 OFFCURVE",
"338 175 OFFCURVE",
"338 135 CURVE SMOOTH",
"338 90 OFFCURVE",
"299 60 OFFCURVE",
"236 60 CURVE SMOOTH",
"160 60 OFFCURVE",
"121 91 OFFCURVE",
"112 156 CURVE",
"43 146 LINE",
"52 45 OFFCURVE",
"119 -8 OFFCURVE",
"235 -8 CURVE SMOOTH"
);
}
);
};
layerId = "A3B50665-EA37-4AC6-885C-1233CA61B6BD";
paths = (
{
closed = 1;
nodes = (
"353 -8 OFFCURVE",
"435 56 OFFCURVE",
"435 142 CURVE SMOOTH",
"435 215 OFFCURVE",
"385 255 OFFCURVE",
"269 276 CURVE SMOOTH",
"179 292 OFFCURVE",
"152 310 OFFCURVE",
"152 358 CURVE SMOOTH",
"152 406 OFFCURVE",
"192 439 OFFCURVE",
"255 439 CURVE SMOOTH",
"315 439 OFFCURVE",
"350 411 OFFCURVE",
"360 362 CURVE",
"428 372 LINE",
"415 458 OFFCURVE",
"350 506 OFFCURVE",
"256 506 CURVE SMOOTH",
"152 506 OFFCURVE",
"75 439 OFFCURVE",
"75 351 CURVE SMOOTH",
"75 271 OFFCURVE",
"128 229 OFFCURVE",
"236 210 CURVE SMOOTH",
"330 193 OFFCURVE",
"358 175 OFFCURVE",
"358 135 CURVE SMOOTH",
"358 90 OFFCURVE",
"317 60 OFFCURVE",
"246 60 CURVE SMOOTH",
"162 60 OFFCURVE",
"121 91 OFFCURVE",
"112 156 CURVE",
"43 146 LINE",
"52 45 OFFCURVE",
"123 -8 OFFCURVE",
"245 -8 CURVE SMOOTH"
);
}
);
width = 476;
},
{
background = {
paths = (
{
closed = 1;
nodes = (
"360 -10 OFFCURVE",
"446 56 OFFCURVE",
"446 155 CURVE SMOOTH",
"446 232 OFFCURVE",
"397 281 OFFCURVE",
"305 302 CURVE SMOOTH",
"221 321 OFFCURVE",
"197 334 OFFCURVE",
"197 361 CURVE SMOOTH",
"197 384 OFFCURVE",
"214 404 OFFCURVE",
"253 404 CURVE SMOOTH",
"291 404 OFFCURVE",
"317 382 OFFCURVE",
"323 352 CURVE",
"441 372 LINE",
"432 458 OFFCURVE",
"363 516 OFFCURVE",
"260 516 CURVE SMOOTH",
"143 516 OFFCURVE",
"57 445 OFFCURVE",
"57 346 CURVE SMOOTH",
"57 269 OFFCURVE",
"106 220 OFFCURVE",
"198 199 CURVE SMOOTH",
"282 180 OFFCURVE",
"306 167 OFFCURVE",
"306 142 CURVE SMOOTH",
"306 117 OFFCURVE",
"284 103 OFFCURVE",
"240 103 CURVE SMOOTH",
"186 103 OFFCURVE",
"154 129 OFFCURVE",
"151 169 CURVE",
"26 151 LINE",
"34 47 OFFCURVE",
"106 -10 OFFCURVE",
"233 -10 CURVE SMOOTH"
);
}
);
};
layerId = "014D4A40-7C7F-4023-B30E-1F55CE5EA091";
paths = (
{
closed = 1;
nodes = (
"384 -10 OFFCURVE",
"476 56 OFFCURVE",
"476 155 CURVE SMOOTH",
"476 232 OFFCURVE",
"424 281 OFFCURVE",
"325 302 CURVE SMOOTH",
"227 323 OFFCURVE",
"201 334 OFFCURVE",
"201 361 CURVE SMOOTH",
"201 384 OFFCURVE",
"222 404 OFFCURVE",
"269 404 CURVE SMOOTH",
"318 404 OFFCURVE",
"346 382 OFFCURVE",
"352 352 CURVE",
"471 372 LINE",
"461 458 OFFCURVE",
"387 516 OFFCURVE",
"277 516 CURVE SMOOTH",
"151 516 OFFCURVE",
"59 445 OFFCURVE",
"59 346 CURVE SMOOTH",
"59 269 OFFCURVE",
"112 220 OFFCURVE",
"210 199 CURVE SMOOTH",
"308 178 OFFCURVE",
"334 167 OFFCURVE",
"334 142 CURVE SMOOTH",
"334 117 OFFCURVE",
"308 103 OFFCURVE",
"255 103 CURVE SMOOTH",
"189 103 OFFCURVE",
"155 129 OFFCURVE",
"152 169 CURVE",
"26 151 LINE",
"35 47 OFFCURVE",
"112 -10 OFFCURVE",
"248 -10 CURVE SMOOTH"
);
}
);
width = 506;
}
);
note = s;
unicode = 0073;
},
{
glyphname = germandbls;
lastChange = "2019-03-19 11:59:25 +0000";
layers = (
{
background = {
paths = (
{
closed = 1;
nodes = (
"464 506 OFFCURVE",
"321 439 OFFCURVE",
"321 351 CURVE SMOOTH",
"321 271 OFFCURVE",
"374 230 OFFCURVE",
"482 210 CURVE SMOOTH",
"576 193 OFFCURVE",
"604 175 OFFCURVE",
"604 135 CURVE SMOOTH",
"604 90 OFFCURVE",
"563 60 OFFCURVE",
"492 60 CURVE SMOOTH",
"408 60 OFFCURVE",
"367 91 OFFCURVE",
"358 156 CURVE",
"289 146 LINE",
"298 45 OFFCURVE",
"369 -8 OFFCURVE",
"491 -8 CURVE SMOOTH",
"599 -8 OFFCURVE",
"681 56 OFFCURVE",
"681 142 CURVE SMOOTH",
"681 215 OFFCURVE",
"631 255 OFFCURVE",
"515 276 CURVE SMOOTH",
"425 292 OFFCURVE",
"398 310 OFFCURVE",
"398 358 CURVE SMOOTH",
"398 426 OFFCURVE",
"536 494 OFFCURVE",
"536 602 CURVE SMOOTH",
"536 706 OFFCURVE",
"447 750 OFFCURVE",
"344 750 CURVE SMOOTH",
"197 750 OFFCURVE",
"107 660 OFFCURVE",
"107 492 CURVE SMOOTH",
"107 0 LINE",
"185 0 LINE",
"185 500 LINE SMOOTH",
"185 626 OFFCURVE",
"235 683 OFFCURVE",
"343 683 CURVE SMOOTH",
"406 683 OFFCURVE",
"464 655 OFFCURVE",
"464 610 CURVE SMOOTH"
);
},
{
closed = 1;
nodes = (
"8 432 LINE",
"152 432 LINE",
"152 498 LINE",
"8 498 LINE"
);
}
);
};
layerId = "A3B50665-EA37-4AC6-885C-1233CA61B6BD";
paths = (
{
closed = 1;
nodes = (
"582 -8 OFFCURVE",
"661 58 OFFCURVE",
"661 142 CURVE SMOOTH",
"661 322 OFFCURVE",
"388 250 OFFCURVE",
"388 378 CURVE SMOOTH",
"388 446 OFFCURVE",
"534 488 OFFCURVE",
"534 600 CURVE SMOOTH",
"534 695 OFFCURVE",
"466 750 OFFCURVE",
"357 750 CURVE SMOOTH",
"213 750 OFFCURVE",
"107 644 OFFCURVE",
"107 482 CURVE SMOOTH",
"107 0 LINE",
"185 0 LINE",
"185 490 LINE SMOOTH",
"185 614 OFFCURVE",
"263 687 OFFCURVE",
"355 687 CURVE SMOOTH",
"435 687 OFFCURVE",
"464 649 OFFCURVE",
"464 600 CURVE SMOOTH",
"464 500 OFFCURVE",
"314 484 OFFCURVE",
"314 366 CURVE SMOOTH",
"314 190 OFFCURVE",
"584 252 OFFCURVE",
"584 135 CURVE SMOOTH",
"584 90 OFFCURVE",
"543 60 OFFCURVE",
"482 60 CURVE SMOOTH",
"408 60 OFFCURVE",
"367 86 OFFCURVE",
"355 142 CURVE",
"285 131 LINE",
"299 41 OFFCURVE",
"368 -8 OFFCURVE",
"481 -8 CURVE SMOOTH"
);
},
{
closed = 1;
nodes = (
"152 432 LINE",
"152 498 LINE",
"8 498 LINE",
"8 432 LINE"
);
}
);
width = 703;
},
{
background = {
paths = (
{
closed = 1;
nodes = (
"625 -10 OFFCURVE",
"717 56 OFFCURVE",
"717 155 CURVE SMOOTH",
"717 342 OFFCURVE",
"453 283 OFFCURVE",
"453 361 CURVE SMOOTH",
"453 384 OFFCURVE",
"479 404 OFFCURVE",
"531 404 CURVE SMOOTH",
"555 404 OFFCURVE",
"581 401 OFFCURVE",
"602 397 CURVE",
"539 516 LINE",
"393 523 OFFCURVE",
"311 445 OFFCURVE",
"311 346 CURVE SMOOTH",
"311 163 OFFCURVE",
"575 215 OFFCURVE",
"575 142 CURVE SMOOTH",
"575 117 OFFCURVE",
"549 103 OFFCURVE",
"503 103 CURVE SMOOTH",
"441 103 OFFCURVE",
"407 129 OFFCURVE",
"404 169 CURVE",
"278 151 LINE",
"287 47 OFFCURVE",
"364 -10 OFFCURVE",
"496 -10 CURVE SMOOTH"
);
},
{
closed = 1;
nodes = (
"241 0 LINE",
"241 459 LINE SMOOTH",
"241 576 OFFCURVE",
"299 637 OFFCURVE",
"392 637 CURVE SMOOTH",
"503 637 OFFCURVE",
"524 561 OFFCURVE",
"478 458 CURVE",
"602 397 LINE",
"649 580 OFFCURVE",
"614 750 OFFCURVE",
"387 750 CURVE SMOOTH",
"217 750 OFFCURVE",
"95 639 OFFCURVE",
"95 452 CURVE SMOOTH",
"95 0 LINE"
);
},
{
closed = 1;
nodes = (
"-2 389 LINE",
"177 389 LINE",
"177 510 LINE",
"-2 510 LINE"
);
}
);
};
layerId = "014D4A40-7C7F-4023-B30E-1F55CE5EA091";
paths = (
{
closed = 1;
nodes = (
"627 -10 OFFCURVE",
"713 64 OFFCURVE",
"713 155 CURVE SMOOTH",
"713 352 OFFCURVE",
"459 293 OFFCURVE",
"459 379 CURVE SMOOTH",
"459 441 OFFCURVE",
"597 461 OFFCURVE",
"597 587 CURVE SMOOTH",
"597 685 OFFCURVE",
"513 750 OFFCURVE",
"387 750 CURVE SMOOTH",
"214 750 OFFCURVE",
"95 636 OFFCURVE",
"95 482 CURVE SMOOTH",
"95 0 LINE",
"241 0 LINE",
"241 479 LINE SMOOTH",
"241 578 OFFCURVE",
"292 637 OFFCURVE",
"384 637 CURVE SMOOTH",
"443 637 OFFCURVE",
"471 615 OFFCURVE",
"471 581 CURVE SMOOTH",
"471 513 OFFCURVE",
"320 489 OFFCURVE",
"320 358 CURVE SMOOTH",
"320 173 OFFCURVE",
"575 225 OFFCURVE",
"575 142 CURVE SMOOTH",
"575 117 OFFCURVE",
"549 103 OFFCURVE",
"503 103 CURVE SMOOTH",
"450 103 OFFCURVE",
"420 120 OFFCURVE",
"411 155 CURVE",
"279 137 LINE",
"295 41 OFFCURVE",
"371 -10 OFFCURVE",
"496 -10 CURVE SMOOTH"
);
},
{
closed = 1;
nodes = (
"177 389 LINE",
"177 510 LINE",
"-2 510 LINE",
"-2 389 LINE"
);
}
);
width = 732;
}
);
leftMetricsKey = f;
unicode = 00DF;
},
{
color = 4;
glyphname = t;
lastChange = "2019-03-20 09:03:50 +0000";
layers = (
{
background = {
paths = (
{
closed = 1;
nodes = (
"319 -8 OFFCURVE",
"362 3 OFFCURVE",
"391 28 CURVE",
"366 90 LINE",
"336 68 OFFCURVE",
"312 62 OFFCURVE",
"281 62 CURVE SMOOTH",
"213 62 OFFCURVE",
"181 103 OFFCURVE",
"182 166 CURVE SMOOTH",
"187 600 LINE",
"126 600 LINE",
"117 559 OFFCURVE",
"111 518 OFFCURVE",
"107 477 CURVE",
"103 160 LINE SMOOTH",
"102 58 OFFCURVE",
"161 -8 OFFCURVE",
"277 -8 CURVE SMOOTH"
);
},
{
closed = 1;
nodes = (
"358 432 LINE",
"358 498 LINE",
"19 498 LINE",
"19 432 LINE"
);
}
);
};
layerId = "A3B50665-EA37-4AC6-885C-1233CA61B6BD";
paths = (
{
closed = 1;
nodes = (
"319 -8 OFFCURVE",
"362 3 OFFCURVE",
"391 28 CURVE",
"366 90 LINE",
"336 68 OFFCURVE",
"312 62 OFFCURVE",
"281 62 CURVE SMOOTH",
"213 62 OFFCURVE",
"181 103 OFFCURVE",
"182 166 CURVE SMOOTH",
"187 602 LINE",
"109 602 LINE",
"103 160 LINE SMOOTH",
"102 58 OFFCURVE",
"161 -8 OFFCURVE",
"277 -8 CURVE SMOOTH"
);
},
{
closed = 1;
nodes = (
"358 432 LINE",
"358 498 LINE",
"19 498 LINE",
"19 432 LINE"
);
}
);
width = 402;
},
{
background = {
paths = (
{
closed = 1;
nodes = (
"356 -10 OFFCURVE",
"410 5 OFFCURVE",
"442 32 CURVE",
"400 143 LINE",
"370 122 OFFCURVE",
"344 116 OFFCURVE",
"315 116 CURVE SMOOTH",
"263 116 OFFCURVE",
"236 145 OFFCURVE",
"237 205 CURVE SMOOTH",
"243 610 LINE",
"129 610 LINE",
"114 569 OFFCURVE",
"102 529 OFFCURVE",
"95 488 CURVE",
"91 189 LINE SMOOTH",
"89 56 OFFCURVE",
"165 -10 OFFCURVE",
"291 -10 CURVE SMOOTH"
);
},
{
closed = 1;
nodes = (
"402 387 LINE",
"402 508 LINE",
"10 508 LINE",
"10 387 LINE"
);
}
);
};
guideLines = (
{
angle = 268.9258;
position = "{234, 307}";
}
);
layerId = "014D4A40-7C7F-4023-B30E-1F55CE5EA091";
paths = (
{
closed = 1;
nodes = (
"356 -10 OFFCURVE",
"410 5 OFFCURVE",
"442 32 CURVE",
"400 143 LINE",
"370 122 OFFCURVE",
"344 116 OFFCURVE",
"315 116 CURVE SMOOTH",
"263 116 OFFCURVE",
"236 145 OFFCURVE",
"237 205 CURVE SMOOTH",
"243 612 LINE",
"99 612 LINE",
"91 189 LINE SMOOTH",
"89 66 OFFCURVE",
"167 -10 OFFCURVE",
"291 -10 CURVE SMOOTH"
);
},
{
closed = 1;
nodes = (
"402 387 LINE",
"402 508 LINE",
"10 508 LINE",
"10 387 LINE"
);
}
);
width = 455;
}
);
unicode = 0074;
},
{
color = 4;
glyphname = u;
lastChange = "2019-03-20 10:07:07 +0000";
layers = (
{
background = {
paths = (
{
closed = 1;
nodes = (
"340 -8 OFFCURVE",
"417 73 OFFCURVE",
"443 207 CURVE",
"433 208 LINE",
"425 0 LINE",
"501 0 LINE",
"501 498 LINE",
"426 498 LINE",
"425 171 OFFCURVE",
"353 65 OFFCURVE",
"254 65 CURVE SMOOTH",
"186 65 OFFCURVE",
"156 114 OFFCURVE",
"157 199 CURVE SMOOTH",
"160 498 LINE",
"82 498 LINE",
"79 190 LINE SMOOTH",
"78 66 OFFCURVE",
"134 -8 OFFCURVE",
"235 -8 CURVE SMOOTH"
);
}
);
};
layerId = "A3B50665-EA37-4AC6-885C-1233CA61B6BD";
paths = (
{
closed = 1;
nodes = (
"340 -8 OFFCURVE",
"417 73 OFFCURVE",
"443 217 CURVE",
"433 208 LINE",
"425 0 LINE",
"501 0 LINE",
"501 498 LINE",
"426 498 LINE",
"425 171 OFFCURVE",
"353 65 OFFCURVE",
"254 65 CURVE SMOOTH",
"186 65 OFFCURVE",
"156 114 OFFCURVE",
"157 199 CURVE SMOOTH",
"160 498 LINE",
"82 498 LINE",
"79 190 LINE SMOOTH",
"78 66 OFFCURVE",
"134 -8 OFFCURVE",
"235 -8 CURVE SMOOTH"
);
}
);
width = 584;
},
{
background = {
paths = (
{
closed = 1;
nodes = (
"416 506 LINE",
"413 209 OFFCURVE",
"357 125 OFFCURVE",
"277 125 CURVE SMOOTH",
"229 125 OFFCURVE",
"208 165 OFFCURVE",
"209 236 CURVE SMOOTH",
"211 506 LINE",
"65 506 LINE",
"63 225 LINE SMOOTH",
"62 74 OFFCURVE",
"121 -10 OFFCURVE",
"238 -10 CURVE SMOOTH",
"349 -10 OFFCURVE",
"434 75 OFFCURVE",
"459 207 CURVE",
"425 177 LINE",
"415 -2 LINE",
"562 -2 LINE",
"562 506 LINE"
);
}
);
};
layerId = "014D4A40-7C7F-4023-B30E-1F55CE5EA091";
paths = (
{
closed = 1;
nodes = (
"349 -10 OFFCURVE",
"434 76 OFFCURVE",
"459 219 CURVE",
"426 199 LINE",
"415 0 LINE",
"557 0 LINE",
"557 508 LINE",
"416 508 LINE",
"413 209 OFFCURVE",
"357 126 OFFCURVE",
"277 126 CURVE SMOOTH",
"229 126 OFFCURVE",
"208 165 OFFCURVE",
"209 226 CURVE SMOOTH",
"211 508 LINE",
"65 508 LINE",
"63 215 LINE SMOOTH",
"62 74 OFFCURVE",
"121 -10 OFFCURVE",
"238 -10 CURVE SMOOTH"
);
}
);
width = 626;
}
);
leftMetricsKey = "=|n";
note = u;
rightMetricsKey = "=|n";
unicode = 0075;
},
{
color = 3;
glyphname = v;
lastChange = "2019-03-14 10:23:03 +0000";
layers = (
{
background = {
paths = (
{
closed = 1;
nodes = (
"254 24 LINE",
"282 23 LINE",
"134 498 LINE",
"48 498 LINE",
"207 0 LINE",
"324 0 LINE",
"516 498 LINE",
"433 498 LINE"
);
}
);
};
layerId = "A3B50665-EA37-4AC6-885C-1233CA61B6BD";
paths = (
{
closed = 1;
nodes = (
"254 24 LINE",
"282 23 LINE",
"134 498 LINE",
"48 498 LINE",
"209 0 LINE",
"322 0 LINE",
"516 498 LINE",
"433 498 LINE"
);
}
);
width = 534;
},
{
background = {
paths = (
{
closed = 1;
nodes = (
"257 35 LINE",
"312 35 LINE",
"173 508 LINE",
"15 508 LINE",
"174 0 LINE",
"384 0 LINE",
"570 508 LINE",
"425 508 LINE"
);
}
);
};
guideLines = (
{
angle = 68.7799;
position = "{325, 235}";
}
);
layerId = "014D4A40-7C7F-4023-B30E-1F55CE5EA091";
paths = (
{
closed = 1;
nodes = (
"257 35 LINE",
"312 35 LINE",
"173 508 LINE",
"15 508 LINE",
"175 0 LINE",
"383 0 LINE",
"570 508 LINE",
"425 508 LINE"
);
}
);
width = 556;
}
);
unicode = 0076;
},
{
color = 3;
glyphname = w;
lastChange = "2019-03-14 10:23:03 +0000";
layers = (
{
background = {
paths = (
{
closed = 1;
nodes = (
"602 24 LINE",
"641 23 LINE",
"497 497 LINE",
"413 497 LINE",
"238 24 LINE",
"280 23 LINE",
"138 497 LINE",
"52 497 LINE",
"208 0 LINE",
"304 0 LINE",
"464 427 LINE",
"441 427 LINE",
"573 0 LINE",
"669 0 LINE",
"854 497 LINE",
"771 497 LINE"
);
}
);
};
layerId = "A3B50665-EA37-4AC6-885C-1233CA61B6BD";
paths = (
{
closed = 1;
nodes = (
"602 24 LINE",
"641 23 LINE",
"497 497 LINE",
"413 497 LINE",
"238 24 LINE",
"280 23 LINE",
"138 497 LINE",
"52 497 LINE",
"209 0 LINE",
"303 0 LINE",
"464 427 LINE",
"441 427 LINE",
"574 0 LINE",
"668 0 LINE",
"854 497 LINE",
"771 497 LINE"
);
}
);
width = 879;
},
{
background = {
paths = (
{
closed = 1;
nodes = (
"613 71 LINE",
"653 70 LINE",
"531 508 LINE",
"391 508 LINE",
"248 71 LINE",
"290 70 LINE",
"166 508 LINE",
"17 508 LINE",
"175 0 LINE",
"351 0 LINE",
"466 339 LINE",
"450 339 LINE",
"547 0 LINE",
"723 0 LINE",
"898 508 LINE",
"756 508 LINE"
);
}
);
};
layerId = "014D4A40-7C7F-4023-B30E-1F55CE5EA091";
paths = (
{
closed = 1;
nodes = (
"605 46 LINE",
"660 46 LINE",
"531 508 LINE",
"391 508 LINE",
"240 46 LINE",
"297 46 LINE",
"166 508 LINE",
"17 508 LINE",
"176 0 LINE",
"350 0 LINE",
"466 339 LINE",
"450 339 LINE",
"548 0 LINE",
"722 0 LINE",
"898 508 LINE",
"756 508 LINE"
);
}
);
width = 892;
}
);
unicode = 0077;
},
{
color = 3;
glyphname = x;
lastChange = "2019-03-12 20:50:32 +0000";
layers = (
{
background = {
paths = (
{
closed = 1;
nodes = (
"468 0 LINE",
"112 498 LINE",
"19 498 LINE",
"374 0 LINE"
);
},
{
closed = 1;
nodes = (
"458 498 LINE",
"372 498 LINE",
"9 0 LINE",
"95 0 LINE"
);
}
);
};
layerId = "A3B50665-EA37-4AC6-885C-1233CA61B6BD";
paths = (
{
closed = 1;
nodes = (
"471 0 LINE",
"288 258 LINE",
"245 316 LINE",
"117 498 LINE",
"24 498 LINE",
"199 253 LINE",
"242 195 LINE",
"377 0 LINE"
);
},
{
closed = 1;
nodes = (
"242 195 LINE",
"288 258 LINE",
"463 498 LINE",
"377 498 LINE",
"245 316 LINE",
"199 253 LINE",
"17 0 LINE",
"103 0 LINE"
);
}
);
width = 488;
},
{
background = {
paths = (
{
closed = 1;
nodes = (
"1252 0 LINE",
"888 508 LINE",
"711 508 LINE",
"1074 0 LINE"
);
},
{
closed = 1;
nodes = (
"1240 508 LINE",
"1071 508 LINE",
"696 0 LINE",
"866 0 LINE"
);
},
{
closed = 1;
nodes = (
"171 0 LINE",
"171 70 LINE SMOOTH",
"171 314 OFFCURVE",
"244 381 OFFCURVE",
"311 381 CURVE SMOOTH",
"364 381 OFFCURVE",
"386 341 OFFCURVE",
"386 270 CURVE SMOOTH",
"386 0 LINE",
"532 0 LINE",
"532 281 LINE SMOOTH",
"532 432 OFFCURVE",
"473 516 OFFCURVE",
"350 516 CURVE SMOOTH",
"256 516 OFFCURVE",
"160 449 OFFCURVE",
"138 321 CURVE",
"166 349 LINE",
"169 392 OFFCURVE",
"172 435 OFFCURVE",
"172 478 CURVE SMOOTH",
"172 508 LINE",
"26 508 LINE",
"26 0 LINE"
);
}
);
};
layerId = "014D4A40-7C7F-4023-B30E-1F55CE5EA091";
paths = (
{
closed = 1;
nodes = (
"547 0 LINE",
"360 266 LINE",
"278 381 LINE",
"188 508 LINE",
"11 508 LINE",
"189 260 LINE",
"272 145 LINE",
"369 0 LINE"
);
},
{
closed = 1;
nodes = (
"272 145 LINE",
"360 266 LINE",
"539 508 LINE",
"370 508 LINE",
"278 381 LINE",
"189 260 LINE",
"1 0 LINE",
"170 0 LINE"
);
}
);
width = 548;
}
);
unicode = 0078;
},
{
color = 4;
glyphname = y;
lastChange = "2019-03-20 10:07:15 +0000";
layers = (
{
background = {
paths = (
{
closed = 1;
nodes = (
"344 2 OFFCURVE",
"422 81 OFFCURVE",
"448 213 CURVE",
"435 178 LINE",
"430 0 LINE",
"506 0 LINE",
"506 498 LINE",
"431 498 LINE",
"430 179 OFFCURVE",
"357 76 OFFCURVE",
"255 76 CURVE SMOOTH",
"186 76 OFFCURVE",
"156 124 OFFCURVE",
"157 207 CURVE SMOOTH",
"160 498 LINE",
"82 498 LINE",
"79 196 LINE SMOOTH",
"78 74 OFFCURVE",
"135 2 OFFCURVE",
"237 2 CURVE SMOOTH"
);
}
);
};
layerId = "A3B50665-EA37-4AC6-885C-1233CA61B6BD";
paths = (
{
closed = 1;
nodes = (
"421 -210 OFFCURVE",
"506 -117 OFFCURVE",
"506 69 CURVE SMOOTH",
"506 498 LINE",
"431 498 LINE",
"430 179 OFFCURVE",
"357 76 OFFCURVE",
"255 76 CURVE SMOOTH",
"186 76 OFFCURVE",
"156 124 OFFCURVE",
"157 207 CURVE SMOOTH",
"160 498 LINE",
"82 498 LINE",
"79 196 LINE SMOOTH",
"78 74 OFFCURVE",
"135 2 OFFCURVE",
"237 2 CURVE SMOOTH",
"344 2 OFFCURVE",
"422 81 OFFCURVE",
"447 223 CURVE",
"436 218 LINE",
"432 58 LINE SMOOTH",
"429 -80 OFFCURVE",
"381 -139 OFFCURVE",
"254 -139 CURVE SMOOTH",
"205 -139 OFFCURVE",
"152 -127 OFFCURVE",
"108 -105 CURVE",
"87 -175 LINE",
"130 -199 OFFCURVE",
"195 -210 OFFCURVE",
"252 -210 CURVE SMOOTH"
);
}
);
width = 589;
},
{
background = {
paths = (
{
closed = 1;
nodes = (
"352 9 OFFCURVE",
"438 91 OFFCURVE",
"463 218 CURVE",
"429 179 LINE",
"419 0 LINE",
"561 0 LINE",
"561 508 LINE",
"420 508 LINE",
"417 224 OFFCURVE",
"360 145 OFFCURVE",
"278 145 CURVE SMOOTH",
"230 145 OFFCURVE",
"209 182 OFFCURVE",
"209 240 CURVE SMOOTH",
"211 508 LINE",
"65 508 LINE",
"63 226 LINE SMOOTH",
"62 90 OFFCURVE",
"121 9 OFFCURVE",
"240 9 CURVE SMOOTH"
);
}
);
};
guideLines = (
{
angle = 68.7799;
position = "{328, 235}";
}
);
layerId = "014D4A40-7C7F-4023-B30E-1F55CE5EA091";
paths = (
{
closed = 1;
nodes = (
"444 -210 OFFCURVE",
"561 -114 OFFCURVE",
"561 96 CURVE SMOOTH",
"561 508 LINE",
"420 508 LINE",
"417 224 OFFCURVE",
"360 145 OFFCURVE",
"278 145 CURVE SMOOTH",
"230 145 OFFCURVE",
"209 182 OFFCURVE",
"209 240 CURVE SMOOTH",
"211 508 LINE",
"65 508 LINE",
"63 226 LINE SMOOTH",
"62 90 OFFCURVE",
"121 9 OFFCURVE",
"240 9 CURVE SMOOTH",
"352 9 OFFCURVE",
"438 93 OFFCURVE",
"463 230 CURVE",
"430 208 LINE",
"422 79 LINE SMOOTH",
"415 -32 OFFCURVE",
"374 -82 OFFCURVE",
"261 -82 CURVE SMOOTH",
"197 -82 OFFCURVE",
"147 -67 OFFCURVE",
"102 -44 CURVE",
"67 -169 LINE",
"112 -198 OFFCURVE",
"192 -210 OFFCURVE",
"253 -210 CURVE SMOOTH"
);
}
);
width = 630;
}
);
leftMetricsKey = u;
rightMetricsKey = u;
unicode = 0079;
},
{
color = 3;
glyphname = z;
lastChange = "2019-03-12 20:51:18 +0000";
layers = (
{
layerId = "A3B50665-EA37-4AC6-885C-1233CA61B6BD";
paths = (
{
closed = 1;
nodes = (
"429 0 LINE",
"429 67 LINE",
"123 67 LINE",
"124 27 LINE",
"431 443 LINE",
"431 498 LINE",
"66 498 LINE",
"66 433 LINE",
"365 433 LINE",
"361 471 LINE",
"54 55 LINE",
"54 0 LINE"
);
}
);
width = 480;
},
{
background = {
paths = (
{
closed = 1;
nodes = (
"464 0 LINE",
"464 121 LINE",
"192 121 LINE",
"197 84 LINE",
"464 403 LINE",
"464 508 LINE",
"57 508 LINE",
"57 387 LINE",
"319 387 LINE",
"311 424 LINE",
"49 110 LINE",
"49 0 LINE"
);
}
);
};
layerId = "014D4A40-7C7F-4023-B30E-1F55CE5EA091";
paths = (
{
closed = 1;
nodes = (
"464 0 LINE",
"464 121 LINE",
"194 121 LINE",
"202 84 LINE",
"464 403 LINE",
"464 508 LINE",
"57 508 LINE",
"57 387 LINE",
"317 387 LINE",
"311 424 LINE",
"49 110 LINE",
"49 0 LINE"
);
}
);
width = 501;
}
);
unicode = 007A;
},
{
color = 3;
glyphname = f.ss01;
lastChange = "2019-03-14 10:23:03 +0000";
layers = (
{
background = {
paths = (
{
closed = 1;
nodes = (
"185 0 LINE",
"185 454 LINE",
"184 489 LINE",
"184 540 LINE SMOOTH",
"184 636 OFFCURVE",
"225 683 OFFCURVE",
"293 683 CURVE SMOOTH",
"346 683 OFFCURVE",
"380 655 OFFCURVE",
"384 610 CURVE",
"449 618 LINE",
"442 702 OFFCURVE",
"387 750 OFFCURVE",
"294 750 CURVE SMOOTH",
"182 750 OFFCURVE",
"107 670 OFFCURVE",
"107 532 CURVE SMOOTH",
"107 0 LINE"
);
},
{
closed = 1;
nodes = (
"8 432 LINE",
"352 432 LINE",
"352 498 LINE",
"8 498 LINE"
);
}
);
};
layerId = "A3B50665-EA37-4AC6-885C-1233CA61B6BD";
paths = (
{
closed = 1;
nodes = (
"185 0 LINE",
"185 454 LINE",
"184 489 LINE",
"184 540 LINE SMOOTH",
"184 636 OFFCURVE",
"225 683 OFFCURVE",
"293 683 CURVE SMOOTH",
"316 683 OFFCURVE",
"336 678 OFFCURVE",
"351 668 CURVE",
"382 727 LINE",
"359 743 OFFCURVE",
"329 750 OFFCURVE",
"294 750 CURVE SMOOTH",
"182 750 OFFCURVE",
"107 670 OFFCURVE",
"107 532 CURVE SMOOTH",
"107 0 LINE"
);
},
{
closed = 1;
nodes = (
"352 432 LINE",
"352 498 LINE",
"8 498 LINE",
"8 432 LINE"
);
}
);
width = 360;
},
{
background = {
paths = (
{
closed = 1;
nodes = (
"239 0 LINE",
"239 419 LINE",
"237 487 LINE",
"237 539 LINE SMOOTH",
"237 596 OFFCURVE",
"267 627 OFFCURVE",
"315 627 CURVE SMOOTH",
"347 627 OFFCURVE",
"370 611 OFFCURVE",
"374 582 CURVE",
"500 597 LINE",
"485 701 OFFCURVE",
"423 750 OFFCURVE",
"317 750 CURVE SMOOTH",
"187 750 OFFCURVE",
"93 662 OFFCURVE",
"93 525 CURVE SMOOTH",
"93 0 LINE"
);
},
{
closed = 1;
nodes = (
"-2 389 LINE",
"377 389 LINE",
"377 510 LINE",
"-2 510 LINE"
);
}
);
};
layerId = "014D4A40-7C7F-4023-B30E-1F55CE5EA091";
paths = (
{
closed = 1;
nodes = (
"239 0 LINE",
"239 419 LINE",
"237 487 LINE",
"237 539 LINE SMOOTH",
"237 596 OFFCURVE",
"267 627 OFFCURVE",
"315 627 CURVE SMOOTH",
"334 627 OFFCURVE",
"353 621 OFFCURVE",
"365 614 CURVE",
"427 718 LINE",
"402 739 OFFCURVE",
"362 750 OFFCURVE",
"317 750 CURVE SMOOTH",
"187 750 OFFCURVE",
"93 662 OFFCURVE",
"93 525 CURVE SMOOTH",
"93 0 LINE"
);
},
{
closed = 1;
nodes = (
"377 389 LINE",
"377 510 LINE",
"-2 510 LINE",
"-2 389 LINE"
);
}
);
width = 393;
}
);
leftMetricsKey = f;
widthMetricsKey = f;
},
{
color = 3;
export = 0;
glyphname = l.ss01;
lastChange = "2019-03-12 21:45:10 +0000";
layers = (
{
background = {
paths = (
{
closed = 1;
nodes = (
"244 -8 OFFCURVE",
"276 2 OFFCURVE",
"296 22 CURVE",
"264 79 LINE",
"253 72 OFFCURVE",
"238 62 OFFCURVE",
"217 62 CURVE SMOOTH",
"182 62 OFFCURVE",
"161 87 OFFCURVE",
"161 133 CURVE SMOOTH",
"161 710 LINE",
"83 710 LINE",
"83 130 LINE SMOOTH",
"83 42 OFFCURVE",
"129 -8 OFFCURVE",
"208 -8 CURVE SMOOTH"
);
}
);
};
layerId = "A3B50665-EA37-4AC6-885C-1233CA61B6BD";
paths = (
{
closed = 1;
nodes = (
"161 0 LINE",
"161 740 LINE",
"83 740 LINE",
"83 0 LINE"
);
}
);
width = 244;
},
{
background = {
paths = (
{
closed = 1;
nodes = (
"868 -10 OFFCURVE",
"911 2 OFFCURVE",
"932 18 CURVE",
"898 129 LINE",
"888 122 OFFCURVE",
"874 117 OFFCURVE",
"858 117 CURVE SMOOTH",
"828 117 OFFCURVE",
"815 137 OFFCURVE",
"815 162 CURVE SMOOTH",
"815 710 LINE",
"669 709 LINE",
"669 139 LINE SMOOTH",
"669 51 OFFCURVE",
"725 -10 OFFCURVE",
"824 -10 CURVE SMOOTH"
);
},
{
closed = 1;
nodes = (
"277 -8 OFFCURVE",
"311 2 OFFCURVE",
"329 22 CURVE",
"308 76 LINE",
"297 69 OFFCURVE",
"276 59 OFFCURVE",
"255 59 CURVE SMOOTH",
"220 59 OFFCURVE",
"199 85 OFFCURVE",
"199 134 CURVE SMOOTH",
"199 710 LINE",
"121 710 LINE",
"121 124 LINE SMOOTH",
"121 42 OFFCURVE",
"162 -8 OFFCURVE",
"246 -8 CURVE SMOOTH"
);
}
);
};
layerId = "014D4A40-7C7F-4023-B30E-1F55CE5EA091";
paths = (
{
closed = 1;
nodes = (
"215 0 LINE",
"215 740 LINE",
"69 739 LINE",
"69 0 LINE"
);
}
);
width = 284;
}
);
leftMetricsKey = h;
note = l;
rightMetricsKey = "=|";
},
{
color = 3;
glyphname = zero;
lastChange = "2019-03-14 23:09:56 +0000";
layers = (
{
background = {
paths = (
{
closed = 1;
nodes = (
"445 -8 OFFCURVE",
"549 129 OFFCURVE",
"549 369 CURVE SMOOTH",
"549 590 OFFCURVE",
"456 720 OFFCURVE",
"311 720 CURVE SMOOTH",
"156 720 OFFCURVE",
"51 574 OFFCURVE",
"51 342 CURVE SMOOTH",
"51 110 OFFCURVE",
"143 -8 OFFCURVE",
"297 -8 CURVE SMOOTH"
);
},
{
closed = 1;
nodes = (
"193 65 OFFCURVE",
"131 154 OFFCURVE",
"131 342 CURVE SMOOTH",
"131 536 OFFCURVE",
"204 648 OFFCURVE",
"311 648 CURVE SMOOTH",
"409 648 OFFCURVE",
"470 550 OFFCURVE",
"470 371 CURVE SMOOTH",
"470 167 OFFCURVE",
"400 65 OFFCURVE",
"297 65 CURVE SMOOTH"
);
}
);
};
layerId = "A3B50665-EA37-4AC6-885C-1233CA61B6BD";
paths = (
{
closed = 1;
nodes = (
"445 -8 OFFCURVE",
"547 134 OFFCURVE",
"547 369 CURVE SMOOTH",
"547 593 OFFCURVE",
"456 720 OFFCURVE",
"311 720 CURVE SMOOTH",
"156 720 OFFCURVE",
"53 569 OFFCURVE",
"53 342 CURVE SMOOTH",
"53 107 OFFCURVE",
"143 -8 OFFCURVE",
"297 -8 CURVE SMOOTH"
);
},
{
closed = 1;
nodes = (
"193 65 OFFCURVE",
"133 154 OFFCURVE",
"133 342 CURVE SMOOTH",
"133 536 OFFCURVE",
"204 648 OFFCURVE",
"311 648 CURVE SMOOTH",
"409 648 OFFCURVE",
"468 550 OFFCURVE",
"468 371 CURVE SMOOTH",
"468 167 OFFCURVE",
"400 65 OFFCURVE",
"297 65 CURVE SMOOTH"
);
}
);
width = 600;
},
{
background = {
paths = (
{
closed = 1;
nodes = (
"466 -8 OFFCURVE",
"567 137 OFFCURVE",
"567 369 CURVE SMOOTH",
"567 589 OFFCURVE",
"472 720 OFFCURVE",
"312 720 CURVE SMOOTH",
"139 720 OFFCURVE",
"33 577 OFFCURVE",
"33 342 CURVE SMOOTH",
"33 111 OFFCURVE",
"128 -12 OFFCURVE",
"303 -10 CURVE SMOOTH"
);
},
{
closed = 1;
nodes = (
"222 122 OFFCURVE",
"185 194 OFFCURVE",
"185 345 CURVE SMOOTH",
"185 499 OFFCURVE",
"230 589 OFFCURVE",
"308 589 CURVE SMOOTH",
"379 589 OFFCURVE",
"416 513 OFFCURVE",
"416 368 CURVE SMOOTH",
"416 208 OFFCURVE",
"375 122 OFFCURVE",
"299 122 CURVE SMOOTH"
);
}
);
};
layerId = "014D4A40-7C7F-4023-B30E-1F55CE5EA091";
paths = (
{
closed = 1;
nodes = (
"466 -8 OFFCURVE",
"565 147 OFFCURVE",
"565 369 CURVE SMOOTH",
"565 599 OFFCURVE",
"472 720 OFFCURVE",
"312 720 CURVE SMOOTH",
"139 720 OFFCURVE",
"35 567 OFFCURVE",
"35 342 CURVE SMOOTH",
"35 101 OFFCURVE",
"128 -12 OFFCURVE",
"303 -10 CURVE SMOOTH"
);
},
{
closed = 1;
nodes = (
"222 122 OFFCURVE",
"187 194 OFFCURVE",
"187 345 CURVE SMOOTH",
"187 499 OFFCURVE",
"230 589 OFFCURVE",
"308 589 CURVE SMOOTH",
"379 589 OFFCURVE",
"414 513 OFFCURVE",
"414 368 CURVE SMOOTH",
"414 208 OFFCURVE",
"375 122 OFFCURVE",
"299 122 CURVE SMOOTH"
);
}
);
width = 600;
}
);
leftKerningGroup = zero;
rightKerningGroup = zero;
unicode = 0030;
},
{
color = 3;
glyphname = one;
lastChange = "2019-03-15 13:38:24 +0000";
layers = (
{
background = {
paths = (
{
closed = 1;
nodes = (
"366 36 LINE",
"366 712 LINE",
"320 712 LINE",
"140 597 LINE",
"140 519 LINE",
"333 642 LINE",
"286 667 LINE",
"286 36 LINE"
);
},
{
closed = 1;
nodes = (
"523 0 LINE",
"523 67 LINE",
"129 67 LINE",
"129 0 LINE"
);
}
);
};
layerId = "A3B50665-EA37-4AC6-885C-1233CA61B6BD";
paths = (
{
closed = 1;
nodes = (
"363 37 LINE",
"363 710 LINE",
"318 710 LINE",
"102 563 LINE",
"140 507 LINE",
"331 635 LINE",
"283 665 LINE",
"283 37 LINE"
);
},
{
closed = 1;
nodes = (
"517 0 LINE",
"517 67 LINE",
"129 67 LINE",
"129 0 LINE"
);
}
);
width = 600;
},
{
background = {
paths = (
{
closed = 1;
nodes = (
"1113 75 LINE",
"1113 712 LINE",
"1018 712 LINE",
"807 589 LINE",
"807 448 LINE",
"1027 577 LINE",
"951 583 LINE",
"951 75 LINE"
);
},
{
closed = 1;
nodes = (
"1267 0 LINE",
"1267 130 LINE",
"797 130 LINE",
"797 0 LINE"
);
},
{
closed = 1;
nodes = (
"367 37 LINE",
"367 710 LINE",
"322 710 LINE",
"106 563 LINE",
"144 507 LINE",
"335 635 LINE",
"287 665 LINE",
"287 37 LINE"
);
},
{
closed = 1;
nodes = (
"527 0 LINE",
"527 66 LINE",
"133 66 LINE",
"133 0 LINE"
);
}
);
};
layerId = "014D4A40-7C7F-4023-B30E-1F55CE5EA091";
paths = (
{
closed = 1;
nodes = (
"407 75 LINE",
"407 710 LINE",
"322 710 LINE",
"82 547 LINE",
"153 441 LINE",
"345 573 LINE",
"257 581 LINE",
"257 75 LINE"
);
},
{
closed = 1;
nodes = (
"557 0 LINE",
"557 124 LINE",
"107 124 LINE",
"107 0 LINE"
);
}
);
width = 600;
}
);
leftKerningGroup = one;
rightKerningGroup = one;
unicode = 0031;
},
{
color = 3;
glyphname = two;
lastChange = "2019-03-15 13:56:10 +0000";
layers = (
{
background = {
paths = (
{
closed = 1;
nodes = (
"530 0 LINE",
"530 67 LINE",
"156 67 LINE",
"168 41 LINE",
"419 238 OFFCURVE",
"514 380 OFFCURVE",
"513 516 CURVE SMOOTH",
"512 649 OFFCURVE",
"419 720 OFFCURVE",
"297 720 CURVE SMOOTH",
"185 720 OFFCURVE",
"102 648 OFFCURVE",
"69 542 CURVE",
"135 514 LINE",
"165 601 OFFCURVE",
"214 646 OFFCURVE",
"295 646 CURVE SMOOTH",
"371 646 OFFCURVE",
"430 597 OFFCURVE",
"430 510 CURVE SMOOTH",
"430 405 OFFCURVE",
"360 273 OFFCURVE",
"96 54 CURVE",
"96 0 LINE"
);
}
);
};
layerId = "A3B50665-EA37-4AC6-885C-1233CA61B6BD";
paths = (
{
closed = 1;
nodes = (
"530 0 LINE",
"530 67 LINE",
"156 67 LINE",
"168 41 LINE",
"419 238 OFFCURVE",
"512 380 OFFCURVE",
"511 516 CURVE SMOOTH",
"510 649 OFFCURVE",
"419 720 OFFCURVE",
"302 720 CURVE SMOOTH",
"182 720 OFFCURVE",
"100 647 OFFCURVE",
"70 542 CURVE",
"136 514 LINE",
"163 601 OFFCURVE",
"211 646 OFFCURVE",
"300 646 CURVE SMOOTH",
"371 646 OFFCURVE",
"430 597 OFFCURVE",
"430 510 CURVE SMOOTH",
"430 405 OFFCURVE",
"360 273 OFFCURVE",
"96 54 CURVE",
"96 0 LINE"
);
}
);
width = 600;
},
{
background = {
paths = (
{
closed = 1;
nodes = (
"1342 0 LINE",
"1342 124 LINE",
"1000 124 LINE",
"997 81 LINE",
"1250 242 OFFCURVE",
"1325 374 OFFCURVE",
"1325 511 CURVE SMOOTH",
"1325 638 OFFCURVE",
"1234 720 OFFCURVE",
"1100 720 CURVE SMOOTH",
"977 720 OFFCURVE",
"889 656 OFFCURVE",
"843 543 CURVE",
"956 484 LINE",
"982 549 OFFCURVE",
"1026 587 OFFCURVE",
"1083 587 CURVE SMOOTH",
"1140 587 OFFCURVE",
"1174 555 OFFCURVE",
"1174 498 CURVE SMOOTH",
"1174 398 OFFCURVE",
"1085 259 OFFCURVE",
"867 102 CURVE",
"867 0 LINE"
);
},
{
closed = 1;
nodes = (
"427 -10 OFFCURVE",
"543 79 OFFCURVE",
"543 204 CURVE SMOOTH",
"543 292 OFFCURVE",
"491 349 OFFCURVE",
"400 370 CURVE",
"400 362 LINE",
"480 388 OFFCURVE",
"525 455 OFFCURVE",
"525 527 CURVE SMOOTH",
"525 644 OFFCURVE",
"435 720 OFFCURVE",
"301 720 CURVE SMOOTH",
"175 720 OFFCURVE",
"77 647 OFFCURVE",
"44 543 CURVE",
"157 484 LINE",
"173 547 OFFCURVE",
"217 587 OFFCURVE",
"283 587 CURVE SMOOTH",
"341 587 OFFCURVE",
"375 555 OFFCURVE",
"375 506 CURVE SMOOTH",
"375 459 OFFCURVE",
"333 423 OFFCURVE",
"252 423 CURVE SMOOTH",
"216 423 LINE",
"216 297 LINE",
"260 297 LINE SMOOTH",
"344 297 OFFCURVE",
"390 270 OFFCURVE",
"390 213 CURVE SMOOTH",
"390 159 OFFCURVE",
"355 120 OFFCURVE",
"251 120 CURVE SMOOTH",
"180 120 OFFCURVE",
"124 137 OFFCURVE",
"79 162 CURVE",
"43 35 LINE",
"90 4 OFFCURVE",
"175 -10 OFFCURVE",
"246 -10 CURVE SMOOTH"
);
}
);
};
guideLines = (
{
angle = 225.9674;
position = "{399, 274}";
},
{
angle = 90;
position = "{566, 419}";
}
);
layerId = "014D4A40-7C7F-4023-B30E-1F55CE5EA091";
paths = (
{
closed = 1;
nodes = (
"542 0 LINE",
"542 124 LINE",
"200 124 LINE",
"197 81 LINE",
"450 242 OFFCURVE",
"525 374 OFFCURVE",
"525 511 CURVE SMOOTH",
"525 638 OFFCURVE",
"441 720 OFFCURVE",
"300 720 CURVE SMOOTH",
"175 720 OFFCURVE",
"77 647 OFFCURVE",
"44 543 CURVE",
"157 484 LINE",
"173 547 OFFCURVE",
"217 587 OFFCURVE",
"283 587 CURVE SMOOTH",
"340 587 OFFCURVE",
"374 555 OFFCURVE",
"374 498 CURVE SMOOTH",
"374 398 OFFCURVE",
"285 259 OFFCURVE",
"67 102 CURVE",
"67 0 LINE"
);
}
);
width = 600;
}
);
leftKerningGroup = two;
rightKerningGroup = two;
unicode = 0032;
},
{
color = 3;
glyphname = three;
lastChange = "2019-03-15 13:56:08 +0000";
layers = (
{
background = {
paths = (
{
closed = 1;
nodes = (
"1136 -7 OFFCURVE",
"1226 69 OFFCURVE",
"1226 192 CURVE SMOOTH",
"1226 288 OFFCURVE",
"1174 351 OFFCURVE",
"1078 371 CURVE",
"1081 361 LINE",
"1160 383 OFFCURVE",
"1210 450 OFFCURVE",
"1210 537 CURVE SMOOTH",
"1210 649 OFFCURVE",
"1129 720 OFFCURVE",
"1000 720 CURVE SMOOTH",
"911 720 OFFCURVE",
"822 687 OFFCURVE",
"765 631 CURVE",
"796 570 LINE",
"861 625 OFFCURVE",
"927 653 OFFCURVE",
"998 653 CURVE SMOOTH",
"1082 653 OFFCURVE",
"1131 610 OFFCURVE",
"1131 532 CURVE SMOOTH",
"1131 444 OFFCURVE",
"1072 395 OFFCURVE",
"966 395 CURVE SMOOTH",
"901 395 LINE",
"901 328 LINE",
"982 328 LINE SMOOTH",
"1092 328 OFFCURVE",
"1148 284 OFFCURVE",
"1148 195 CURVE SMOOTH",
"1148 107 OFFCURVE",
"1093 60 OFFCURVE",
"992 60 CURVE SMOOTH",
"917 60 OFFCURVE",
"850 88 OFFCURVE",
"785 143 CURVE",
"754 82 LINE",
"813 25 OFFCURVE",
"902 -7 OFFCURVE",
"994 -7 CURVE SMOOTH"
);
},
{
closed = 1;
nodes = (
"530 0 LINE",
"530 67 LINE",
"156 67 LINE",
"168 41 LINE",
"419 238 OFFCURVE",
"514 380 OFFCURVE",
"513 516 CURVE SMOOTH",
"512 649 OFFCURVE",
"419 720 OFFCURVE",
"302 720 CURVE SMOOTH",
"182 720 OFFCURVE",
"100 647 OFFCURVE",
"70 542 CURVE",
"136 514 LINE",
"163 601 OFFCURVE",
"211 646 OFFCURVE",
"300 646 CURVE SMOOTH",
"371 646 OFFCURVE",
"430 597 OFFCURVE",
"430 510 CURVE SMOOTH",
"430 405 OFFCURVE",
"360 273 OFFCURVE",
"96 54 CURVE",
"96 0 LINE"
);
}
);
};
layerId = "A3B50665-EA37-4AC6-885C-1233CA61B6BD";
paths = (
{
closed = 1;
nodes = (
"425 -7 OFFCURVE",
"525 71 OFFCURVE",
"525 197 CURVE SMOOTH",
"525 291 OFFCURVE",
"472 351 OFFCURVE",
"377 371 CURVE",
"374 361 LINE",
"459 383 OFFCURVE",
"512 450 OFFCURVE",
"512 537 CURVE SMOOTH",
"512 639 OFFCURVE",
"435 720 OFFCURVE",
"302 720 CURVE SMOOTH",
"182 720 OFFCURVE",
"100 647 OFFCURVE",
"70 542 CURVE",
"136 514 LINE",
"163 601 OFFCURVE",
"211 646 OFFCURVE",
"300 646 CURVE SMOOTH",
"381 646 OFFCURVE",
"431 600 OFFCURVE",
"431 532 CURVE SMOOTH",
"431 444 OFFCURVE",
"372 395 OFFCURVE",
"269 395 CURVE SMOOTH",
"244 395 LINE",
"244 328 LINE",
"285 328 LINE SMOOTH",
"379 328 OFFCURVE",
"444 286 OFFCURVE",
"444 200 CURVE SMOOTH",
"444 109 OFFCURVE",
"373 64 OFFCURVE",
"264 64 CURVE SMOOTH",
"201 64 OFFCURVE",
"141 83 OFFCURVE",
"97 113 CURVE",
"72 43 LINE",
"115 13 OFFCURVE",
"185 -7 OFFCURVE",
"262 -7 CURVE SMOOTH"
);
}
);
width = 600;
},
{
background = {
paths = (
{
closed = 1;
nodes = (
"1252 -8 OFFCURVE",
"1355 69 OFFCURVE",
"1355 194 CURVE SMOOTH",
"1355 286 OFFCURVE",
"1303 349 OFFCURVE",
"1212 370 CURVE",
"1212 362 LINE",
"1291 385 OFFCURVE",
"1337 446 OFFCURVE",
"1337 528 CURVE SMOOTH",
"1337 645 OFFCURVE",
"1241 721 OFFCURVE",
"1094 721 CURVE SMOOTH",
"1000 721 OFFCURVE",
"902 690 OFFCURVE",
"845 642 CURVE",
"897 526 LINE",
"957 570 OFFCURVE",
"1023 594 OFFCURVE",
"1083 594 CURVE SMOOTH",
"1146 594 OFFCURVE",
"1183 563 OFFCURVE",
"1183 506 CURVE SMOOTH",
"1183 449 OFFCURVE",
"1145 423 OFFCURVE",
"1064 423 CURVE SMOOTH",
"978 423 LINE",
"978 297 LINE",
"1082 297 LINE SMOOTH",
"1166 297 OFFCURVE",
"1202 271 OFFCURVE",
"1202 210 CURVE SMOOTH",
"1202 146 OFFCURVE",
"1166 119 OFFCURVE",
"1081 119 CURVE SMOOTH",
"1015 119 OFFCURVE",
"949 142 OFFCURVE",
"887 187 CURVE",
"835 71 LINE",
"892 22 OFFCURVE",
"990 -8 OFFCURVE",
"1088 -8 CURVE SMOOTH"
);
},
{
closed = 1;
nodes = (
"543 0 LINE",
"543 124 LINE",
"201 124 LINE",
"198 81 LINE",
"451 242 OFFCURVE",
"526 374 OFFCURVE",
"526 511 CURVE SMOOTH",
"526 638 OFFCURVE",
"435 720 OFFCURVE",
"301 720 CURVE SMOOTH",
"178 720 OFFCURVE",
"90 656 OFFCURVE",
"44 543 CURVE",
"157 484 LINE",
"183 549 OFFCURVE",
"227 587 OFFCURVE",
"284 587 CURVE SMOOTH",
"341 587 OFFCURVE",
"375 555 OFFCURVE",
"375 498 CURVE SMOOTH",
"375 398 OFFCURVE",
"286 259 OFFCURVE",
"68 102 CURVE",
"68 0 LINE"
);
}
);
};
layerId = "014D4A40-7C7F-4023-B30E-1F55CE5EA091";
paths = (
{
closed = 1;
nodes = (
"427 -10 OFFCURVE",
"540 81 OFFCURVE",
"540 206 CURVE SMOOTH",
"540 294 OFFCURVE",
"491 349 OFFCURVE",
"398 370 CURVE",
"398 362 LINE",
"480 388 OFFCURVE",
"525 455 OFFCURVE",
"525 527 CURVE SMOOTH",
"525 644 OFFCURVE",
"435 720 OFFCURVE",
"301 720 CURVE SMOOTH",
"175 720 OFFCURVE",
"77 647 OFFCURVE",
"44 543 CURVE",
"157 484 LINE",
"173 547 OFFCURVE",
"217 587 OFFCURVE",
"283 587 CURVE SMOOTH",
"341 587 OFFCURVE",
"375 555 OFFCURVE",
"375 512 CURVE SMOOTH",
"375 459 OFFCURVE",
"337 423 OFFCURVE",
"252 423 CURVE SMOOTH",
"216 423 LINE",
"216 297 LINE",
"260 297 LINE SMOOTH",
"344 297 OFFCURVE",
"390 270 OFFCURVE",
"390 213 CURVE SMOOTH",
"390 159 OFFCURVE",
"349 120 OFFCURVE",
"260 120 CURVE SMOOTH",
"193 120 OFFCURVE",
"137 137 OFFCURVE",
"92 164 CURVE",
"56 37 LINE",
"103 4 OFFCURVE",
"188 -10 OFFCURVE",
"255 -10 CURVE SMOOTH"
);
}
);
width = 600;
}
);
leftKerningGroup = three;
rightKerningGroup = three;
unicode = 0033;
},
{
color = 3;
glyphname = four;
lastChange = "2019-03-15 13:31:18 +0000";
layers = (
{
background = {
paths = (
{
closed = 1;
nodes = (
"458 0 LINE",
"458 712 LINE",
"393 712 LINE",
"50 216 LINE",
"50 156 LINE",
"566 156 LINE",
"566 222 LINE",
"105 222 LINE",
"104 181 LINE",
"404 613 LINE",
"379 613 LINE",
"379 0 LINE"
);
}
);
};
layerId = "A3B50665-EA37-4AC6-885C-1233CA61B6BD";
paths = (
{
closed = 1;
nodes = (
"459 0 LINE",
"459 712 LINE",
"404 712 LINE",
"50 261 LINE",
"50 206 LINE",
"559 206 LINE",
"559 271 LINE",
"105 271 LINE",
"118 247 LINE",
"406 613 LINE",
"380 613 LINE",
"380 0 LINE"
);
}
);
width = 600;
},
{
background = {
paths = (
{
closed = 1;
nodes = (
"487 0 LINE",
"487 712 LINE",
"357 712 LINE",
"32 248 LINE",
"32 128 LINE",
"583 128 LINE",
"583 253 LINE",
"152 253 LINE",
"152 212 LINE",
"360 512 LINE",
"328 512 LINE",
"328 0 LINE"
);
}
);
};
layerId = "014D4A40-7C7F-4023-B30E-1F55CE5EA091";
paths = (
{
closed = 1;
nodes = (
"487 0 LINE",
"487 712 LINE",
"382 712 LINE",
"32 275 LINE",
"32 170 LINE",
"587 170 LINE",
"587 292 LINE",
"152 292 LINE",
"158 254 LINE",
"367 517 LINE",
"339 512 LINE",
"339 0 LINE"
);
}
);
width = 600;
}
);
leftKerningGroup = four;
rightKerningGroup = four;
unicode = 0034;
},
{
color = 3;
glyphname = five;
lastChange = "2019-03-15 15:04:49 +0000";
layers = (
{
background = {
paths = (
{
closed = 1;
nodes = (
"1259 -7 OFFCURVE",
"1352 86 OFFCURVE",
"1352 221 CURVE SMOOTH",
"1352 355 OFFCURVE",
"1266 446 OFFCURVE",
"1129 446 CURVE SMOOTH",
"1053 446 OFFCURVE",
"990 414 OFFCURVE",
"952 358 CURVE",
"977 354 LINE",
"977 646 LINE",
"1323 646 LINE",
"1323 712 LINE",
"898 712 LINE",
"898 295 LINE",
"954 295 LINE",
"995 352 OFFCURVE",
"1048 379 OFFCURVE",
"1118 379 CURVE SMOOTH",
"1212 379 OFFCURVE",
"1273 314 OFFCURVE",
"1273 219 CURVE SMOOTH",
"1273 121 OFFCURVE",
"1213 60 OFFCURVE",
"1112 60 CURVE SMOOTH",
"1041 60 OFFCURVE",
"973 88 OFFCURVE",
"909 143 CURVE",
"878 82 LINE",
"936 26 OFFCURVE",
"1026 -7 OFFCURVE",
"1111 -7 CURVE SMOOTH"
);
},
{
closed = 1;
nodes = (
"425 -7 OFFCURVE",
"527 71 OFFCURVE",
"527 197 CURVE SMOOTH",
"527 291 OFFCURVE",
"472 351 OFFCURVE",
"377 371 CURVE",
"374 361 LINE",
"459 383 OFFCURVE",
"514 450 OFFCURVE",
"514 537 CURVE SMOOTH",
"514 639 OFFCURVE",
"435 720 OFFCURVE",
"302 720 CURVE SMOOTH",
"182 720 OFFCURVE",
"100 647 OFFCURVE",
"70 542 CURVE",
"136 514 LINE",
"163 601 OFFCURVE",
"211 646 OFFCURVE",
"300 646 CURVE SMOOTH",
"381 646 OFFCURVE",
"431 600 OFFCURVE",
"431 532 CURVE SMOOTH",
"431 444 OFFCURVE",
"372 395 OFFCURVE",
"269 395 CURVE SMOOTH",
"244 395 LINE",
"244 328 LINE",
"285 328 LINE SMOOTH",
"379 328 OFFCURVE",
"444 286 OFFCURVE",
"444 200 CURVE SMOOTH",
"444 109 OFFCURVE",
"373 64 OFFCURVE",
"264 64 CURVE SMOOTH",
"201 64 OFFCURVE",
"141 83 OFFCURVE",
"97 113 CURVE",
"72 43 LINE",
"115 13 OFFCURVE",
"185 -7 OFFCURVE",
"262 -7 CURVE SMOOTH"
);
}
);
};
guideLines = (
{
angle = -1.776;
position = "{168, 403}";
}
);
layerId = "A3B50665-EA37-4AC6-885C-1233CA61B6BD";
paths = (
{
closed = 1;
nodes = (
"425 -7 OFFCURVE",
"525 71 OFFCURVE",
"525 201 CURVE SMOOTH",
"525 316 OFFCURVE",
"433 397 OFFCURVE",
"258 403 CURVE SMOOTH",
"164 406 LINE",
"196 378 LINE",
"216 669 LINE",
"172 645 LINE",
"491 645 LINE",
"491 712 LINE",
"142 712 LINE",
"117 337 LINE",
"236 333 LINE SMOOTH",
"376 328 OFFCURVE",
"444 284 OFFCURVE",
"444 200 CURVE SMOOTH",
"444 109 OFFCURVE",
"373 64 OFFCURVE",
"264 64 CURVE SMOOTH",
"201 64 OFFCURVE",
"141 83 OFFCURVE",
"97 113 CURVE",
"72 43 LINE",
"115 13 OFFCURVE",
"185 -7 OFFCURVE",
"262 -7 CURVE SMOOTH"
);
}
);
width = 600;
},
{
background = {
paths = (
{
closed = 1;
nodes = (
"1264 -8 OFFCURVE",
"1372 87 OFFCURVE",
"1372 233 CURVE SMOOTH",
"1372 370 OFFCURVE",
"1280 462 OFFCURVE",
"1146 462 CURVE SMOOTH",
"1079 462 OFFCURVE",
"1027 441 OFFCURVE",
"987 399 CURVE",
"1035 391 LINE",
"1035 588 LINE",
"1337 588 LINE",
"1337 712 LINE",
"877 712 LINE",
"877 291 LINE",
"969 291 LINE",
"1006 320 OFFCURVE",
"1055 337 OFFCURVE",
"1100 337 CURVE SMOOTH",
"1174 337 OFFCURVE",
"1219 296 OFFCURVE",
"1219 227 CURVE SMOOTH",
"1219 156 OFFCURVE",
"1178 119 OFFCURVE",
"1097 119 CURVE SMOOTH",
"1031 119 OFFCURVE",
"966 142 OFFCURVE",
"903 187 CURVE",
"852 71 LINE",
"907 23 OFFCURVE",
"1004 -8 OFFCURVE",
"1095 -8 CURVE SMOOTH"
);
},
{
closed = 1;
nodes = (
"427 -7 OFFCURVE",
"527 71 OFFCURVE",
"527 201 CURVE SMOOTH",
"527 316 OFFCURVE",
"435 395 OFFCURVE",
"256 401 CURVE SMOOTH",
"162 404 LINE",
"193 358 LINE",
"218 690 LINE",
"170 645 LINE",
"500 645 LINE",
"500 712 LINE",
"140 712 LINE",
"115 337 LINE",
"234 333 LINE SMOOTH",
"378 328 OFFCURVE",
"446 284 OFFCURVE",
"446 200 CURVE SMOOTH",
"446 109 OFFCURVE",
"375 64 OFFCURVE",
"266 64 CURVE SMOOTH",
"203 64 OFFCURVE",
"143 83 OFFCURVE",
"99 113 CURVE",
"74 43 LINE",
"117 13 OFFCURVE",
"187 -7 OFFCURVE",
"264 -7 CURVE SMOOTH"
);
}
);
};
guideLines = (
{
angle = 177.8789;
position = "{172, 431}";
}
);
layerId = "014D4A40-7C7F-4023-B30E-1F55CE5EA091";
paths = (
{
closed = 1;
nodes = (
"427 -10 OFFCURVE",
"540 74 OFFCURVE",
"540 214 CURVE SMOOTH",
"540 346 OFFCURVE",
"448 423 OFFCURVE",
"250 431 CURVE SMOOTH",
"161 434 LINE",
"250 391 LINE",
"268 633 LINE",
"201 588 LINE",
"504 588 LINE",
"504 712 LINE",
"128 712 LINE",
"98 306 LINE",
"213 302 LINE SMOOTH",
"356 296 OFFCURVE",
"390 258 OFFCURVE",
"390 209 CURVE SMOOTH",
"390 155 OFFCURVE",
"349 120 OFFCURVE",
"260 120 CURVE SMOOTH",
"193 120 OFFCURVE",
"137 137 OFFCURVE",
"92 164 CURVE",
"56 37 LINE",
"103 4 OFFCURVE",
"188 -10 OFFCURVE",
"255 -10 CURVE SMOOTH"
);
}
);
width = 600;
}
);
leftKerningGroup = five;
rightKerningGroup = five;
unicode = 0035;
},
{
color = 3;
glyphname = six;
lastChange = "2019-03-15 20:40:07 +0000";
layers = (
{
background = {
paths = (
{
closed = 1;
nodes = (
"466 -8 OFFCURVE",
"568 134 OFFCURVE",
"568 369 CURVE SMOOTH",
"568 593 OFFCURVE",
"477 720 OFFCURVE",
"332 720 CURVE SMOOTH",
"177 720 OFFCURVE",
"74 569 OFFCURVE",
"74 342 CURVE SMOOTH",
"74 107 OFFCURVE",
"164 -8 OFFCURVE",
"318 -8 CURVE SMOOTH"
);
},
{
closed = 1;
nodes = (
"214 65 OFFCURVE",
"154 154 OFFCURVE",
"154 342 CURVE SMOOTH",
"154 536 OFFCURVE",
"225 648 OFFCURVE",
"332 648 CURVE SMOOTH",
"430 648 OFFCURVE",
"489 550 OFFCURVE",
"489 371 CURVE SMOOTH",
"489 167 OFFCURVE",
"421 65 OFFCURVE",
"318 65 CURVE SMOOTH"
);
}
);
};
layerId = "A3B50665-EA37-4AC6-885C-1233CA61B6BD";
paths = (
{
closed = 1;
nodes = (
"456 -8 OFFCURVE",
"555 93 OFFCURVE",
"555 233 CURVE SMOOTH",
"555 360 OFFCURVE",
"468 446 OFFCURVE",
"350 446 CURVE SMOOTH",
"239 446 OFFCURVE",
"156 376 OFFCURVE",
"128 269 CURVE",
"152 251 LINE",
"152 338 LINE SMOOTH",
"152 548 OFFCURVE",
"235 651 OFFCURVE",
"348 651 CURVE SMOOTH",
"420 651 OFFCURVE",
"467 619 OFFCURVE",
"496 532 CURVE",
"563 562 LINE",
"528 666 OFFCURVE",
"454 720 OFFCURVE",
"350 720 CURVE SMOOTH",
"173 720 OFFCURVE",
"74 562 OFFCURVE",
"74 327 CURVE SMOOTH",
"74 108 OFFCURVE",
"160 -8 OFFCURVE",
"317 -8 CURVE SMOOTH"
);
},
{
closed = 1;
nodes = (
"229 60 OFFCURVE",
"171 120 OFFCURVE",
"171 215 CURVE SMOOTH",
"171 313 OFFCURVE",
"241 378 OFFCURVE",
"332 378 CURVE SMOOTH",
"420 378 OFFCURVE",
"476 318 OFFCURVE",
"476 226 CURVE SMOOTH",
"476 126 OFFCURVE",
"413 60 OFFCURVE",
"321 60 CURVE SMOOTH"
);
}
);
width = 600;
},
{
background = {
paths = (
{
closed = 1;
nodes = (
"467 -10 OFFCURVE",
"569 98 OFFCURVE",
"569 243 CURVE SMOOTH",
"569 379 OFFCURVE",
"472 459 OFFCURVE",
"363 459 CURVE SMOOTH",
"276 459 OFFCURVE",
"208 416 OFFCURVE",
"172 344 CURVE",
"198 308 LINE",
"198 370 LINE SMOOTH",
"198 511 OFFCURVE",
"259 589 OFFCURVE",
"342 589 CURVE SMOOTH",
"398 589 OFFCURVE",
"436 562 OFFCURVE",
"452 506 CURVE",
"577 565 LINE",
"542 677 OFFCURVE",
"457 720 OFFCURVE",
"353 720 CURVE SMOOTH",
"180 720 OFFCURVE",
"49 579 OFFCURVE",
"49 339 CURVE SMOOTH",
"49 111 OFFCURVE",
"149 -10 OFFCURVE",
"318 -10 CURVE SMOOTH"
);
},
{
closed = 1;
nodes = (
"258 112 OFFCURVE",
"214 154 OFFCURVE",
"214 222 CURVE SMOOTH",
"214 285 OFFCURVE",
"258 334 OFFCURVE",
"322 334 CURVE SMOOTH",
"388 334 OFFCURVE",
"427 291 OFFCURVE",
"427 224 CURVE SMOOTH",
"426 165 OFFCURVE",
"386 112 OFFCURVE",
"320 112 CURVE SMOOTH"
);
}
);
};
guideLines = (
{
angle = 90;
position = "{618, 400}";
}
);
layerId = "014D4A40-7C7F-4023-B30E-1F55CE5EA091";
paths = (
{
closed = 1;
nodes = (
"467 -10 OFFCURVE",
"569 98 OFFCURVE",
"569 243 CURVE SMOOTH",
"569 379 OFFCURVE",
"472 459 OFFCURVE",
"363 459 CURVE SMOOTH",
"276 459 OFFCURVE",
"208 416 OFFCURVE",
"172 344 CURVE",
"198 308 LINE",
"198 370 LINE SMOOTH",
"198 511 OFFCURVE",
"259 589 OFFCURVE",
"342 589 CURVE SMOOTH",
"398 589 OFFCURVE",
"436 562 OFFCURVE",
"452 506 CURVE",
"577 565 LINE",
"542 677 OFFCURVE",
"457 720 OFFCURVE",
"353 720 CURVE SMOOTH",
"180 720 OFFCURVE",
"49 579 OFFCURVE",
"49 339 CURVE SMOOTH",
"49 101 OFFCURVE",
"149 -10 OFFCURVE",
"318 -10 CURVE SMOOTH"
);
},
{
closed = 1;
nodes = (
"258 112 OFFCURVE",
"214 148 OFFCURVE",
"214 222 CURVE SMOOTH",
"214 285 OFFCURVE",
"258 334 OFFCURVE",
"322 334 CURVE SMOOTH",
"388 334 OFFCURVE",
"427 291 OFFCURVE",
"427 224 CURVE SMOOTH",
"426 165 OFFCURVE",
"386 112 OFFCURVE",
"319 112 CURVE SMOOTH"
);
}
);
width = 600;
}
);
leftKerningGroup = six;
rightKerningGroup = six;
unicode = 0036;
},
{
color = 3;
glyphname = seven;
lastChange = "2019-03-15 21:05:43 +0000";
layers = (
{
background = {
paths = (
{
closed = 1;
nodes = (
"549 589 LINE",
"549 710 LINE",
"61 710 LINE",
"61 586 LINE",
"400 586 LINE",
"405 626 LINE",
"100 0 LINE",
"263 0 LINE"
);
}
);
};
layerId = "A3B50665-EA37-4AC6-885C-1233CA61B6BD";
paths = (
{
closed = 1;
nodes = (
"530 651 LINE",
"530 710 LINE",
"82 710 LINE",
"82 643 LINE",
"467 643 LINE",
"458 676 LINE",
"130 0 LINE",
"216 0 LINE"
);
}
);
width = 600;
},
{
background = {
paths = (
{
closed = 1;
nodes = (
"550 591 LINE",
"550 712 LINE",
"35 712 LINE",
"35 582 LINE",
"401 582 LINE",
"400 628 LINE",
"61 0 LINE",
"234 0 LINE"
);
}
);
};
layerId = "014D4A40-7C7F-4023-B30E-1F55CE5EA091";
paths = (
{
closed = 1;
nodes = (
"547 589 LINE",
"547 710 LINE",
"66 710 LINE",
"66 586 LINE",
"398 586 LINE",
"404 626 LINE",
"101 0 LINE",
"264 0 LINE"
);
}
);
width = 600;
}
);
leftKerningGroup = seven;
rightKerningGroup = seven;
unicode = 0037;
},
{
color = 3;
glyphname = eight;
lastChange = "2019-03-15 23:38:37 +0000";
layers = (
{
background = {
paths = (
{
closed = 1;
nodes = (
"1144 -8 OFFCURVE",
"1245 67 OFFCURVE",
"1245 187 CURVE SMOOTH",
"1245 283 OFFCURVE",
"1176 354 OFFCURVE",
"1082 370 CURVE",
"1087 354 LINE",
"1172 373 OFFCURVE",
"1229 437 OFFCURVE",
"1229 524 CURVE SMOOTH",
"1229 642 OFFCURVE",
"1131 720 OFFCURVE",
"1001 720 CURVE SMOOTH",
"871 720 OFFCURVE",
"773 642 OFFCURVE",
"773 524 CURVE SMOOTH",
"773 437 OFFCURVE",
"830 373 OFFCURVE",
"915 354 CURVE",
"920 370 LINE",
"826 354 OFFCURVE",
"757 283 OFFCURVE",
"757 187 CURVE SMOOTH",
"757 67 OFFCURVE",
"858 -8 OFFCURVE",
"1001 -8 CURVE SMOOTH"
);
},
{
closed = 1;
nodes = (
"902 63 OFFCURVE",
"836 108 OFFCURVE",
"836 191 CURVE SMOOTH",
"836 274 OFFCURVE",
"905 328 OFFCURVE",
"1001 328 CURVE SMOOTH",
"1097 328 OFFCURVE",
"1166 274 OFFCURVE",
"1166 191 CURVE SMOOTH",
"1166 108 OFFCURVE",
"1100 63 OFFCURVE",
"1001 63 CURVE SMOOTH"
);
},
{
closed = 1;
nodes = (
"914 390 OFFCURVE",
"852 440 OFFCURVE",
"852 517 CURVE SMOOTH",
"852 600 OFFCURVE",
"915 650 OFFCURVE",
"1001 650 CURVE SMOOTH",
"1087 650 OFFCURVE",
"1150 600 OFFCURVE",
"1150 517 CURVE SMOOTH",
"1150 440 OFFCURVE",
"1088 390 OFFCURVE",
"1001 390 CURVE SMOOTH"
);
},
{
closed = 1;
nodes = (
"445 -8 OFFCURVE",
"547 134 OFFCURVE",
"547 369 CURVE SMOOTH",
"547 593 OFFCURVE",
"456 720 OFFCURVE",
"311 720 CURVE SMOOTH",
"156 720 OFFCURVE",
"53 569 OFFCURVE",
"53 342 CURVE SMOOTH",
"53 107 OFFCURVE",
"143 -8 OFFCURVE",
"297 -8 CURVE SMOOTH"
);
},
{
closed = 1;
nodes = (
"193 65 OFFCURVE",
"133 154 OFFCURVE",
"133 342 CURVE SMOOTH",
"133 536 OFFCURVE",
"204 648 OFFCURVE",
"311 648 CURVE SMOOTH",
"409 648 OFFCURVE",
"468 550 OFFCURVE",
"468 371 CURVE SMOOTH",
"468 167 OFFCURVE",
"400 65 OFFCURVE",
"297 65 CURVE SMOOTH"
);
}
);
};
layerId = "A3B50665-EA37-4AC6-885C-1233CA61B6BD";
paths = (
{
closed = 1;
nodes = (
"438 -8 OFFCURVE",
"542 67 OFFCURVE",
"544 187 CURVE SMOOTH",
"544 283 OFFCURVE",
"476 354 OFFCURVE",
"382 370 CURVE",
"387 354 LINE",
"470 373 OFFCURVE",
"530 439 OFFCURVE",
"530 527 CURVE SMOOTH",
"530 644 OFFCURVE",
"435 720 OFFCURVE",
"304 720 CURVE SMOOTH",
"177 720 OFFCURVE",
"75 642 OFFCURVE",
"74 524 CURVE SMOOTH",
"74 437 OFFCURVE",
"130 373 OFFCURVE",
"215 354 CURVE",
"220 370 LINE",
"128 354 OFFCURVE",
"56 280 OFFCURVE",
"56 183 CURVE SMOOTH",
"56 65 OFFCURVE",
"154 -8 OFFCURVE",
"298 -8 CURVE SMOOTH"
);
},
{
closed = 1;
nodes = (
"200 63 OFFCURVE",
"135 107 OFFCURVE",
"135 189 CURVE SMOOTH",
"135 273 OFFCURVE",
"204 328 OFFCURVE",
"301 328 CURVE SMOOTH",
"396 328 OFFCURVE",
"464 275 OFFCURVE",
"464 193 CURVE SMOOTH",
"464 109 OFFCURVE",
"398 63 OFFCURVE",
"298 63 CURVE SMOOTH"
);
},
{
closed = 1;
nodes = (
"214 390 OFFCURVE",
"153 440 OFFCURVE",
"153 517 CURVE SMOOTH",
"154 600 OFFCURVE",
"218 650 OFFCURVE",
"304 650 CURVE SMOOTH",
"388 650 OFFCURVE",
"451 601 OFFCURVE",
"451 519 CURVE SMOOTH",
"451 441 OFFCURVE",
"389 390 OFFCURVE",
"301 390 CURVE SMOOTH"
);
}
);
width = 600;
},
{
background = {
paths = (
{
closed = 1;
nodes = (
"455 -10 OFFCURVE",
"565 66 OFFCURVE",
"565 192 CURVE SMOOTH",
"565 292 OFFCURVE",
"488 360 OFFCURVE",
"389 373 CURVE",
"391 347 LINE",
"483 366 OFFCURVE",
"548 432 OFFCURVE",
"548 522 CURVE SMOOTH",
"548 644 OFFCURVE",
"442 720 OFFCURVE",
"300 720 CURVE SMOOTH",
"158 720 OFFCURVE",
"52 644 OFFCURVE",
"52 522 CURVE SMOOTH",
"52 432 OFFCURVE",
"117 366 OFFCURVE",
"209 347 CURVE",
"211 373 LINE",
"112 360 OFFCURVE",
"35 292 OFFCURVE",
"35 192 CURVE SMOOTH",
"35 66 OFFCURVE",
"145 -10 OFFCURVE",
"300 -10 CURVE SMOOTH"
);
},
{
closed = 1;
nodes = (
"230 114 OFFCURVE",
"181 144 OFFCURVE",
"181 205 CURVE SMOOTH",
"181 265 OFFCURVE",
"230 301 OFFCURVE",
"300 301 CURVE SMOOTH",
"370 301 OFFCURVE",
"419 265 OFFCURVE",
"419 205 CURVE SMOOTH",
"419 144 OFFCURVE",
"370 114 OFFCURVE",
"300 114 CURVE SMOOTH"
);
},
{
closed = 1;
nodes = (
"242 417 OFFCURVE",
"199 450 OFFCURVE",
"199 509 CURVE SMOOTH",
"199 562 OFFCURVE",
"241 596 OFFCURVE",
"300 596 CURVE SMOOTH",
"359 596 OFFCURVE",
"401 562 OFFCURVE",
"401 509 CURVE SMOOTH",
"401 450 OFFCURVE",
"358 417 OFFCURVE",
"300 417 CURVE SMOOTH"
);
}
);
};
layerId = "014D4A40-7C7F-4023-B30E-1F55CE5EA091";
paths = (
{
closed = 1;
nodes = (
"448 -10 OFFCURVE",
"562 66 OFFCURVE",
"565 192 CURVE SMOOTH",
"567 292 OFFCURVE",
"493 360 OFFCURVE",
"390 373 CURVE",
"392 347 LINE",
"479 366 OFFCURVE",
"550 432 OFFCURVE",
"550 522 CURVE SMOOTH",
"550 644 OFFCURVE",
"451 720 OFFCURVE",
"304 720 CURVE SMOOTH",
"167 720 OFFCURVE",
"55 644 OFFCURVE",
"54 522 CURVE SMOOTH",
"53 432 OFFCURVE",
"114 366 OFFCURVE",
"210 347 CURVE",
"212 373 LINE",
"118 360 OFFCURVE",
"35 292 OFFCURVE",
"35 192 CURVE SMOOTH",
"35 66 OFFCURVE",
"138 -10 OFFCURVE",
"298 -10 CURVE SMOOTH"
);
},
{
closed = 1;
nodes = (
"229 114 OFFCURVE",
"180 144 OFFCURVE",
"181 205 CURVE SMOOTH",
"182 265 OFFCURVE",
"231 301 OFFCURVE",
"301 301 CURVE SMOOTH",
"371 301 OFFCURVE",
"419 265 OFFCURVE",
"419 205 CURVE SMOOTH",
"419 144 OFFCURVE",
"369 114 OFFCURVE",
"299 114 CURVE SMOOTH"
);
},
{
closed = 1;
nodes = (
"244 417 OFFCURVE",
"201 450 OFFCURVE",
"201 509 CURVE SMOOTH",
"201 562 OFFCURVE",
"244 596 OFFCURVE",
"303 596 CURVE SMOOTH",
"362 596 OFFCURVE",
"404 562 OFFCURVE",
"403 509 CURVE SMOOTH",
"402 450 OFFCURVE",
"360 417 OFFCURVE",
"302 417 CURVE SMOOTH"
);
}
);
width = 600;
}
);
leftKerningGroup = eight;
rightKerningGroup = eight;
unicode = 0038;
},
{
color = 6;
glyphname = nine;
lastChange = "2019-03-15 20:40:09 +0000";
layers = (
{
background = {
paths = (
{
closed = 1;
nodes = (
"138 720 OFFCURVE",
"42 624 OFFCURVE",
"42 491 CURVE SMOOTH",
"42 357 OFFCURVE",
"132 266 OFFCURVE",
"264 266 CURVE SMOOTH",
"371 266 OFFCURVE",
"456 332 OFFCURVE",
"472 435 CURVE",
"460 461 LINE",
"460 374 LINE SMOOTH",
"460 174 OFFCURVE",
"388 59 OFFCURVE",
"264 59 CURVE SMOOTH",
"201 59 OFFCURVE",
"142 84 OFFCURVE",
"74 142 CURVE",
"43 81 LINE",
"103 23 OFFCURVE",
"184 -8 OFFCURVE",
"266 -8 CURVE SMOOTH",
"438 -8 OFFCURVE",
"539 133 OFFCURVE",
"539 374 CURVE SMOOTH",
"539 596 OFFCURVE",
"443 720 OFFCURVE",
"271 720 CURVE SMOOTH"
);
},
{
closed = 1;
nodes = (
"370 653 OFFCURVE",
"436 588 OFFCURVE",
"436 493 CURVE SMOOTH",
"436 398 OFFCURVE",
"370 333 OFFCURVE",
"276 333 CURVE SMOOTH",
"183 333 OFFCURVE",
"121 397 OFFCURVE",
"121 493 CURVE SMOOTH",
"121 589 OFFCURVE",
"182 653 OFFCURVE",
"275 653 CURVE SMOOTH"
);
}
);
};
components = (
{
name = six;
transform = "{-1, 0, 0, -1, 600, 712}";
}
);
layerId = "A3B50665-EA37-4AC6-885C-1233CA61B6BD";
width = 600;
},
{
background = {
paths = (
{
closed = 1;
nodes = (
"133 721 OFFCURVE",
"31 620 OFFCURVE",
"31 479 CURVE SMOOTH",
"31 344 OFFCURVE",
"121 248 OFFCURVE",
"246 248 CURVE SMOOTH",
"332 248 OFFCURVE",
"403 297 OFFCURVE",
"422 370 CURVE",
"406 394 LINE",
"406 362 LINE SMOOTH",
"406 202 OFFCURVE",
"355 118 OFFCURVE",
"258 118 CURVE SMOOTH",
"208 118 OFFCURVE",
"149 137 OFFCURVE",
"83 186 CURVE",
"31 70 LINE",
"90 19 OFFCURVE",
"178 -9 OFFCURVE",
"265 -9 CURVE SMOOTH",
"453 -9 OFFCURVE",
"567 131 OFFCURVE",
"567 366 CURVE SMOOTH",
"567 594 OFFCURVE",
"462 721 OFFCURVE",
"276 721 CURVE SMOOTH"
);
},
{
closed = 1;
nodes = (
"346 595 OFFCURVE",
"388 550 OFFCURVE",
"388 485 CURVE SMOOTH",
"388 419 OFFCURVE",
"346 375 OFFCURVE",
"285 375 CURVE SMOOTH",
"223 375 OFFCURVE",
"184 418 OFFCURVE",
"184 485 CURVE SMOOTH",
"184 551 OFFCURVE",
"223 595 OFFCURVE",
"285 595 CURVE SMOOTH"
);
}
);
};
components = (
{
name = six;
transform = "{-1, 0, 0, -1, 600, 712}";
}
);
layerId = "014D4A40-7C7F-4023-B30E-1F55CE5EA091";
width = 600;
}
);
leftKerningGroup = nine;
widthMetricsKey = six;
rightKerningGroup = nine;
rightMetricsKey = "=|six";
unicode = 0039;
},
{
glyphname = period;
lastChange = "2019-03-08 21:31:41 +0000";
layers = (
{
background = {
paths = (
{
closed = 1;
nodes = (
"36 99 LINE SMOOTH",
"25 99 OFFCURVE",
"17 90 OFFCURVE",
"17 80 CURVE SMOOTH",
"17 18 LINE SMOOTH",
"17 9 OFFCURVE",
"25 0 OFFCURVE",
"36 0 CURVE SMOOTH",
"98 0 LINE SMOOTH",
"108 0 OFFCURVE",
"116 9 OFFCURVE",
"116 18 CURVE SMOOTH",
"116 81 LINE SMOOTH",
"116 90 OFFCURVE",
"108 99 OFFCURVE",
"98 99 CURVE SMOOTH"
);
}
);
};
layerId = "A3B50665-EA37-4AC6-885C-1233CA61B6BD";
paths = (
{
closed = 1;
nodes = (
"119 -8 OFFCURVE",
"139 15 OFFCURVE",
"139 44 CURVE SMOOTH",
"139 73 OFFCURVE",
"119 96 OFFCURVE",
"87 96 CURVE SMOOTH",
"56 96 OFFCURVE",
"35 73 OFFCURVE",
"35 44 CURVE SMOOTH",
"35 15 OFFCURVE",
"56 -8 OFFCURVE",
"87 -8 CURVE SMOOTH"
);
}
);
width = 174;
},
{
background = {
paths = (
{
closed = 1;
nodes = (
"89 154 LINE SMOOTH",
"64 154 OFFCURVE",
"56 138 OFFCURVE",
"56 121 CURVE SMOOTH",
"56 33 LINE SMOOTH",
"56 17 OFFCURVE",
"64 0 OFFCURVE",
"89 0 CURVE SMOOTH",
"177 0 LINE SMOOTH",
"202 0 OFFCURVE",
"210 17 OFFCURVE",
"210 33 CURVE SMOOTH",
"210 129 LINE SMOOTH",
"210 146 OFFCURVE",
"200 154 OFFCURVE",
"175 154 CURVE SMOOTH"
);
}
);
};
layerId = "014D4A40-7C7F-4023-B30E-1F55CE5EA091";
paths = (
{
closed = 1;
nodes = (
"194 -10 OFFCURVE",
"233 32 OFFCURVE",
"233 87 CURVE SMOOTH",
"233 142 OFFCURVE",
"194 184 OFFCURVE",
"133 184 CURVE SMOOTH",
"72 184 OFFCURVE",
"33 142 OFFCURVE",
"33 87 CURVE SMOOTH",
"33 32 OFFCURVE",
"72 -10 OFFCURVE",
"133 -10 CURVE SMOOTH"
);
}
);
width = 266;
}
);
note = period;
rightMetricsKey = "=|";
unicode = 002E;
},
{
glyphname = comma;
lastChange = "2019-03-12 19:35:38 +0000";
layers = (
{
background = {
paths = (
{
closed = 1;
nodes = (
"119 -8 OFFCURVE",
"139 15 OFFCURVE",
"139 44 CURVE SMOOTH",
"139 73 OFFCURVE",
"119 96 OFFCURVE",
"87 96 CURVE SMOOTH",
"56 96 OFFCURVE",
"35 73 OFFCURVE",
"35 44 CURVE SMOOTH",
"35 15 OFFCURVE",
"56 -8 OFFCURVE",
"87 -8 CURVE SMOOTH"
);
},
{
closed = 1;
nodes = (
"419 -108 OFFCURVE",
"437 -35 OFFCURVE",
"437 34 CURVE SMOOTH",
"437 73 OFFCURVE",
"419 96 OFFCURVE",
"387 96 CURVE SMOOTH",
"356 96 OFFCURVE",
"337 73 OFFCURVE",
"337 34 CURVE SMOOTH",
"337 -35 OFFCURVE",
"356 -108 OFFCURVE",
"387 -108 CURVE SMOOTH"
);
}
);
};
layerId = "A3B50665-EA37-4AC6-885C-1233CA61B6BD";
paths = (
{
closed = 1;
nodes = (
"74 -128 LINE",
"110 -82 OFFCURVE",
"137 -13 OFFCURVE",
"137 34 CURVE SMOOTH",
"137 73 OFFCURVE",
"119 96 OFFCURVE",
"87 96 CURVE SMOOTH",
"58 96 OFFCURVE",
"37 75 OFFCURVE",
"37 44 CURVE SMOOTH",
"37 12 OFFCURVE",
"54 -8 OFFCURVE",
"54 -47 CURVE SMOOTH",
"54 -70 OFFCURVE",
"47 -98 OFFCURVE",
"36 -128 CURVE"
);
}
);
width = 174;
},
{
background = {
paths = (
{
closed = 1;
nodes = (
"109 -170 LINE",
"178 -101 OFFCURVE",
"231 7 OFFCURVE",
"231 77 CURVE SMOOTH",
"231 144 OFFCURVE",
"195 183 OFFCURVE",
"134 183 CURVE SMOOTH",
"76 183 OFFCURVE",
"37 145 OFFCURVE",
"37 89 CURVE SMOOTH",
"37 20 OFFCURVE",
"109 -3 OFFCURVE",
"35 -170 CURVE"
);
}
);
};
layerId = "014D4A40-7C7F-4023-B30E-1F55CE5EA091";
paths = (
{
closed = 1;
nodes = (
"109 -170 LINE",
"178 -101 OFFCURVE",
"231 7 OFFCURVE",
"231 77 CURVE SMOOTH",
"231 144 OFFCURVE",
"195 183 OFFCURVE",
"134 183 CURVE SMOOTH",
"76 183 OFFCURVE",
"37 145 OFFCURVE",
"37 89 CURVE SMOOTH",
"37 43 OFFCURVE",
"69 18 OFFCURVE",
"69 -42 CURVE SMOOTH",
"69 -77 OFFCURVE",
"57 -119 OFFCURVE",
"35 -170 CURVE"
);
}
);
width = 266;
}
);
widthMetricsKey = period;
note = period;
unicode = 002C;
},
